<?xml version="1.0" standalone="no"?>
<!DOCTYPE svg PUBLIC "-//W3C//DTD SVG 1.1//EN" "http://www.w3.org/Graphics/SVG/1.1/DTD/svg11.dtd" >
<svg>
<metadata>
Created by FontForge 20090914 at Sun Sep  8 05:34:12 2013
 By www-data
cetion
</metadata>
<defs>
<font id="blunt" horiz-adv-x="416" >
  <font-face 
    font-family="Blunt"
    font-weight="400"
    font-stretch="normal"
    units-per-em="1000"
    panose-1="0 0 0 0 0 0 0 0 0 0"
    ascent="800"
    descent="-200"
    x-height="403.997"
    cap-height="831"
    bbox="-225.999 -414 983 1119"
    underline-thickness="20"
    underline-position="-123"
    unicode-range="U+0020-U+2122"
  />
<missing-glyph horiz-adv-x="800" 
d="M50 0v800h700v-800h-700zM700 50v700h-600v-700h600z" />
    <glyph glyph-name=".notdef" horiz-adv-x="800" 
d="M50 0v800h700v-800h-700zM700 50v700h-600v-700h600z" />
    <glyph glyph-name="space" unicode=" " horiz-adv-x="500" 
 />
    <glyph glyph-name="exclam" unicode="!" horiz-adv-x="280" 
d="M280 749l-16.001 -79.998c-12.667 -62 -25.334 -117.667 -38.001 -167c-1.33301 -6.66699 -22.666 -62.667 -63.999 -168c-14.667 -38 -22 -65.667 -22 -83c0 -12.667 -5.66699 -26.334 -17 -41.001c-7.33301 -10 -15.333 -15 -24 -15
c-7.33301 0 -14.666 4.66699 -21.999 14s-11 20 -11 32c7.33301 30 14.333 56 21 78c18 60.667 42.333 130.667 73 210c6 15.333 14 59.666 24 132.999c7.33301 55.333 26 104.333 56 147c10 -30.667 23.333 -50.667 40 -60zM51.999 1.00195
c-9.33301 -3.33301 -19.333 1.00098 -30 13.001s-16 25.667 -16 41c0 12 9.16699 25 27.5 39s34.5 21 48.5 21c8 0 15 -3.33301 21 -10s9 -14.334 9 -23.001c0 -16 -4 -30.667 -12 -44c-10 -16.667 -26 -29 -48 -37z" />
    <glyph glyph-name="quotedbl" unicode="&#x22;" horiz-adv-x="255" 
d="M255 763c0 -23.333 -2.83203 -60.998 -8.49902 -112.998l-17.5 -157c-4 -10.667 -7 -18.334 -9 -23.001c-7.33301 -15.333 -14.333 -23 -21 -23c-13.333 0 -24 4.33301 -32 13s-12 18.667 -12 30c8.66699 38 16.5 75 23.5 111s10.5 68.667 10.5 98
c-0.666992 6 -1.33398 14.667 -2.00098 26s-1 19.666 -1 24.999c0 22 1.66699 39.333 5 52s10.333 19 21 19c13.333 0 23.833 -5.5 31.5 -16.5s11.5 -24.833 11.5 -41.5zM107.001 723.002c0 -41.333 -2.66699 -74.999 -8 -100.999c-12 -58 -18 -91 -18 -99l-6 -24
c-4.66699 -18 -9 -31.333 -13 -40h-20l-30 20c-4.66699 3.33301 -7 7 -7 11c1.33301 8.66699 2 18.334 2 29.001c0 18.667 6.83301 49.167 20.5 91.5s20.5 74.166 20.5 95.499c0 4.66699 -0.333008 13 -1 25s-1 18.333 -1 19c0 16 1.66699 28.5 5 37.5s10 13.5 20 13.5
c14 0 23.667 -4.83301 29 -14.5s8 -21.834 8 -36.501c-0.666992 -13.333 -1 -22.333 -1 -27z" />
    <glyph glyph-name="numbersign" unicode="#" 
d="M416 231c0 -22 -23.3252 -34.0039 -69.9922 -36.0039s-70 -15.333 -70 -40c-3.33301 -9.33301 -5.66602 -17 -6.99902 -23c-5.33301 -20.667 -8 -40 -8 -58c0 -12.667 0.333008 -22.167 1 -28.5s3 -15.833 7 -28.5c-17.333 0 -28 -0.333008 -32 -1s-7 -2 -9 -4
c-10 0 -17.167 3.66699 -21.5 11s-6.5 17.666 -6.5 30.999c0 14 2.33301 32 7 54l15 70c-15.333 2 -29 3 -41 3c-10.667 0 -24.834 -0.5 -42.501 -1.5s-27.834 -1.5 -30.501 -1.5c2.66699 -10.667 4 -22 4 -34c0 -6.66699 -0.666992 -19.167 -2 -37.5s-2 -29.833 -2 -34.5
c-2 -18.667 -4 -32.334 -6 -41.001c-6 -27.333 -14 -41 -24 -41c-5.33301 0 -10.833 1 -16.5 3s-9.83398 3.33301 -12.501 4c-0.666992 5.33301 -1 10.833 -1 16.5v12.5c0 15.333 3 43 9 83c3.33301 22.667 5 41.334 5 56.001c0 0.666992 -8 8.33398 -24 23.001
c-10.667 9.33301 -20.334 21.333 -29.001 36c8 6 14.667 10.167 20 12.5s10 3.5 14 3.5c5.33301 -1.33301 8.66602 -2 9.99902 -2c2.66699 0 5.5 1.83301 8.5 5.5s9.16699 45.667 18.5 126s14 131.166 14 152.499c0 4.66699 -0.833008 10.334 -2.5 17.001s-2.5 11 -2.5 13
c-30.667 0 -51 2.16699 -61 6.5s-21 15.5 -33 33.5v20c11.333 3.33301 21.833 5.33301 31.5 6s19.5 1 29.5 1c24.667 0 39.667 8.33301 45 25s8 70.334 8 161.001h26c9.33301 -8 15.666 -17.333 18.999 -28s5 -25 5 -43c0 -21.333 -0.333008 -41.666 -1 -60.999
s-1.33398 -37.666 -2.00098 -54.999h66c26.667 7.33301 46 20.666 58 39.999c14.667 22.667 22 62.334 22 119.001v35l24 -2c7.33301 -2 15 -3.66699 23 -5l-13 -153c7.33301 -14 15.666 -21 24.999 -21c2 0 5.66699 1 11 3s9.33301 3 12 3
c5.33301 0 10.5 -3.16699 15.5 -9.5s10.5 -18.166 16.5 -35.499c-18 -10 -35.667 -16.333 -53 -19c-5.33301 -0.666992 -12 -1 -20 -1c-10.667 -8 -20.334 -41.167 -29.001 -99.5s-17 -118.833 -25 -181.5v-27c13.333 -10 24 -15 32 -15c4.66699 0 10 1.33301 16 4
c16 7.33301 30 11 42 11c10 0 18.667 -3 26 -9s11 -14 11 -24zM268.008 538.996c0 8 -0.332031 12.999 -0.999023 14.999s-2.33398 3.33301 -5.00098 4h-53c-10.667 -0.666992 -19.667 -2 -27 -4c-26.667 -7.33301 -40 -34.666 -40 -81.999c0 -56 -2.33301 -100.333 -7 -133
l-13 -95c4 -1.33301 8.33301 -3.33301 13 -6l83 24c33.333 36 50 128.333 50 277z" />
    <glyph glyph-name="dollar" unicode="$" horiz-adv-x="444" 
d="M444 622c-2 -0.666992 -4.33398 0.327148 -7.00098 2.99414s-5 4 -7 4c-2.66699 0 -5.16699 -2.16699 -7.5 -6.5s-4.16602 -6.83301 -5.49902 -7.5c-9.33301 1.33301 -16 2 -20 2c-16 0 -32.333 -3.66699 -49 -11c-8 -4 -16 -7.66699 -24 -11
c-4 1.33301 -4.33301 4.33301 -1 9s5 7.33398 5 8.00098c0 2 -2.66699 3 -8 3l-43 -20c0.666992 -3.33301 1.5 -9 2.5 -17s1.5 -13.667 1.5 -17c0 -17.333 -1.5 -34.166 -4.5 -50.499s-9.5 -39.166 -19.5 -68.499c57.333 -32.667 88.666 -50.667 93.999 -54
c48.667 -33.333 73 -79.666 73 -138.999c0 -37.333 -18.667 -64.666 -56 -81.999c-12.667 -6 -45.334 -14.667 -98.001 -26c-36 -8 -56 -17 -60 -27s-6 -59 -6 -147h-27c-16 10 -26.667 20.667 -32 32s-8 25.333 -8 42c0 8 1 19.333 3 34s3 25.334 3 32.001
c0 18 -6 31 -18 39c-15.333 10 -42.666 15 -81.999 15c-6.66699 0 -13.667 2.66699 -21 8c-14 10.667 -22.667 17 -26 19l7 27c26 0 49.333 -2.16699 70 -6.5l63 -13.5c14.667 0 26 30.667 34 92c4.66699 34 11.334 56.667 20.001 68c-9.33301 12 -26.333 21 -51 27
c-25.333 4 -50.666 8.33301 -75.999 13c-9.33301 8 -14 16 -14 24c0 7.33301 -1.66699 11 -5 11c-6.66699 0 -13.667 -0.666992 -21 -2c4.66699 12 7 21 7 27c0 6.66699 -2.33301 11.334 -7 14.001s-7 5 -7 7c0 56 33.333 102.667 100 140c22 12 55.667 25.333 101 40
c5.33301 6 11.166 24.167 17.499 54.5s9.5 65.5 9.5 105.5c12.667 0 20.667 0.666992 24 2s6 3 8 5c8.66699 0 14.334 -11.167 17.001 -33.5s4 -49.5 4 -81.5v-26c23.333 -2 48.166 -3.83301 74.499 -5.5s50.5 -10.834 72.5 -27.501v-27zM203.999 581.994h-14h14z
M203.999 541.994c1.33301 12 2.00098 18.9971 2.00098 20.9971c0 1.33301 -2.33301 2.16602 -7 2.49902s-10.334 1.5 -17.001 3.5c-36 -17.333 -58.667 -30.666 -68 -39.999c-3.33301 -3.33301 -15.666 -21.333 -36.999 -54v-23h126
c-2.66699 8.66699 -4.33398 15.834 -5.00098 21.501s-1 11.834 -1 18.501c0 7.33301 1.16699 16.333 3.5 27s3.5 18.334 3.5 23.001zM376 277.991c0 20.667 -15.668 40.668 -47.001 60.001c-24 14.667 -48 24.667 -72 30c-7.33301 -52.667 -13.666 -91 -18.999 -115
c-2 -10 -4.66699 -20.333 -8 -31c4 -5.33301 6.33301 -10 7 -14c44 7.33301 78.167 16.166 102.5 26.499s36.5 24.833 36.5 43.5z" />
    <glyph glyph-name="percent" unicode="%" horiz-adv-x="365" 
d="M197 632c0 -9.33301 -3.33301 -18.667 -10 -28s-10 -17.333 -10 -24c0 -4.66699 -11.333 -13.834 -34 -27.501s-39.334 -20.5 -50.001 -20.5c-8.66699 0 -14.667 3.33301 -18 10s-10.333 10 -21 10c-11.333 15.333 -19.666 27 -24.999 35
c-17.333 24.667 -26 38.667 -26 42c0 30.667 11.833 56.834 35.5 78.501s46.5 32.5 68.5 32.5c19.333 0 38.333 -9 57 -27c22 -21.333 33 -48.333 33 -81zM365 762.999c-6 -36 -11.001 -63.001 -15.001 -81.001c-12 -54.667 -23 -82 -33 -82
c-5.33301 -20 -11.333 -39.333 -18 -58c-10.667 -28 -26.667 -64.667 -48 -110c-11.333 -24 -22.833 -53.5 -34.5 -88.5s-20.167 -56.833 -25.5 -65.5c-32.667 -51.333 -65 -118.666 -97 -201.999c-20 -52 -39 -78 -57 -78c-8 6.66699 -13.667 11.667 -17 15
c-11.333 10.667 -17 17 -17 19c0 5.33301 19 47 57 125c54 111.333 91.667 190.666 113 237.999c44 98 70 166 78 204c1.33301 6.66699 11.666 35.334 30.999 86.001c15.333 40.667 23 76.667 23 108c2.66699 0.666992 6.33398 2 11.001 4s8.33398 3 11.001 3
c3.33301 0 10.5 -5.5 21.5 -16.5s16.5 -17.833 16.5 -20.5zM364.999 164.998c-6.66699 -25.333 -12.667 -43.999 -18 -55.999c-16.667 -38 -34.334 -57 -53.001 -57c-19.333 0 -41.666 11.333 -66.999 34c-28 24.667 -42 48.667 -42 72c0 28 11.667 50.667 35 68
c18 13.333 35 20 51 20c2 0 12 -4.33301 30 -13c10 -4.66699 20 -7 30 -7c8 -11.333 13.667 -20 17 -26c11.333 -18.667 17 -30.334 17 -35.001zM130.999 659.999c-4 5.33301 -6.33301 9.66797 -7 13.001h-20c-4 -7.33301 -10 -14.5 -18 -21.5l-23 -19.5h2
c4 -2.66699 6 -11.334 6 -26.001c2.66699 -1.33301 5 -2.33301 7 -3s4 -2 6 -4c5.33301 6.66699 15.333 18 30 34c11.333 12 17 21 17 27zM290.999 176.001c-3.33301 6 -5.33203 11.334 -5.99902 16.001c-10.667 -6 -18.334 -10.667 -23.001 -14
c-11.333 -8.66699 -17 -15.334 -17 -20.001l13 -40l20 7c4 13.333 7.16699 24.333 9.5 33s3.5 14.667 3.5 18z" />
    <glyph glyph-name="ampersand" unicode="&#x26;" horiz-adv-x="337" 
d="M337 -10l-6.99707 -27.998c-26.667 9.33301 -43 17.666 -49 24.999c-12.667 21.333 -29.667 46.333 -51 75c-20.667 -18.667 -36 -31.667 -46 -39c-18 -13.333 -39.667 -20 -65 -20c-42.667 0 -73.667 13.333 -93 40c-15.333 21.333 -23 50.333 -23 87
c0 64 17 127.333 51 190s51 104 51 124c0 4.66699 -0.833008 11.667 -2.5 21s-2.83398 22.333 -3.50098 39s-1 26 -1 28c0 64.667 10.667 125 32 181s43.333 84 66 84c42.667 0 74 -12.333 94 -37c18 -22 27 -51.667 27 -89c0 -34 -15.333 -78.667 -46 -134l-94 -166
c0 -33.333 4.5 -62.833 13.5 -88.5s13.5 -41.5 13.5 -47.5c0 -5.33301 -0.333008 -9.33301 -1 -12c5.33301 -4 9.66602 -6 12.999 -6c17.333 0 33 23.333 47 70s29.667 70 47 70c11.333 0 18.833 -2.66699 22.5 -8s5.5 -13 5.5 -23c-0.666992 -10 -1 -17.667 -1 -23
c0 -24.667 -11.333 -56.667 -34 -96s-34 -65.333 -34 -78c15.333 -22.667 26.666 -40.334 33.999 -53.001c22.667 -39.333 34 -68 34 -86zM257.003 670.002c-6 7.33301 -10.3311 15.8311 -12.998 25.498s-7.33398 21.167 -14.001 34.5
c-13.333 -21.333 -25.666 -52.666 -36.999 -93.999c-16 -56.667 -24 -96.334 -24 -119.001c1.33301 -1.33301 2.66602 -3.16602 3.99902 -5.49902s2.66602 -7.16602 3.99902 -14.499l46 92c13.333 27.333 20 54.333 20 81h14zM183.005 136c0 2 -3 8.66797 -9 20.001l-58 113
c-12 -30.667 -21.833 -60.334 -29.5 -89.001s-11.5 -55.334 -11.5 -80.001c0 -7.33301 2.66699 -14 8 -20c8 -6.66699 14.667 -12.667 20 -18c20.667 12.667 38 25.334 52 38.001c18.667 16.667 28 28.667 28 36z" />
    <glyph glyph-name="quotesingle" unicode="'" horiz-adv-x="123" 
d="M123 762c0 -13.333 -8.83398 -67.501 -26.501 -162.501s-26.5 -155.5 -26.5 -181.5c-4 0 -7.16699 -1.16699 -9.5 -3.5s-5.83301 -3.5 -10.5 -3.5c-8.66699 0 -18.667 4.66699 -30 14s-17 16 -17 20c5.33301 13.333 10 31.833 14 55.5s6 48.834 6 75.501
c0 9.33301 8.83301 50.166 26.5 122.499s30.834 108.5 39.501 108.5c8 -6 13.667 -10.667 17 -14c11.333 -11.333 17 -21.666 17 -30.999z" />
    <glyph glyph-name="parenleft" unicode="(" horiz-adv-x="338" 
d="M338 783c-1.33301 0 -20.0029 -19.6631 -56.0029 -58.9961c-42.667 -46 -77.667 -86.667 -105 -122c-38 -48.667 -57 -81.667 -57 -99c0 -5.33301 1.66699 -9 5 -11c-16.667 -20.667 -27.5 -37.834 -32.5 -51.501s-7.83301 -20.5 -8.5 -20.5
c-4.66699 -18 -8 -31.667 -10 -41c-6.66699 -28.667 -10 -45.334 -10 -50.001c0 -2 1.5 -3.16699 4.5 -3.5s6.16699 -0.5 9.5 -0.5c0.666992 -2.66699 2.66699 -21.167 6 -55.5s10.833 -63.833 22.5 -88.5s39.834 -52.334 84.501 -83.001l141 -80v-27
c-6 -1.33301 -11 -2.83301 -15 -4.5s-9 -2.5 -15 -2.5c-41.333 0 -80.666 18 -117.999 54s-62 54 -74 54c-8 0 -26.333 26.333 -55 79c-34 62 -51 118 -51 168c0 10 8.33301 39.667 25 89c24.667 72 54.334 137.333 89.001 196c49.333 83.333 107.333 150.666 174 201.999
h40c0 -5.33301 1 -12.333 3 -21s3 -16 3 -22zM137.997 566.004v6v-6z" />
    <glyph glyph-name="parenright" unicode=")" horiz-adv-x="338" 
d="M338 436c0 -66 -18.999 -136.666 -56.999 -211.999c-33.333 -66 -73.166 -122.833 -119.499 -170.5s-83.5 -71.5 -111.5 -71.5c-2 0 -5 1 -9 3s-7.33301 3 -10 3l66 63c49.333 51.333 88.666 103.666 117.999 156.999c42 76.667 63 152.667 63 228
c0 48.667 -20.333 98.667 -61 150c-24.667 30.667 -65.334 70.667 -122.001 120c-51.333 44.667 -81.333 74.667 -90 90l20 13.5c6.66699 4.33301 13 6.5 19 6.5c7.33301 0 31.333 -18.667 72 -56s66 -56 76 -56c13.333 0 40.333 -34.667 81 -104
c43.333 -73.333 65 -128 65 -164z" />
    <glyph glyph-name="asterisk" unicode="*" horiz-adv-x="435" 
d="M435 746l-71.999 -82.002c-50 -57.333 -77.333 -88 -82 -92c12 -20.667 30.667 -40.334 56 -59.001c32.667 -24 54.334 -42 65.001 -54c-6 -6 -12.333 -12 -19 -18s-14 -9 -22 -9c-16 0 -39 11.667 -69 35c-28 24 -42.667 36.667 -44 38c-11.333 -22.667 -17 -42 -17 -58
c0 -9.33301 2.33301 -16.666 7 -21.999c1.33301 -1.33301 4 -3.33301 8 -6c0 -4.66699 -5.33301 -8.66699 -16 -12c-1.33301 0 -4.33301 -0.666992 -9 -2c2 -5.33301 3.33301 -9.33301 4 -12c3.33301 -11.333 5 -20.333 5 -27c0 -10 -2.66699 -18.167 -8 -24.5
s-14.666 -9.5 -27.999 -9.5c-11.333 0 -19.333 3.66699 -24 11s-7 18 -7 32c0 12 0.833008 23.833 2.5 35.5s4.5 27.834 8.5 48.501c-2.66699 0.666992 -8.33398 1 -17.001 1c-6.66699 0 -12 -0.333008 -16 -1l-13 13c-1.33301 -4 -2.33301 -7.66699 -3 -11l3 -16l-7 14
c-8.66699 -18.667 -21.834 -34.5 -39.501 -47.5s-31.167 -19.5 -40.5 -19.5c-10 0 -17.333 1 -22 3c-6.66699 4 -12.667 7.33301 -18 10c11.333 16.667 35.333 40 72 70c66.667 54 100 85.333 100 94c0 10.667 -26.667 43 -80 97s-80 82.667 -80 86
c0 4.66699 11.667 16 35 34l64 -58c19.333 -18 40 -38.667 62 -62h14c0 28.667 2.33301 55 7 79c7.33301 36.667 18.333 55 33 55c0.666992 0 3.5 -2.5 8.5 -7.5s10.5 -7.5 16.5 -7.5c3.33301 0 6 0.333008 8 1c2.66699 -18 4 -33.333 4 -46c0 -12 -1.66699 -22.667 -5 -32
s-5 -16.666 -5 -21.999c0 -4.66699 0.333008 -9.5 1 -14.5s2.33398 -11.5 5.00098 -19.5c9.33301 7.33301 32.666 29.333 69.999 66c41.333 40 62.666 62.667 63.999 68h20l14.5 -19.5c3.66699 -5 5.5 -11.833 5.5 -20.5z" />
    <glyph glyph-name="plus" unicode="+" horiz-adv-x="468" 
d="M468 397c0 -12.667 -5.82812 -21.8301 -17.4951 -27.4971s-38.167 -8.5 -79.5 -8.5c-36.667 0 -64.167 -1.5 -82.5 -4.5s-29.833 -12.167 -34.5 -27.5c-1.33301 -4.66699 0.666992 -10.667 6 -18s8 -13.333 8 -18c0 -0.666992 -3.33301 -2 -10 -4s-10 -4.33301 -10 -7
c0 -3.33301 0.333008 -7.33301 1 -12c3.33301 -22.667 5 -49.667 5 -81c-6.66699 -4.66699 -12.334 -7 -17.001 -7c-4.66699 2.66699 -9 4.66699 -13 6c-14 5.33301 -28.333 10 -43 14c0.666992 5.33301 3 13.333 7 24c1.33301 3.33301 3.33301 8.66602 6 15.999
c-2 3.33301 -3.66699 12.5 -5 27.5s-2 39.5 -2 73.5c-10.667 1.33301 -30.167 2.83301 -58.5 4.5s-62.166 2.5 -101.499 2.5c-5.33301 0 -10.333 3.66699 -15 11c-5.33301 10.667 -9.33301 18 -12 22c19.333 8 53.333 14.667 102 20l72 6c8 4 13.5 11.667 16.5 23
s4.5 27.666 4.5 48.999c0 12 -0.166992 24.667 -0.5 38s-0.5 27.666 -0.5 42.999v15c5.33301 6 9.66602 10.333 12.999 13c10.667 9.33301 19.667 14 27 14c19.333 0 29.666 -29.167 30.999 -87.5s9 -89.5 23 -93.5c2 -0.666992 6.33301 -1 13 -1
c9.33301 0 27.166 1.5 53.499 4.5s44.166 4.5 53.499 4.5c19.333 0 34.166 -2.33301 44.499 -7s15.5 -13.667 15.5 -27z" />
    <glyph glyph-name="comma" unicode="," horiz-adv-x="122" 
d="M122 62c0 -16 -6.33301 -43.667 -19 -83c-15.333 -47.333 -31 -71 -47 -71c-7.33301 0 -18.166 3.66699 -32.499 11s-21.5 14 -21.5 20c0 4 8.66699 31.667 26 83c9.33301 28 14 50 14 66c18.667 2 29.667 3.5 33 4.5s5.66602 2.16699 6.99902 3.5
c6 0 14.167 -4 24.5 -12s15.5 -15.333 15.5 -22z" />
    <glyph glyph-name="hyphen" unicode="-" horiz-adv-x="408" 
d="M14 354c-4 8.66699 -6.99902 16.333 -8.99902 23s-3.66699 14.667 -5 24l351 27c21.333 -4 36.166 -9 44.499 -15s12.5 -14.333 12.5 -25c0 -14.667 -11.167 -26 -33.5 -34s-50.166 -12 -83.499 -12c-30.667 3.33301 -63.834 6.5 -99.501 9.5s-63.5 4.5 -83.5 4.5
c-22.667 0 -37.667 -0.5 -45 -1.5s-14.333 -3.16699 -21 -6.5c-6 -2.66699 -11.167 -3.16699 -15.5 -1.5s-8.5 4.16699 -12.5 7.5z" />
    <glyph glyph-name="period" unicode="." horiz-adv-x="147" 
d="M147 54c0 -16 -8.33301 -29.667 -25 -41c-6 -4 -15 -9.33301 -27 -16c-37.333 9.33301 -60.666 20.333 -69.999 33c-3.33301 4.66699 -7.33301 7 -12 7c-2.66699 0 -4.33398 2 -5.00098 6s-1 9 -1 15c0 16 11.667 28.667 35 38c7.33301 2.66699 19 5.66699 35 9
c17.333 0 32 -3.33301 44 -10c17.333 -9.33301 26 -23 26 -41z" />
    <glyph glyph-name="slash" unicode="/" horiz-adv-x="383" 
d="M383 769c0 -18.667 -10.333 -54.001 -31 -106.001l-69 -168l-100 -274c-27.333 -73.333 -53.5 -129.666 -78.5 -168.999s-47.167 -59 -66.5 -59c-2 2.66699 -4 5 -6 7c-6 5.33301 -16 12 -30 20l24 56l58 134l85 204c10.667 35.333 21.5 67.333 32.5 96s26.5 63 46.5 103
s38.333 88.667 55 146c8.66699 29.333 20.667 44 36 44c4.66699 0 13.167 -3.66699 25.5 -11s18.5 -15 18.5 -23z" />
    <glyph glyph-name="zero" unicode="0" horiz-adv-x="476" 
d="M476 540c0 -54 -10.998 -120.332 -32.998 -198.999c-26.667 -95.333 -60.334 -171.666 -101.001 -228.999c-51.333 -72.667 -109 -109 -173 -109c-20.667 0 -43.334 8.66699 -68.001 26s-41.667 26 -51 26c-10.667 18.667 -18.667 34 -24 46
c-16 37.333 -24 73.333 -24 108c0 49.333 8.33301 100.333 25 153c20.667 65.333 57.334 147.666 110.001 246.999c18 33.333 44 67.666 78 102.999c51.333 52.667 99.666 79 144.999 79c18 0 36.333 -18 55 -54c9.33301 -17.333 19 -26 29 -26
c3.33301 0 9.5 -24.5 18.5 -73.5s13.5 -81.5 13.5 -97.5zM390.002 536.001l-0.000976562 17.001c0 6 0.333008 12.333 1 19c0 30 -2.33301 54.667 -7 74c-7.33301 30 -20.666 55.667 -39.999 77c-44 -26.667 -74.333 -48.334 -91 -65.001
c-25.333 -25.333 -41.666 -57 -48.999 -95h-14c4 -5.33301 -4.66699 -30.333 -26 -75c-6.66699 -14.667 -18 -36.667 -34 -66l-13 7l10 -15.5c3.33301 -5 6.66602 -10.833 9.99902 -17.5c-13.333 -8.66699 -26.833 -40.334 -40.5 -95.001s-20.5 -92 -20.5 -112
c0 -32.667 8 -63 24 -91c13.333 -23.333 23.333 -35 30 -35c65.333 0 126 56 182 168c52 104.667 78 206.334 78 305.001z" />
    <glyph glyph-name="one" unicode="1" horiz-adv-x="264" 
d="M264 741l-41 -167.998l-77 -317c-28 -116.667 -42 -176.334 -42 -179.001c-2.66699 -6 -4.33398 -10.667 -5.00098 -14c-3.33301 -11.333 -5 -22.333 -5 -33c0 -8 1 -16 3 -24l-29 -13c-5.33301 -2 -10.333 -4.33301 -15 -7c-2.66699 2 -4.66699 3.33301 -6 4
c-11.333 6 -26 9 -44 9l167 642l-6 46c-11.333 -16 -27.166 -34.5 -47.499 -55.5s-32.5 -31.5 -36.5 -31.5c-12 0 -23 3.66699 -33 11c-2 1.33301 -7.66699 6.66602 -17 15.999c27.333 36 61.5 75.167 102.5 117.5s65.5 63.5 73.5 63.5c18 0 33 -10.667 45 -32
c8.66699 -15.333 13 -27 13 -35z" />
    <glyph glyph-name="two" unicode="2" horiz-adv-x="431" 
d="M431 11c-4.66699 0.666992 -13.0039 1.16504 -25.0039 1.49805s-22 0.5 -30 0.5c-51.333 0 -122 -2.33301 -212 -7c-31.333 -1.33301 -73.666 -4 -126.999 -8c-4 0 -10.667 5 -20 15s-14 18.667 -14 26c0 8 20 47.333 60 118
c68.667 120.667 106.334 187.334 113.001 200.001c40.667 74.667 61 119.667 61 135c15.333 32.667 29.166 63.834 41.499 93.501s18.5 57.834 18.5 84.501c0 13.333 -4 26.666 -12 39.999s-19.333 27.666 -34 42.999c-32.667 -21.333 -50.667 -32.666 -54 -33.999
s-19 -3.33301 -47 -6c0 -8 2.33301 -14.667 7 -20c-26.667 -32.667 -49.667 -56.667 -69 -72l-51 -29c-4 4.66699 -9.66699 12.334 -17 23.001c-2 3.33301 -5.66699 9 -11 17c0 4.66699 3.66699 10 11 16c26.667 21.333 43.334 36.333 50.001 45
c20.667 24 37.334 41.667 50.001 53c40 36 74.333 54 103 54c30.667 0 59.667 -10.667 87 -32c31.333 -24.667 47 -55 47 -91c0 -30 -5.66699 -66 -17 -108s-19 -63 -23 -63c-4 -29.333 -12.5 -57 -25.5 -83s-35.5 -61 -67.5 -105
c-25.333 -34.667 -46.333 -77.334 -63 -128.001c-11.333 -34.667 -22 -52 -32 -52c-1.33301 0 -4.33301 -7.66699 -9 -23s-10 -32 -16 -50c26.667 0 55.334 0.166992 86.001 0.5s63 0.833008 97 1.5c50.667 0 85 -3.33301 103 -10s31.667 -22 41 -46z" />
    <glyph glyph-name="three" unicode="3" horiz-adv-x="399" 
d="M399 327c0 -40 -17.3291 -86.998 -51.9961 -140.998l-114 -149l-27 7c-2 -2 -3.66699 -4.16699 -5 -6.5s-2 -9.16602 -2 -20.499c-33.333 -4 -58.666 -8.33301 -75.999 -13s-28.666 -7 -33.999 -7c-16 1.33301 -27.667 2.66602 -35 3.99902c-23.333 4 -35 9.33301 -35 16
l-20 20v20c6.66699 1.33301 14.334 2 23.001 2c5.33301 0 14.166 -1.33301 26.499 -4s22.166 -4 29.499 -4c57.333 0 115.666 37.333 174.999 112c53.333 67.333 80 123.333 80 168c0 18 -11 29 -33 33c-31.333 6 -51.666 12.667 -60.999 20l-6 -20
c-15.333 3.33301 -28.333 5 -39 5c-8.66699 0 -16.334 -2 -23.001 -6s-14 -6 -22 -6c-19.333 0 -30.333 1 -33 3c-4.66699 7.33301 -10.334 15.333 -17.001 24l63 56c47.333 44 85.666 84 114.999 120c41.333 50.667 62 90.334 62 119.001c-2.66699 6 -5 11 -7 15
c-11.333 23.333 -24.333 44.666 -39 63.999c-2.66699 -3.33301 -4.33398 -6 -5.00098 -8s-1.33398 -3.66699 -2.00098 -5c-3.33301 0.666992 -6.83301 1 -10.5 1h-7.5c-14 0 -23.667 -2.66699 -29 -8s-8.33301 -8 -9 -8c-3.33301 0 -9 2.66699 -17 8
c-24.667 -32.667 -55.334 -59.334 -92.001 -80.001c-30.667 -18 -49 -33.667 -55 -47c-10 6 -16.167 10.333 -18.5 13s-3.83301 4.66699 -4.5 6c-2 -0.666992 -5.16699 -1.5 -9.5 -2.5s-9.16602 -1.83301 -14.499 -2.5c0 2.66699 -1.33301 4.66699 -4 6
s-4 3.66602 -4 6.99902c0 15.333 32 46.333 96 93c68 49.333 119.667 74 155 74c42 0 76.667 -18 104 -54c22 -28.667 33 -56 33 -82c0 -16.667 -9 -45 -27 -85c-25.333 -56.667 -60.666 -107.667 -105.999 -153c57.333 -22 91.666 -37.333 102.999 -46
c20 -16 30 -35.333 30 -58z" />
    <glyph glyph-name="four" unicode="4" horiz-adv-x="437" 
d="M437 410c-9.33301 -12.667 -15.333 -19 -18 -19c-4.66699 4.66699 -12.334 7 -23.001 7c-11.333 0 -29.833 -27 -55.5 -81s-38.5 -89.667 -38.5 -107c-13.333 -22.667 -25.333 -50.334 -36 -83.001s-16 -65 -16 -97c0 -8.66699 -3.5 -16.5 -10.5 -23.5
s-14.833 -10.5 -23.5 -10.5c-10 0 -19.167 4.16699 -27.5 12.5s-12.5 17.833 -12.5 28.5c19.333 54 38.666 111 57.999 171c22 66.667 38.333 125 49 175c-18 2.66699 -34.833 4.5 -50.5 5.5s-35.5 1.5 -59.5 1.5c-16.667 0 -33 -0.166992 -49 -0.5s-31.333 -0.5 -46 -0.5
c-50.667 0 -76 8.33301 -76 25c0.666992 0 9.66699 24.833 27 74.5s33 100.5 47 152.5c18 67.333 27 117.333 27 150c4.66699 2 7.66699 3.66699 9 5s3.66602 2 6.99902 2c16.667 0 28.667 -5.66699 36 -17c5.33301 -8.66699 8 -19 8 -31
c0 -3.33301 -0.333008 -8.33301 -1 -15c0 -30.667 -13.333 -91.667 -40 -183l-33 -109c16.667 -7.33301 33 -12.333 49 -15s44.333 -4 85 -4c13.333 0 27.333 -0.5 42 -1.5s23 -0.833008 25 0.5c10.667 7.33301 17.334 33.5 20.001 78.5s7 81.167 13 108.5
c2.66699 13.333 13 44 31 92c6 16 9 31 9 45c0 13.333 -2.33301 28 -7 44c8 4.66699 14.167 8 18.5 10s9.16602 3 14.499 3c16.667 0 26.334 -2.16699 29.001 -6.5s4 -15.166 4 -32.499c0 -32 -4.5 -68.667 -13.5 -110s-19.5 -76.333 -31.5 -105l20 7
c-12.667 -15.333 -21.5 -36.5 -26.5 -63.5s-9.83301 -43.833 -14.5 -50.5c6 -2 11.833 -3.66699 17.5 -5s10.834 -2 15.501 -2c6.66699 0 11.334 -0.666992 14.001 -2s14 -9.33301 34 -24z" />
    <glyph glyph-name="five" unicode="5" horiz-adv-x="447" 
d="M447 769c-14.667 -17.333 -37.1641 -28.333 -67.4971 -33s-79.166 -7 -146.499 -7h-93c-2.66699 -8.66699 -7.66699 -41.667 -15 -99c-4 -32.667 -6 -53 -6 -61c0 -13.333 -4 -29.166 -12 -47.499l-24 -56.5c0 -6.66699 5.33301 -10 16 -10
c25.333 14 49.666 26 72.999 36c26.667 12 47 18 61 18c47.333 0 89 -15 125 -45c40.667 -34 61 -79 61 -135c0 -45.333 -16 -96 -48 -152s-55.667 -81.333 -71 -76c-16 -24 -38.667 -43.333 -68 -58c-21.333 -10.667 -32 -22.334 -32 -35.001
c-27.333 -5.33301 -57.833 -13.833 -91.5 -25.5s-52.167 -21.167 -55.5 -28.5l-14 47c0 6 25.667 21.333 77 46c42 20 85.667 49 131 87c38 31.333 68 77 90 137c7.33301 20 14.666 47.333 21.999 82c0 10 -8 28 -24 54c-19.333 32 -39 48 -59 48
c-22.667 0 -63.334 -15.333 -122.001 -46s-92.667 -46 -102 -46c-10 0 -21.667 6.66699 -35 20c-8 8 -12 15.333 -12 22c0 8.66699 6.66699 29.334 20 62.001c4 10.667 11 26.667 21 48c0.666992 2.66699 1 7.66699 1 15v26c0 22.667 2 46.167 6 70.5s13 56.166 27 95.499
v34c-2 2 -3.66699 3.5 -5 4.5s-6.33301 1.5 -15 1.5c0 8.66699 -4.66699 17.667 -14 27c8.66699 2.66699 69 6.66699 181 12c36.667 1.33301 91 4 163 8c10 0 19.667 -3.66699 29 -11c7.33301 -5.33301 16.666 -15 27.999 -29z" />
    <glyph glyph-name="six" unicode="6" horiz-adv-x="427" 
d="M427 284c0 -44 -30.334 -101.003 -91.001 -171.003c-65.333 -75.333 -125 -113 -179 -113c-42 0 -78.5 14.833 -109.5 44.5s-46.5 66.834 -46.5 111.501c0 28.667 5 61 15 97s36 102.667 78 200c5.33301 12.667 20 35.667 44 69c36.667 50.667 66.667 94.667 90 132
l19 35c8 13.333 16.333 20 25 20c2 0 5 -0.666992 9 -2c10 23.333 20.833 38.5 32.5 45.5s18.834 16.5 21.501 28.5c8.66699 7.33301 16.334 13.333 23.001 18s14.667 9.66699 24 15h33c1.33301 -6 2.66602 -10.333 3.99902 -13s2 -5.66699 2 -9c0 -8 -8 -18.667 -24 -32
c-52 -43.333 -99.333 -98.666 -142 -165.999c-72.667 -114 -109 -178.667 -109 -194c0 -3.33301 0.666992 -7.66602 2 -12.999c-4.66699 -6.66699 -7.5 -11.834 -8.5 -15.501s0.5 -5.5 4.5 -5.5c15.333 12.667 31.333 23.334 48 32.001c19.333 10.667 41.333 16 66 16
c44 0 83.167 -12.833 117.5 -38.5s51.5 -56.167 51.5 -91.5zM346.999 296.997c0 18.667 -5 33 -15 43c-6.66699 7.33301 -21.667 16.333 -45 27c-59.333 -10.667 -107 -45.167 -143 -103.5s-61.333 -88.5 -76 -90.5l16 -67c11.333 -30.667 30 -46 56 -46
c45.333 0 93.333 38.333 144 115c42 64 63 104.667 63 122z" />
    <glyph glyph-name="seven" unicode="7" horiz-adv-x="441" 
d="M441 774l-87.002 -185.001c-20 -45.333 -46.667 -119.333 -80 -222c-11.333 -34 -28.666 -78.667 -51.999 -134c-31.333 -74.667 -56.333 -130.334 -75 -167.001l-31 -67c-12 -18 -25 -27 -39 -27c-6 0 -13.667 4 -23 12s-14 15.667 -14 23l36 78
c31.333 67.333 54 118 68 152c24 58 36 94.667 36 110c0 6 4 11 12 15l22 11l-14 24l27 66l62.5 145.5c22.333 51 41.833 93.167 58.5 126.5c-13.333 8 -24.666 12 -33.999 12c-30 -3.33301 -72.5 -6.16602 -127.5 -8.49902s-116.833 -3.5 -185.5 -3.5v26
c9.33301 6.66699 70 17.334 182 32.001l164 21c9.33301 0 24.333 -2.33301 45 -7s37 -9 49 -13v-20zM414.998 820.999v13v-13z" />
    <glyph glyph-name="eight" unicode="8" horiz-adv-x="447" 
d="M447 699c0 -10 -3.33105 -19.332 -9.99805 -27.999s-16.334 -13 -29.001 -13c0 -10.667 1 -16.667 3 -18s3.33301 -2 4 -2c0 -10 -18.667 -37.333 -56 -82l-124 -148c21.333 -32 42.333 -66.333 63 -103c42 -73.333 63 -126 63 -158c0 -22 -5 -44 -15 -66
c-25.333 -56.667 -71.333 -85 -138 -85c-40 0 -69.333 3.33301 -88 10c-14 7.33301 -27.667 15 -41 23c-4.66699 0 -13 -2 -25 -6l-37 61c-10.667 22.667 -16 42.667 -16 60c0 34 14.667 76 44 126l96 138c-22.667 24.667 -39.334 44.667 -50.001 60
c-33.333 47.333 -50 88.666 -50 123.999c0 4.66699 3.66699 14.334 11 29.001l16 30c24.667 47.333 58.334 84.666 101.001 111.999c36 23.333 68.667 35 98 35c31.333 0 69.166 -10.5 113.499 -31.5s66.5 -43.5 66.5 -67.5zM375.002 732.001
c0 2.66699 -5.16602 4.66699 -15.499 6s-22.833 2 -37.5 2s-27.5 -0.333008 -38.5 -1s-20.5 -1.33398 -28.5 -2.00098c-23.333 -12 -39 -20.333 -47 -25c-14.667 -8.66699 -32.667 -20 -54 -34c8.66699 0 13 -3 13 -9c0 -5.33301 -3 -12.666 -9 -21.999l-45 -62
c8.66699 -24.667 14.5 -43.167 17.5 -55.5s4.5 -21.5 4.5 -27.5c-0.666992 -4.66699 -1 -8 -1 -10c4.66699 -4.66699 9.66699 -9.16699 15 -13.5s11.666 -11.5 18.999 -21.5c12.667 8.66699 40 40.667 82 96c83.333 110 125 169.667 125 179zM281.003 154.001
c0 30.667 -5.33301 61.001 -16 91.001l-44 99c-4 -1.33301 -7.33301 -0.666016 -10 2.00098c-4.66699 8.66699 -8 14.667 -10 18c-32 -38.667 -60.333 -79.334 -85 -122.001c-32.667 -57.333 -49 -95.333 -49 -114c0 -20.667 14.333 -40.334 43 -59.001
c26 -16.667 49.667 -25 71 -25c27.333 0 49.333 6.66699 66 20c22.667 18.667 34 48.667 34 90z" />
    <glyph glyph-name="nine" unicode="9" horiz-adv-x="421" 
d="M421 652c0 -0.666992 -4.33301 -12.335 -13 -35.002c-4.66699 -12.667 -7 -27.667 -7 -45l-55 -105c-45.333 -87.333 -84 -165 -116 -233c-48 -102 -82 -185.333 -102 -250l-22 6c-22 7.33301 -37 12 -45 14c-5.33301 6.66699 -8 12.334 -8 17.001
c0 3.33301 14.333 30.333 43 81c36 62.667 63 114 81 154c29.333 63.333 44 110.666 44 141.999l-37.5 -27c-12.333 -8.66699 -21.166 -13 -26.499 -13c-30.667 0 -62.667 10.333 -96 31c-40 24.667 -60 54.334 -60 89.001c0 20 13.333 56 40 108
c29.333 56.667 62.666 105.334 99.999 146.001c45.333 49.333 87.333 74 126 74c42 0 78.167 -14.5 108.5 -43.5s45.5 -65.833 45.5 -110.5zM368 718.999c-11.333 7.33301 -23.3301 16.333 -35.9971 27c-2 1.33301 -4.33301 3.33301 -7 6c-10 0 -24.667 -4 -44 -12
s-37 -13 -53 -15c1.33301 -0.666992 2.66602 -2.5 3.99902 -5.5s2.33301 -5.5 3 -7.5c-12 0 -21.667 -4.33301 -29 -13s-12.333 -13 -15 -13c-5.33301 -5.33301 -9.33301 -10 -12 -14c-9.33301 -12.667 -15.333 -26 -18 -40h-20c0 -4 -12.333 -29.667 -37 -77
s-37 -73 -37 -77c1.33301 -3.33301 2 -6 2 -8c3.33301 -14 5 -27 5 -39c3.33301 -0.666992 7.66602 -1.66699 12.999 -3s9.66602 -2 12.999 -2c44 0 88 28 132 84z" />
    <glyph glyph-name="colon" unicode=":" horiz-adv-x="173" 
d="M173 340c0 -12.667 -6.66797 -27.668 -20.001 -45.001s-25.666 -26 -36.999 -26c-16 8.66699 -27.667 15.334 -35 20.001c-24 16 -36 28.667 -36 38c0 12.667 7.16699 25.167 21.5 37.5s28.5 18.5 42.5 18.5c16.667 0 31.5 -4 44.5 -12s19.5 -18.333 19.5 -31z
M144.999 45.999c0 -14 -6.33301 -26.3311 -19 -36.998c-7.33301 -6.66699 -18.333 -13.334 -33 -20.001c-16 3.33301 -33.333 10 -52 20c-24 13.333 -36 26.666 -36 39.999c0 12.667 6 23 18 31c14.667 10 32 15 52 15c18 0 34.167 -4.33301 48.5 -13s21.5 -20.667 21.5 -36
z" />
    <glyph glyph-name="semicolon" unicode=";" horiz-adv-x="140" 
d="M140 318c0 -14.667 -8.33301 -26.665 -25 -35.998c-12 -6.66699 -22.333 -10 -31 -10c-14.667 0 -28 6 -40 18s-18 28 -18 48c0 11.333 4.83301 24.166 14.5 38.499s20.5 21.5 32.5 21.5c16 0 30.333 -6 43 -18c16 -14.667 24 -35.334 24 -62.001zM126 57.002
c0 -16.667 -6.33398 -44.332 -19.001 -82.999c-15.333 -46.667 -31 -70 -47 -70c-9.33301 0 -20.666 3 -33.999 9s-20 13 -20 21c8.66699 34.667 16 60.667 22 78c18.667 52 38.334 78 59.001 78c5.33301 0 13.166 -3.83301 23.499 -11.5s15.5 -14.834 15.5 -21.501z" />
    <glyph glyph-name="less" unicode="&#x3c;" horiz-adv-x="442" 
d="M442 781c0 -2.66699 -57.6699 -66.3359 -173.003 -191.003l-98 -109c-30 -32.667 -57.333 -61 -82 -85c35.333 -28 68 -61 98 -99c6.66699 -8 35.334 -47.667 86.001 -119c41.333 -58 80 -107.667 116 -149v-40l-33 -6c-3.33301 0 -5.66602 3.16699 -6.99902 9.5
s-3.66602 9.5 -6.99902 9.5l-3 -6c-6.66699 -9.33301 -14.334 -11.666 -23.001 -6.99902l-75 116c-22 33.333 -37.333 48 -46 44l7 14c-9.33301 4 -18.333 6 -27 6l14 20c-14.667 12.667 -32.334 32.5 -53.001 59.5l-61 81.5c-1.33301 1.33301 -9.5 5 -24.5 11
s-29.167 15.667 -42.5 29c1.33301 0.666992 3.83301 1.33398 7.5 2.00098s5.83398 2 6.50098 4c-5.33301 7.33301 -12 12 -20 14v33c16.667 10 47 37 91 81l216 220l61 67c12.667 13.333 23.334 20 32.001 20c6.66699 0 15 -3.16699 25 -9.5s15 -13.166 15 -20.499z" />
    <glyph glyph-name="equal" unicode="=" horiz-adv-x="441" 
d="M441 465c0 -10 -41.666 -19.667 -124.999 -29s-142 -14 -176 -14c-35.333 0 -58 2.5 -68 7.5s-24.667 28.833 -44 71.5c14 0 33 -1.66699 57 -5c9.33301 -1.33301 21.333 -2 36 -2c10 0 47.667 4.66699 113 14s108.666 14 129.999 14c51.333 0 77 -19 77 -57z
M427.001 277c-3.33301 -4.66699 -5 -10.334 -5 -17.001c-10 1.33301 -24.667 4.33301 -44 9c-5.33301 0.666992 -12.333 2.33398 -21 5.00098l-147 -20c-100 -13.333 -159 -20 -177 -20c-6 0 -12 7.33301 -18 22c-9.33301 33.333 -14 50.333 -14 51
c26.667 0 90 5.66699 190 17l150 18c30.667 0 52.667 -4.5 66 -13.5s20 -26.167 20 -51.5z" />
    <glyph glyph-name="greater" unicode="&#x3e;" horiz-adv-x="468" 
d="M468 388c-38 -40.667 -79.6709 -79.665 -125.004 -116.998c-22 -18 -31.667 -32.667 -29 -44l-13 7c-26.667 -38 -53 -68.667 -79 -92c-32 -28.667 -57 -53.667 -75 -75l-7 13c-6.66699 -6.66699 -15.334 -17.667 -26.001 -33c-14 -20 -21 -33.333 -21 -40
c-2.66699 -0.666992 -5 -1.33398 -7 -2.00098c-13.333 -5.33301 -28.666 -16 -45.999 -32c-7.33301 6.66699 -14.666 13 -21.999 19c-7.33301 7.33301 -11 14.666 -11 21.999c0 8.66699 33.667 46.667 101 114l186 186c18.667 19.333 36.334 36.333 53.001 51
c8.66699 7.33301 17.334 14 26.001 20c0 2.66699 -26.667 40.334 -80 113.001l-66 90c-24 32 -43.333 56.667 -58 74c-45.333 53.333 -83.666 88.666 -114.999 105.999l13 14c-7.33301 6.66699 -16.333 11 -27 13c0 2.66699 0.166992 6.66699 0.5 12s7.83301 8 22.5 8
c26.667 0 73.667 -35 141 -105c45.333 -47.333 102.333 -114.333 171 -201c48.667 -62 79.667 -102.333 93 -121zM326.996 247.002v8v-8zM233.996 174.002c-0.666992 -2.66699 -0.999023 -5 -0.999023 -7c-0.666992 0.666992 -0.333984 3 0.999023 7z" />
    <glyph glyph-name="question" unicode="?" horiz-adv-x="412" 
d="M412 668c0 -62 -6.33398 -107.83 -19.001 -137.497s-39.667 -66.5 -81 -110.5c-55.333 -58.667 -98.666 -111 -129.999 -157c-34.667 -50.667 -54 -76 -58 -76c-4.66699 0 -13.5 6.16699 -26.5 18.5s-19.5 21.5 -19.5 27.5c0 14 20.333 48 61 102
c29.333 38.667 67.333 85.667 114 141c42.667 50.667 64.334 76.667 65.001 78c3.33301 7.33301 5 19.666 5 36.999s0.5 26.833 1.5 28.5s7.16699 10.167 18.5 25.5c6 8 9 12.333 9 13c0 25.333 -6.33301 47.833 -19 67.5s-30 29.5 -52 29.5
c-31.333 0 -72.666 -26.667 -123.999 -80s-81.333 -80 -90 -80c-10.667 0 -19.667 2.33301 -27 7c-8.66699 8 -16 14.333 -22 19c8.66699 14 16 23.167 22 27.5s12 6.16602 18 5.49902c7.33301 26 18 48.833 32 68.5s38.667 38.167 74 55.5l100 43
c6 -4.66699 11.333 -8 16 -10c15.333 -6.66699 35.666 -10 60.999 -10c4 0 8.16699 -3 12.5 -9s8.16602 -9.66699 11.499 -11l40 -16c4.66699 -4.66699 7 -20.334 7 -47.001v-50zM137.999 40.0029c0 -12.667 -7 -26 -21 -40s-29.333 -21 -46 -21
c-8.66699 0 -21 8.66699 -37 26s-24 32.333 -24 45c0 14 3.5 22.667 10.5 26s18.167 5 33.5 5h10c20 0 37.333 -3 52 -9s22 -16.667 22 -32z" />
    <glyph glyph-name="at" unicode="@" horiz-adv-x="497" 
d="M497 659c0 -40.667 -5.33203 -87.002 -15.999 -139.002c-14.667 -70.667 -35.334 -128.667 -62.001 -174c-33.333 -56.667 -74 -85 -122 -85c-2 0 -9.33301 3.33301 -22 10c-4 2 -10 5.33301 -18 10c-14 -9.33301 -25 -16 -33 -20c-25.333 -13.333 -46 -20 -62 -20
c-6 0 -15.667 8.33301 -29 25c-16 20 -24 38.667 -24 56c0 32.667 9 68.334 27 107.001l60 113c9.33301 2.66699 20.166 7.83398 32.499 15.501s23.833 11.5 34.5 11.5c15.333 0 26 -4.33301 32 -13l15 -34l33 13l4 -16c1.33301 -5.33301 2 -13 2 -23
c0 -16 -5 -37.833 -15 -65.5l-31 -84.5c0 -2.66699 1.16699 -5.83398 3.5 -9.50098s3.5 -6.5 3.5 -8.5c3.33301 0 6.16602 -1.16699 8.49902 -3.5s4.83301 -3.5 7.5 -3.5c26 0 46.667 19.333 62 58l36 130c0.666992 5.33301 4.33398 40 11.001 104l8 76
c0 20.667 -8.5 38.167 -25.5 52.5s-35.167 21.5 -54.5 21.5c-59.333 0 -114 -35 -164 -105c-40 -56 -73.667 -129.333 -101 -220c-23.333 -77.333 -35 -140.333 -35 -189c0 -57.333 8.66699 -104.333 26 -141c23.333 -48.667 60 -73 110 -73c24 0 56.333 17.333 97 52
c54.667 46.667 95 89.334 121 128.001c2.66699 -7.33301 5.33398 -15.166 8.00098 -23.499s4 -15.833 4 -22.5c0 -16.667 -23.333 -49.334 -70 -98.001c-58 -60 -116.667 -90 -176 -90s-105.333 28 -138 84c-28 48.667 -42 108.667 -42 180c0 25.333 5 56.333 15 93
c22.667 83.333 34 126.666 34 129.999c0 6 -1 10.667 -3 14c8 7.33301 23.333 39.333 46 96c14 34.667 32.167 69 54.5 103s51.5 61.333 87.5 82l106 53h54c4 -2.66699 21.667 -7.66699 53 -15s47 -54.666 47 -141.999zM277.001 454.998v60.001h-20
c-19.333 -18 -37.833 -45 -55.5 -81s-26.5 -63.333 -26.5 -82c0 -13.333 2.66699 -23 8 -29l20 -15c20.667 29.333 35.667 55.166 45 77.499z" />
    <glyph glyph-name="A" unicode="A" 
d="M416 60c-8 -8.66699 -13.0029 -15.333 -15.0029 -20s-3.33301 -7 -4 -7c-1.33301 0 -4.16602 0.333008 -8.49902 1s-9.83301 1 -16.5 1c-11.333 0 -19.166 0.5 -23.499 1.5s-8.5 4.5 -12.5 10.5c-7.33301 50 -12.666 88.667 -15.999 116c-11.333 86 -17 140.667 -17 164
c0 1.33301 -0.666992 4.33301 -2 9c-3.33301 12.667 -5 32 -5 58c-4.66699 2 -9.33398 4.33301 -14.001 7l-93 -20c-0.666992 0 -10.334 -25.333 -29.001 -76c-25.333 -68.667 -43.666 -122.334 -54.999 -161.001c-19.333 -65.333 -29 -113.333 -29 -144
c-16 0 -27 -0.833008 -33 -2.5s-11 -3.16699 -15 -4.5c-5.33301 0 -9.33301 0.666992 -12 2c-5.33301 6 -10 10 -14 12c27.333 96.667 53 181.334 77 254.001l46 138c10.667 34 16 60.333 16 79c12.667 38.667 23.834 76.667 33.501 114s14.5 65 14.5 83
c0 6 9.83301 30.833 29.5 74.5s34.167 65.5 43.5 65.5c8.66699 0 16.667 -0.833008 24 -2.5s15 -3.16699 23 -4.5c5.33301 -34 10 -69 14 -105s6 -67.333 6 -94c6 -58 11 -104.333 15 -139c12 -99.333 25 -182.333 39 -249c5.33301 -28 9 -58.5 11 -91.5
s9.33301 -56.167 22 -69.5zM288.997 441.001c-3.33301 7.33301 -8.50098 44.5 -15.501 111.5s-10.5 105.5 -10.5 115.5l-60 -234c12.667 0 27.334 1.16699 44.001 3.5s30.667 3.5 42 3.5z" />
    <glyph glyph-name="B" unicode="B" horiz-adv-x="436" 
d="M462 687c-6.66699 -12.667 -12.666 -26.5 -17.999 -41.5s-8 -27.833 -8 -38.5c0 -6 -22 -28 -66 -66c-53.333 -46 -104.666 -82 -153.999 -108v-20c5.33301 0 10.166 0.833008 14.499 2.5s8.16602 3.5 11.499 5.5c-3.33301 -4.66699 -5 -7.66699 -5 -9
c0 -2.66699 2 -4.66699 6 -6c62.667 -18 106.167 -40.667 130.5 -68s36.5 -65.666 36.5 -114.999c0 -20 -11.667 -46.667 -35 -80c-36 -52 -89 -93.333 -159 -124c-16.667 -7.33301 -36.667 -12.666 -60 -15.999l-60 -4c-21.333 -6.66699 -37.333 -15.334 -48 -26.001
c-2 -2 -4 -4.66699 -6 -8c-10.667 0 -20 3.66699 -28 11s-12 17.333 -12 30c0 53.333 9.66699 127.666 29 222.999c9.33301 47.333 27.666 127.333 54.999 240c20 83.333 30 131.333 30 144c0 8 4.33301 20.333 13 37c2.66699 5.33301 7.33398 13.333 14.001 24
c2.66699 28 5.66699 50.333 9 67c11.333 57.333 62.666 86 153.999 86c54.667 0 95.334 -14.333 122.001 -43c22.667 -24 34 -56.333 34 -97zM396.001 708c0 18.667 -7.83203 35.5 -23.499 50.5s-32.5 22.5 -50.5 22.5l-86 -21
c-0.666992 -0.666992 -13.167 -41.167 -37.5 -121.5s-36.5 -120.833 -36.5 -121.5c0 -8.66699 0.666992 -16.334 2 -23.001s3 -13.667 5 -21c57.333 41.333 91.333 66.333 102 75c39.333 30.667 68.666 57.334 87.999 80.001c24.667 29.333 37 56 37 80zM336.002 233
c0 40 -13.667 71.9971 -41 95.9971c-32.667 29.333 -70.334 44 -113.001 44c-5.33301 0 -11.333 -0.666992 -18 -2s-12.167 -2.66602 -16.5 -3.99902s-11.833 -28.666 -22.5 -81.999c-6 -29.333 -15.333 -78.333 -28 -147c-5.33301 -26.667 -10.333 -53 -15 -79
c4.66699 -5.33301 7 -9.66602 7 -12.999h27c62.667 18.667 112.667 44 150 76c26.667 22.667 46.334 48 59.001 76c3.33301 11.333 7 23 11 35z" />
    <glyph glyph-name="C" unicode="C" horiz-adv-x="410" 
d="M410 147c0 -16 -18.6689 -42.668 -56.002 -80.001c-47.333 -47.333 -98.666 -71 -153.999 -71c-49.333 0 -93.666 15 -132.999 45c-43.333 32.667 -65 73.667 -65 123c0 9.33301 4.33301 37.333 13 84c22.667 120 47.667 209.667 75 269c20 60 58.667 125.333 116 196
c49.333 60.667 95 91 137 91c3.33301 0 10.833 -1.16699 22.5 -3.5s22.167 -3.5 31.5 -3.5v-26c-12 1.33301 -20.667 2 -26 2c-41.333 0 -74.166 -18.167 -98.499 -54.5s-40.5 -54.5 -48.5 -54.5l-49 -109c-33.333 -75.333 -50.666 -114.666 -51.999 -117.999l-39 -131
c-9.33301 -43.333 -14 -85.333 -14 -126c0 -54 13.333 -92 40 -114c17.333 -14.667 39.666 -22 66.999 -22c36.667 0 74.667 17.333 114 52c28.667 25.333 53 54.333 73 87h20c7.33301 -16.667 13.666 -27.334 18.999 -32.001c2 -1.33301 4.33301 -2.66602 7 -3.99902z" />
    <glyph glyph-name="D" unicode="D" horiz-adv-x="426" 
d="M426 422c0 -26 -12.666 -72.333 -37.999 -139c-29.333 -77.333 -56.666 -116 -81.999 -116c-22 -26.667 -46.333 -49.667 -73 -69c-44.667 -32.667 -100.334 -65.334 -167.001 -98.001h-47c-4 8.66699 -8.33301 15.334 -13 20.001l14.5 13
c5 4.66699 11.167 9.33398 18.5 14.001c-4.66699 4 -13 8.33301 -25 13c-5.33301 2 -8 8 -8 18l34 145l63 284c23.333 108 35 169.667 35 185c6 26 11.333 45.333 16 58c15.333 39.333 32.666 59 51.999 59c6 0 25 -13 57 -39c42.667 -34.667 77.667 -76.334 105 -125.001
c38.667 -68 58 -142.333 58 -223zM352.001 471c-2.66699 18 -4.66895 32.333 -6.00195 43c-4 33.333 -6 62.333 -6 87c-8 -1.33301 -16 5.33398 -24 20.001c-23.333 45.333 -55.333 79 -96 101c0 -8 -0.666992 -14 -2 -18s-5.33301 -11 -12 -21
c-1.33301 -16 -4.16602 -33.833 -8.49902 -53.5s-8.16602 -37.834 -11.499 -54.501c0 -26 -6.83301 -60 -20.5 -102s-24.5 -66 -32.5 -72c4 -6 6 -17 6 -33c0 -36.667 -9.33301 -97 -28 -181l-29 -120l90 59c58 52.667 91.667 86.334 101 101.001
c34 53.333 57 104.666 69 153.999c6.66699 27.333 10 57.333 10 90z" />
    <glyph glyph-name="E" unicode="E" horiz-adv-x="435" 
d="M442 827c-4.66699 -11.333 -7.00195 -22.332 -7.00195 -32.999c-25.333 -5.33301 -63 -10.5 -113 -15.5s-81.333 -8.83301 -94 -11.5c-4.66699 2.66699 -10 6 -16 10s-16.333 9.66699 -31 17c0 -10.667 1 -17 3 -19s3 -4.66699 3 -8l-20 -111
c-14 -75.333 -22.667 -116.333 -26 -123v-100c52.667 0 100.334 4.33301 143.001 13c7.33301 1.33301 16.333 3.66602 27 6.99902c3.33301 -2 9.33301 -3.66699 18 -5s21.667 -2 39 -2v-20c-8 -12 -14.333 -20.667 -19 -26s-8 -8 -10 -8c-6 2.66699 -12.667 4 -20 4
c-4 0 -10 -1 -18 -3c-0.666992 2 1.33301 5.66699 6 11c0 0.666992 0.333008 1.66699 1 3c-6 0 -13.833 -3.5 -23.5 -10.5s-15.167 -10.5 -16.5 -10.5c-2 -0.666992 -8 -0.333984 -18 0.999023c-36 4 -74.667 6 -116 6l-27 -240l-10 -36c-6 -22.667 -11.333 -45.667 -16 -69
l187 -2c16.667 2 33.667 5.33301 51 10s31.666 10 42.999 16c8.66699 -9.33301 13.834 -15.5 15.501 -18.5s5.16699 -12.167 10.5 -27.5c-27.333 -12 -66.833 -20.5 -118.5 -25.5s-120.5 -7.5 -206.5 -7.5c-4.66699 0 -11 -0.333008 -19 -1s-13.667 -1 -17 -1
c-17.333 0 -26 9.33301 -26 28l10 44c9.33301 42.667 19.333 95.334 30 158.001c17.333 101.333 33 205.333 47 312c2.66699 17.333 10.834 64.833 24.501 142.5s20.834 117.167 21.501 118.5c7.33301 16 35.166 30.167 83.499 42.5s104.833 18.5 169.5 18.5
c9.33301 0 19.5 -4 30.5 -12s19.167 -13.333 24.5 -16z" />
    <glyph glyph-name="F" unicode="F" horiz-adv-x="410" 
d="M410 815c-29.333 -8.66699 -51.668 -14.666 -67.001 -17.999c-47.333 -12 -76.333 -17 -87 -15h-60c-16.667 -21.333 -27 -51.333 -31 -90c-10.667 -102 -18.334 -158.667 -23.001 -170v-54h164c23.333 0 40 -2.66699 50 -8c7.33301 -6.66699 12 -10.667 14 -12v-31
l-234 -2c-7.33301 -22 -12.666 -48 -15.999 -78s-5 -65 -5 -105c0 -16.667 -5.33301 -33.334 -16 -50.001c-3.33301 -5.33301 -9 -12.333 -17 -21c1.33301 -12.667 2.66602 -26.5 3.99902 -41.5s2 -24.167 2 -27.5c0 -27.333 -3.33301 -49.333 -10 -66
c-8.66699 -21.333 -23 -32 -43 -32c-5.33301 0 -10.166 0.666992 -14.499 2s-8.16602 2.66602 -11.499 3.99902c-0.666992 7.33301 -1.83398 12.833 -3.50098 16.5s-3.16699 7.16699 -4.5 10.5c5.33301 2.66699 10 15 14 37s6 55.667 6 101c9.33301 37.333 17 74 23 110
c12.667 70 23.334 141 32.001 213l40 274c0.666992 4 -0.333008 11.333 -3 22s-4 18 -4 22c0 6.66699 2.33301 11.834 7 15.501s47.667 11.5 129 23.5c50.667 7.33301 82 11 94 11c20.667 0 35.667 -2.33301 45 -7l26 -20v-14z" />
    <glyph glyph-name="G" unicode="G" horiz-adv-x="445" 
d="M445 365l-34 -95.001c-29.333 -73.333 -60 -132.333 -92 -177c-46 -64 -91.667 -96 -137 -96c-33.333 0 -67 11.333 -101 34c-54.667 36 -82 90.333 -82 163c0 84 36.667 196.667 110 338c78 150 157 250 237 300h60c1.33301 -10.667 2 -18.334 2 -23.001
c0 -2 -0.666992 -7.66699 -2 -17c-34 -5.33301 -70 -29.333 -108 -72c-28 -32 -55 -71.667 -81 -119c-21.333 -39.333 -32 -62.666 -32 -69.999c-2 0 -13.333 -15.333 -34 -46c-27.333 -41.333 -49 -83.666 -65 -126.999c-23.333 -63.333 -35 -127 -35 -191
c0 -40 9.33301 -71.667 28 -95s46 -35 82 -35c44.667 0 85.667 34 123 102l96 198v14c-20 0 -38.667 -0.833008 -56 -2.5l-56 -5.5c-13.333 0 -24.5 2.83301 -33.5 8.5s-18.5 16.5 -28.5 32.5c14 3.33301 47 8.33301 99 15c32 4 52 6 60 6c12 0 26 -2.33301 42 -7
c25.333 -7.33301 38 -18.333 38 -33z" />
    <glyph glyph-name="H" unicode="H" horiz-adv-x="494" 
d="M494 812c0 -34 -7.33398 -84.002 -22.001 -150.002s-22 -110.667 -22 -134c0 -13.333 1.66699 -26 5 -38l-6 14c-8.66699 -12.667 -26.667 -68 -54 -166l-93 -336c-12.667 4.66699 -27.667 8.66699 -45 12c-2.66699 0 -5.66699 0.666992 -9 2
c10.667 60.667 28.334 134.667 53.001 222c19.333 68.667 35 119.334 47 152.001c-1.33301 0.666992 -6.83301 3.16699 -16.5 7.5s-18.5 6.5 -26.5 6.5l-110 -21c-4 4 -7.33301 6.66699 -10 8c-8.66699 5.33301 -16.667 8 -24 8c-8 0 -14.667 -3 -20 -9
c-1.33301 -2 -8.66602 -33 -21.999 -93c-16.667 -76.667 -29.334 -138 -38.001 -184c-13.333 -72.667 -20 -120.667 -20 -144c-13.333 4 -26.666 7.66699 -39.999 11c-14 4.66699 -21 12.334 -21 23.001l33 178c23.333 126.667 43.666 245 60.999 355
c22.667 143.333 34 237 34 281h27c10.667 -14.667 17.5 -27.667 20.5 -39s4.5 -28 4.5 -50c0 -29.333 -7 -86 -21 -170c-10 -59.333 -16 -99 -18 -119l80 -1c12.667 0 33.834 0.5 63.501 1.5s53.167 2.16699 70.5 3.5c5.33301 3.33301 16 39.666 32 108.999
c10 42.667 23.667 106.334 41 191.001l21 101c9.33301 -2.66699 19.166 -7.16699 29.499 -13.5s15.5 -12.5 15.5 -18.5z" />
    <glyph glyph-name="I" unicode="I" horiz-adv-x="233" 
d="M233 804c0 -37.333 -4.66602 -79.501 -13.999 -126.501l-28 -143.5c0 -4.66699 0.666992 -9 2 -13l-133 -525l-35 10c-13.333 6.66699 -20 17 -20 31c0.666992 0 16.667 62.833 48 188.5s60 245.834 86 360.501c32 140 48 221.667 48 245h40
c0 -11.333 0.666992 -18.333 2 -21s2.66602 -4.66699 3.99902 -6z" />
    <glyph glyph-name="J" unicode="J" horiz-adv-x="392" 
d="M392 741c0 -11.333 -6.66504 -53.666 -19.998 -126.999l-40 -222c-13.333 -74.667 -20 -115.667 -20 -123c-19.333 -52 -34.333 -91 -45 -117c-32 -80 -52.333 -123.333 -61 -130l-38 -6c-30.667 -4.66699 -50.667 -7 -60 -7c-12 0 -23 5 -33 15
c-29.333 28.667 -46 43.667 -50 45c1.33301 9.33301 2 16.333 2 21c0 12 -2.5 23.667 -7.5 35l-15.5 35c0 13.333 3.83301 34.833 11.5 64.5s17.5 44.5 29.5 44.5c21.333 0 33 -35.333 35 -106s20 -106 54 -106c25.333 0 49.666 35.333 72.999 106l31.5 115
c10.333 36.667 20.5 75 30.5 115c15.333 61.333 23 102.666 23 123.999c8 22.667 13.667 42 17 58c11.333 48.667 17 97.334 17 146.001c0 9.33301 4.16699 27.666 12.5 54.999s17.166 41 26.499 41c10 0 17 -8.33301 21 -25s6 -33.667 6 -51z" />
    <glyph glyph-name="K" unicode="K" horiz-adv-x="450" 
d="M403 698l-6 -20zM470 825c0 -2.66699 -3.33594 -10.001 -10.0029 -22.001s-10 -25.667 -10 -41c-4 -6.66699 -7.66699 -12 -11 -16c-19.333 -23.333 -40 -35 -62 -35l6 -46c-1.33301 -2.66699 -21.666 -28.667 -60.999 -78c-12.667 -16.667 -32.667 -41.667 -60 -75
l-40 -94c0 -33.333 22.667 -96.666 68 -189.999l93 -185v-26c-0.666992 -0.666992 -1 -1.33398 -1 -2.00098c-4 -3.33301 -10.333 -5 -19 -5c-16 0 -30.167 2.83301 -42.5 8.5s-18.5 13.167 -18.5 22.5l-126 303c-10 -10.667 -22.833 -42.5 -38.5 -95.5l-45.5 -155.5
c-16.667 -58 -28.667 -92.333 -36 -103c-10.667 6 -18 9 -22 9s-10 -1 -18 -3c-3.33301 6 -8 10.667 -14 14c8 23.333 28.333 95.5 61 216.5s63.334 240.5 92.001 358.5c32 131.333 48 209 48 233l33 7l9.5 -23c3 -7.33301 4.5 -15.333 4.5 -24l-14 -96
c-11.333 -67.333 -22.333 -111 -33 -131l13 -13c48.667 63.333 91.334 123 128.001 179l56 89c12.667 20 27 37.333 43 52c3.33301 -1.33301 6 -2.66602 8 -3.99902c12.667 -8 19 -17.667 19 -29z" />
    <glyph glyph-name="L" unicode="L" horiz-adv-x="340" 
d="M340 15c-7.33301 -4.66699 -25.3301 -9 -53.9971 -13s-56.334 -6 -83.001 -6c-15.333 0 -44.333 2 -87 6s-77 6 -103 6l-8 31c8 32 14.333 59 19 81l42 202l39.5 220c4.33301 23.333 13.5 39 27.5 47c-4 12.667 -6 23 -6 31c0 5.33301 2.83301 9.16602 8.5 11.499
s9.5 8.16602 11.5 17.499c0.666992 2.66699 -1.33301 4.5 -6 5.5s-7.33398 1.5 -8.00098 1.5c4.66699 0 7.5 17.833 8.5 53.5s9.5 62.5 25.5 80.5c7.33301 -6 14.666 -11.667 21.999 -17c3.33301 -3.33301 5 -8.66602 5 -15.999c-0.666992 -12.667 -1 -25 -1 -37
c0 -19.333 -7.66699 -80.666 -23 -183.999s-23 -161.333 -23 -174c-2 -22 -4 -40.667 -6 -56c-12 -88 -30.333 -167.333 -55 -238c8.66699 -4.66699 22 -8.33398 40 -11.001s37.667 -4 59 -4c25.333 0 49 1.66699 71 5s41.333 9 58 17l10.5 -32
c3 -9.33301 8.16699 -18.666 15.5 -27.999z" />
    <glyph glyph-name="M" unicode="M" horiz-adv-x="429" 
d="M429 776c0 -82.667 -5.66602 -165.675 -16.999 -249.008c-8.66699 -64.667 -19 -122.667 -31 -174l-18 -72c0 -5.33301 0.5 -19.333 1.5 -42s1.5 -40 1.5 -52c0 -31.333 -1.16699 -61.166 -3.5 -89.499s-6.5 -54.166 -12.5 -77.499l-48 12c-12.667 4.66699 -19 12 -19 22
c0 29.333 8.83301 115.833 26.5 259.5s31.167 228.5 40.5 254.5l-7 67c-2.66699 -5.33301 -13.667 -39.666 -33 -102.999c-10.667 -34 -24.334 -71 -41.001 -111c-27.333 8 -45.333 15.333 -54 22s-13 15 -13 25c0 0.666992 1.66699 10.667 5 30
c1.33301 7.33301 2 15.666 2 24.999c0 10.667 -0.833008 19.834 -2.5 27.501s-5.16699 17.834 -10.5 30.501l-37.5 -157c-11 -46.667 -23.167 -92.334 -36.5 -137.001c-8 -27.333 -13.5 -48.666 -16.5 -63.999s-4.5 -27.666 -4.5 -36.999
c0 -10.667 0.333008 -21.334 1 -32.001c-6 -28 -14 -58 -24 -90c-6 -20 -9 -33.667 -9 -41c0 -6.66699 2.33301 -14.334 7 -23.001h-54c-4.66699 4.66699 -9.33398 9.83398 -14.001 15.501s-7 11.834 -7 18.501l20 167c6 0 19 39.333 39 118l29 115
c2 6 11.167 43.667 27.5 113s24.5 106.333 24.5 111c0 8.66699 9.33301 34.334 28 77.001c22 49.333 41 74 57 74c15.333 0 26 -7.66699 32 -23c4 -10.667 6 -29.667 6 -57c0 -11.333 -0.166992 -22.666 -0.5 -33.999s-0.5 -22.666 -0.5 -33.999l13 -13
c18.667 54 35.334 96.333 50.001 127c18 37.333 28 66.333 30 87c16 2 26.167 3.33301 30.5 4s7.5 1.66699 9.5 3c14 0 23.333 -6 28 -18s7 -27.333 7 -46c0 -6 -0.333008 -11.5 -1 -16.5s-1 -9.16699 -1 -12.5zM349.001 642.992l-6 5z" />
    <glyph glyph-name="N" unicode="N" horiz-adv-x="420" 
d="M420 733c0 -30 -5.16895 -65.1689 -15.502 -105.502l-31.5 -121.5c4 -3.33301 7.5 -8.66602 10.5 -15.999s4.5 -16.666 4.5 -27.999c0 -7.33301 -0.333008 -13 -1 -17l-41 -180c-2.66699 -70.667 -5.16699 -130 -7.5 -178s-6.5 -86.667 -12.5 -116
c-9.33301 0 -15.666 -0.5 -18.999 -1.5s-5.66602 -2.83301 -6.99902 -5.5c-16.667 0 -27.5 6.16699 -32.5 18.5s-7.5 29.833 -7.5 52.5v24c-5.33301 22 -10 50.667 -14 86s-6 70 -6 104c-6 32 -11.667 64 -17 96c-13.333 74.667 -25 136.667 -35 186
c-14 70 -23.667 110.333 -29 121c-0.666992 0 -8 -33.667 -22 -101c-17.333 -85.333 -31.333 -165.666 -42 -240.999c-15.333 -111.333 -23 -207.333 -23 -288c0 -7.33301 -6.5 -14.333 -19.5 -21s-21.833 -14.334 -26.5 -23.001
c-4.66699 5.33301 -8.5 9.16602 -11.5 11.499s-8.16699 5.16602 -15.5 8.49902c8.66699 26 15 49.5 19 70.5s6 39.833 6 56.5c0 14.667 -0.5 25.167 -1.5 31.5l-3.5 21.5c10.667 26.667 24.667 91 42 193c14 81.333 27.167 170 39.5 266s18.5 152.333 18.5 169
c4 2.66699 8.33301 5.33398 13 8.00098c26 0 48.667 -32 68 -96c10 -32.667 23.667 -99.5 41 -200.5s32.333 -171.833 45 -212.5c4 6.66699 11 34.334 21 83.001s18.333 105.667 25 171c9.33301 86.667 14 165 14 235c0 1.33301 5.66699 6 17 14
c3.33301 2.66699 9 6.66699 17 12c16.667 0 28 -6.66699 34 -20c4 -9.33301 6 -24.333 6 -45v-22z" />
    <glyph glyph-name="O" unicode="O" horiz-adv-x="432" 
d="M432 535c0 -33.333 -4.33594 -67.333 -13.0029 -102c-4.66699 -18.667 -7 -33.667 -7 -45c0 -9.33301 -10.667 -44 -32 -104c-27.333 -76.667 -56.666 -139.334 -87.999 -188.001c-44 -68 -88.333 -102 -133 -102c-29.333 0 -59.666 9.66699 -90.999 29
c-42.667 26.667 -64 61.334 -64 104.001c0 27.333 3.66699 67.333 11 120c10.667 78 27.334 160.333 50.001 247c26.667 100.667 57.167 176.167 91.5 226.5s71.833 75.5 112.5 75.5l37 -8c47.333 -51.333 74.333 -82 81 -92c30 -46 45 -99.667 45 -161zM371.997 565
c0 23.333 -8 54.999 -24 94.999s-34.667 69.333 -56 88l-48 -28c-16 -10.667 -28.667 -21.334 -38 -32.001c-18 -20.667 -38.333 -73.667 -61 -159c-18 -67.333 -34.667 -144.166 -50 -230.499s-23 -141.166 -23 -164.499c0 -30 7 -55 21 -75c12 -16.667 24.667 -25 38 -25
c29.333 0 57.333 23.667 84 71c1.33301 2 29.333 56 84 162c13.333 26 28.833 74.5 46.5 145.5s26.5 121.833 26.5 152.5z" />
    <glyph glyph-name="P" unicode="P" horiz-adv-x="440" 
d="M440 671c0 -36 -8.83398 -74.668 -26.501 -116.001s-37.5 -69.666 -59.5 -84.999c-37.333 -25.333 -74.666 -42.333 -111.999 -51l-89 -16c-0.666992 -1.33301 -7 -25 -19 -71c-14.667 -58 -26.334 -111 -35.001 -159c-12.667 -70.667 -19 -127.667 -19 -171
c-5.33301 -0.666992 -9.16602 -1.83398 -11.499 -3.50098s-6.5 -2.5 -12.5 -2.5c-10 0 -20.833 3.5 -32.5 10.5s-17.5 13.5 -17.5 19.5c0 26.667 8.66699 76.334 26 149.001c13.333 55.333 29.333 116.333 48 183l27 92c0.666992 3.33301 -1 5.33301 -5 6
s-7.33301 1.33398 -10 2.00098c19.333 47.333 36.5 95.666 51.5 144.999s22.5 93 22.5 131c0 22.667 11 40.667 33 54c26 16 57.333 24 94 24c60 0 101.333 -16 124 -48c15.333 -21.333 23 -52.333 23 -93zM379.999 697.999c0 17.333 -3.33203 31 -9.99902 41
c-10.667 16.667 -29.334 25 -56.001 25c-35.333 0 -65 -31 -89 -93c-16.667 -44 -33.667 -115.333 -51 -214c42 10 84.333 35.667 127 77c52.667 51.333 79 106 79 164z" />
    <glyph glyph-name="Q" unicode="Q" horiz-adv-x="455" 
d="M455 631c0 -65.333 -11.001 -136 -33.001 -212c-15.333 -52.667 -35.666 -107.667 -60.999 -165l-34 -77c5.33301 -8 10 -16.167 14 -24.5s6 -17.166 6 -26.499l26 -45c19.333 -32 33.333 -52.667 42 -62l-31 1c-24.667 0 -43.334 9.66699 -56.001 29l-33 64
c-18 -13.333 -34.333 -29.833 -49 -49.5s-20.667 -34.5 -18 -44.5c-12 -2.66699 -25.167 -6.5 -39.5 -11.5s-26.166 -7.5 -35.499 -7.5c-60 0 -102.333 27.667 -127 83c-16.667 37.333 -25 87.666 -25 150.999c0 14.667 6.33301 44.667 19 90c17.333 62 42 129.667 74 203
c42 94.667 64 143.667 66 147c43.333 76 89.333 114 138 114c34 0 68.667 -18.667 104 -56s53 -71 53 -101zM380.999 644c0 13.333 -7.33203 30.002 -21.999 50.002c-18.667 25.333 -35.667 43 -51 53c-60.667 -58 -116 -152.667 -166 -284c-46 -120 -69 -215.333 -69 -286
c0 -38.667 8.33301 -71.667 25 -99c13.333 -21.333 24 -32 32 -32c11.333 0 33.666 21.667 66.999 65s50 69.666 50 78.999c0 5.33301 -10 23 -30 53l-30 43c2 0 3.83301 1.33301 5.5 4s2.5 10.334 2.5 23.001h40c8 -6.66699 16.333 -13 25 -19
c7.33301 -6.66699 14.333 -20.334 21 -41.001c24 39.333 45.333 96.333 64 171c24 97.333 36 170.666 36 219.999z" />
    <glyph glyph-name="R" unicode="R" horiz-adv-x="447" 
d="M447 -14c-4.66699 -1.33301 -9.16992 -3.83203 -13.5029 -7.49902s-9.16602 -5.5 -14.499 -5.5c-18.667 0 -43.334 28 -74.001 84c-12 22 -40.333 80 -85 174c-34.667 72.667 -61.334 120 -80.001 142l-22 -70c-21.333 -67.333 -36.666 -120.333 -45.999 -159
c-17.333 -68.667 -28 -126 -32 -172l-25 -7c-3.33301 0 -8.33301 2 -15 6c-16 11.333 -29.667 20.666 -41 27.999c14 38.667 24.333 71.334 31 98.001c10 38.667 15 72.667 15 102c10.667 0 18.334 2 23.001 6c8.66699 7.33301 14.334 17.666 17.001 30.999
s9.83398 55.833 21.501 127.5l33.5 213.5c14 95.333 22.667 161 26 197c4.66699 0.666992 9.16699 1 13.5 1h9.5c9.33301 -0.666992 15.333 -1 18 -1c4.66699 0 7 2.33301 7 7c-0.666992 6.66699 -1 13.334 -1 20.001c12 -1.33301 20 -2 24 -2c12 0 25.333 2.66699 40 8
s26.667 8 36 8c31.333 0 58.166 -11.5 80.499 -34.5s33.5 -51.833 33.5 -86.5c0 -10 -9 -40.667 -27 -92l-27 -75c0 -4.66699 -24.333 -25.334 -73 -62.001s-73 -58.334 -73 -65.001l40 -60c31.333 -48 53.333 -83.667 66 -107c18.667 -34.667 40.834 -81.667 66.501 -141
s41.5 -94.666 47.5 -105.999zM352.997 734.001c-3.33301 5.33301 -10 14.002 -20 26.002c-10 -6.66699 -22.333 -11.834 -37 -15.501l-43 -10.5c-10.667 -8.66699 -17.667 -18.5 -21 -29.5s-5 -25.833 -5 -44.5v-30c0 -21.333 -1.16699 -41.333 -3.5 -60
s-7.83301 -39.667 -16.5 -63v-27c28.667 26 55.667 54.333 81 85c34 41.333 51 66.666 51 75.999c0 19.333 1.5 36 4.5 50z" />
    <glyph glyph-name="S" unicode="S" horiz-adv-x="345" 
d="M345 274c0 -59.333 -21.3291 -115.999 -63.9961 -169.999c-56 -71.333 -133.667 -107 -233 -107c-4 1.33301 -9.83301 2.66602 -17.5 3.99902s-13.834 2 -18.501 2l-13 13c11.333 14 19.333 23.5 24 28.5s8 7.5 10 7.5c0.666992 0 3.66699 -1.5 9 -4.5s12 -4.5 20 -4.5
c57.333 0 106.666 22.333 147.999 67c55.333 59.333 83 119.333 83 180c0 13.333 -11.667 32 -35 56c-29.333 30 -62.333 45 -99 45c-10.667 0 -27 8.33301 -49 25c-52.667 40 -79 86.333 -79 139c0 43.333 34.5 98.166 103.5 164.499s125.833 99.5 170.5 99.5
c9.33301 0 16.166 -0.833008 20.499 -2.5l14.5 -5.5v-27c-4.66699 -2.66699 -9.33398 -5 -14.001 -7c-4 0 -10.667 2.33301 -20 7c-3.33301 -9.33301 -5.33301 -15.833 -6 -19.5s-1 -8.16699 -1 -13.5c-32.667 3.33301 -76.5 -21.167 -131.5 -73.5
s-82.5 -100.166 -82.5 -143.499c0 -42.667 22.333 -73 67 -91l125 -45c45.333 -24.667 68 -66 68 -124z" />
    <glyph glyph-name="T" unicode="T" horiz-adv-x="476" 
d="M476 788c0 -22 -31.167 -35.8379 -93.5 -41.5049s-95.833 -25.167 -100.5 -58.5c-7.33301 -46.667 -18.333 -101 -33 -163c-4.66699 -20 -11.334 -46 -20.001 -78c-9.33301 -69.333 -25.333 -140.666 -48 -213.999c-3.33301 -11.333 -21 -64 -53 -158
c-17.333 -51.333 -26 -87.666 -26 -108.999c-0.666992 -1.33301 -1.33398 -2 -2.00098 -2c-4.66699 -3.33301 -10 -5 -16 -5c-12 0 -23.333 3.83301 -34 11.5s-16 17.5 -16 29.5l50 152c42 128.667 73.333 230.667 94 306c33.333 120 50 201 50 243
c0 6.66699 -0.666992 13.334 -2 20.001l-4 20h-127c-22 0 -41.167 5.33301 -57.5 16s-28.166 25.334 -35.499 44.001c64.667 0 115.667 -1.33301 153 -4c24.667 -3.33301 49.334 -6.33301 74.001 -9c39.333 6 69.333 10.333 90 13c66.667 9.33301 105.667 14 117 14
c10.667 0 20 -2.16699 28 -6.5s12 -11.166 12 -20.499z" />
    <glyph glyph-name="U" unicode="U" horiz-adv-x="462" 
d="M462 735c0 -51.333 -12.9961 -128.999 -38.9961 -232.999c-20.667 -83.333 -36.334 -137.333 -47.001 -162c-38 -86 -71.333 -153 -100 -201c-56 -93.333 -105.333 -140 -148 -140c-38 0 -68 16.333 -90 49c-24 36 -36 77.667 -36 125c0 27.333 4.33301 93.333 13 198
c2.66699 34.667 7 84.667 13 150c0 50.667 9.33301 111.667 28 183c14 54 30.333 84.333 49 91l17 -7c-0.666992 -9.33301 -6.33398 -57.666 -17.001 -144.999s-20 -171.666 -28 -252.999c-10 -100.667 -15 -169.334 -15 -206.001c0 -20.667 4.33301 -48.334 13 -83.001
c11.333 -45.333 24.666 -68 39.999 -68s34 17.667 56 53c19.333 30.667 42.666 77 69.999 139c22.667 51.333 49.667 116.333 81 195c18 45.333 36 105.333 54 180c21.333 90 32 161.667 32 215c0 2.66699 3 6 9 10s10 7.33301 12 10c14.667 -10 24.167 -19 28.5 -27
s6.5 -17.667 6.5 -29c0 -3.33301 -0.333008 -9.83301 -1 -19.5s-1 -17.834 -1 -24.501z" />
    <glyph glyph-name="V" unicode="V" horiz-adv-x="420" 
d="M420 778c-6 -21.333 -11.667 -42.6709 -17 -64.0039c-14 -51.333 -29 -100.666 -45 -147.999c-22 -66 -43.667 -121.333 -65 -166c-6.66699 -13.333 -13.667 -36.666 -21 -69.999c-20 -88 -30.667 -133.667 -32 -137c-14.667 -44.667 -26 -87 -34 -127l-14 -67
c-40.667 0 -65 18.667 -73 56c-6 67.333 -14.667 131 -26 191c-2.66699 14.667 -9.66699 58.334 -21 131.001c-13.333 87.333 -20 140.666 -20 159.999c-10.667 44.667 -18.334 78.334 -23.001 101.001c-15.333 69.333 -23 109 -23 119c0 2.66699 1 7.33398 3 14.001
s3.33301 12 4 16h20c23.333 -14.667 43 -58.667 59 -132c6 -28.667 18.333 -103.667 37 -225c14.667 -98 29.334 -168.333 44.001 -211l43 128l82 245c28 83.333 42 126.333 42 129c3.33301 12 6.33301 21.667 9 29c16 43.333 29.333 65 40 65
c11.333 0 19.333 -3.33301 24 -10s7 -15.667 7 -27z" />
    <glyph glyph-name="W" unicode="W" horiz-adv-x="479" 
d="M479 804c0 -28.667 -9.00098 -71.998 -27.001 -129.998s-28.667 -93 -32 -105c0 -12 -0.333008 -22 -1 -30c-4.66699 -48 -17.667 -96 -39 -144c-14 -32 -30.333 -80.667 -49 -146c-16 -56.667 -28.667 -106 -38 -148c-1.33301 -23.333 -3.33301 -41 -6 -53
c-5.33301 -22.667 -18 -34 -38 -34l-12 6c-8 4 -18 6.66699 -30 8c0 10 -3.16699 55.333 -9.5 136s-12.166 131 -17.499 151c-20 -41.333 -36.667 -92.333 -50 -153l-24 -127c-8.66699 -35.333 -20 -53 -34 -53c-1.33301 0 -4 1 -8 3c-7.33301 4 -20 7 -38 9
c-2.66699 4 -5 7.66699 -7 11c6 40.667 11.667 81 17 121c11.333 80.667 17 126 17 136c0 0.666992 -1.33301 13.667 -4 39s-4 46.666 -4 63.999c0 34.667 5 58 15 70c-8 11.333 -13.5 34.833 -16.5 70.5s-4.5 78.167 -4.5 127.5c0 42 -3.33301 77 -10 105l-24 62
c2.66699 2.66699 4.33398 5 5.00098 7c4 7.33301 7 17 9 29h34c15.333 -12 27.333 -55.667 36 -131c4 -32 9 -95.833 15 -191.5s11.333 -150.834 16 -165.501c8.66699 24 16 42 22 54c18.667 36 37.667 54 57 54c20 0 32.5 -28.667 37.5 -86s10.5 -95.666 16.5 -114.999
c6 9.33301 23.5 59.833 52.5 151.5s44.833 143.5 47.5 155.5c24 127.333 41.167 207.166 51.5 239.499s23.166 48.5 38.499 48.5c14 0 23.5 -3.5 28.5 -10.5s7.5 -18.833 7.5 -35.5z" />
    <glyph glyph-name="X" unicode="X" horiz-adv-x="409" 
d="M409 818c0 -2.66699 -15.332 -38.3311 -45.999 -106.998c-42 -94 -71 -160.667 -87 -200c-31.333 -77.333 -47 -125 -47 -143c0 -13.333 9 -40.166 27 -80.499l55 -121.5c22.667 -52.667 37.667 -97 45 -133c-4.66699 -0.666992 -9.33398 -2.66699 -14.001 -6
c-1.33301 -0.666992 -3.66602 -2.66699 -6.99902 -6c-24.667 0 -54.667 43.333 -90 130c-22.667 56 -39.334 92.333 -50.001 109c-4.66699 -4.66699 -25 -41.667 -61 -111c-39.333 -76 -59 -123.667 -59 -143c-14 -4.66699 -22 -7 -24 -7c-14 0 -25.833 3 -35.5 9
s-14.5 13.667 -14.5 23c0 18 13.333 48.333 40 91c42.667 68 67.334 108.667 74.001 122c26.667 50.667 40 94 40 130c0 18 -17.167 71.167 -51.5 159.5s-51.5 142.166 -51.5 161.499c0 5.33301 1 9.66602 3 12.999c-22.667 10 -34.667 15.667 -36 17c-12 8 -18 18 -18 30
c0 1.33301 1 4.16602 3 8.49902s3.33301 7.83301 4 10.5l16 1c39.333 -14 72.666 -56.667 99.999 -128c39.333 -103.333 63 -161 71 -173c32 86.667 60.667 161 86 223c28 67.333 55 117.666 81 150.999h40c0.666992 -7.33301 1.66699 -13.166 3 -17.499z" />
    <glyph glyph-name="Y" unicode="Y" horiz-adv-x="397" 
d="M397 788l-67 -192.998l-127 -367c-46.667 -136.667 -70.667 -210.667 -72 -222c-4 -0.666992 -8 -2 -12 -4s-7 -3 -9 -3c-12 0 -22.833 3.5 -32.5 10.5s-14.5 16.167 -14.5 27.5l29 74c24.667 62 43 110.333 55 145c20 56 30 90 30 102c0 23.333 -24.5 91.5 -73.5 204.5
s-84.167 185.833 -105.5 218.5c5.33301 2 9.33301 4.16699 12 6.5s5 4.83301 7 7.5c20 0 51 -34.333 93 -103c34.667 -56.667 66.334 -127.334 95.001 -212.001c5.33301 9.33301 20.333 43.666 45 102.999l61 151l20 67c8.66699 18.667 17.667 28 27 28
c11.333 0 20.666 -4 27.999 -12s11 -17.667 11 -29z" />
    <glyph glyph-name="Z" unicode="Z" horiz-adv-x="474" 
d="M474 29c-15.333 -8.66699 -33.168 -14.333 -53.501 -17s-51.5 -4 -93.5 -4c-46 0 -89.833 -1.33301 -131.5 -4s-85.834 -5.33398 -132.501 -8.00098c-20 0 -33 2.66699 -39 8c-10 9.33301 -18.333 15.333 -25 18l91 159c34.667 62 69 127 103 195
c47.333 93.333 84.833 172.166 112.5 236.499s45.834 99.166 54.501 104.499v20c-18.667 4 -29.5 6.66699 -32.5 8s-9.83301 5.33301 -20.5 12c-1.33301 -5.33301 -2 -8.66602 -2 -9.99902s0.666992 -4.66602 2 -9.99902c-8 2.66699 -14.833 4.33398 -20.5 5.00098
s-12.5 1 -20.5 1c-7.33301 0 -29.666 -2.66699 -66.999 -8c-23.333 -3.33301 -42 -5 -56 -5c-9.33301 0 -27 3 -53 9c-14.667 3.33301 -27 5 -37 5c-8.66699 0 -15.334 -0.333008 -20.001 -1c0 17.333 -1.66699 32 -5 44c0 2 -1 4.33301 -3 7c0 4 1.33301 8.5 4 13.5
s4 8.5 4 10.5c22 -10 63 -15 123 -15c40 0 81 1.5 123 4.5s85.667 6.5 131 10.5c17.333 0 31.666 -6.33301 42.999 -19c9.33301 -10 14 -19.333 14 -28c0 -10.667 -18.667 -39.334 -56 -86.001c-24.667 -30.667 -44 -62.334 -58 -95.001
c-9.33301 -21.333 -22.666 -57 -39.999 -107c-11.333 -32 -22.333 -56.667 -33 -74c-22 -35.333 -42 -72.666 -60 -111.999l-46 -104c-19.333 -42 -42 -83.333 -68 -124c14.667 -5.33301 25.834 -9 33.501 -11s14.5 -3 20.5 -3h207c10.667 0 18 1.83301 22 5.5
s7.33301 6.83398 10 9.50098l75 -21v-20z" />
    <glyph glyph-name="bracketleft" unicode="[" horiz-adv-x="404" 
d="M404 800c-3.33301 -2.66699 -5.66504 -4.99902 -6.99805 -6.99902c-10 -13.333 -14.333 -25.333 -13 -36c-10.667 0.666992 -19.667 1 -27 1c-4 0 -11 -3.83301 -21 -11.5s-20.667 -13.167 -32 -16.5c-46 -12.667 -70 -22.667 -72 -30
c-6.66699 -64 -23.334 -155.667 -50.001 -275s-50.334 -219 -71.001 -299c-9.33301 -37.333 -18.666 -72 -27.999 -104c10.667 -4 20.5 -6.66699 29.5 -8s17.833 -2 26.5 -2c10.667 0 22.5 1.5 35.5 4.5s20.833 4.5 23.5 4.5c8.66699 0 16.5 -2.5 23.5 -7.5
s16.5 -15.5 28.5 -31.5c-12.667 -6.66699 -31.334 -11.667 -56.001 -15s-58.334 -5 -101.001 -5c-25.333 0 -45.666 3 -60.999 9c-20 8 -30 20.667 -30 38l36 148c32.667 134.667 57 240 73 316c28 133.333 45.333 236.666 52 309.999c44 6 90.667 17 140 33
c16 4.66699 36.333 12 61 22c9.33301 -6 16 -10.667 20 -14c13.333 -10.667 20 -18.667 20 -24z" />
    <glyph glyph-name="backslash" unicode="\" horiz-adv-x="374" 
d="M374 21c-9.33301 -4.66699 -16.332 -8.00195 -20.999 -10.002c-14.667 -6.66699 -23.667 -10 -27 -10c-10.667 0 -24.667 25 -42 75c-14.667 42.667 -29.334 82.334 -44.001 119.001c-16.667 42.667 -32.667 80.667 -48 114l-39 86c-14 32.667 -46 114 -96 244
c-36 94 -55 144 -57 150l33 7c21.333 -15.333 45.333 -52.333 72 -111c16.667 -37.333 38 -91.333 64 -162c24 -65.333 39 -103.666 45 -114.999c3.33301 -4.66699 12 -22 26 -52c20 -42.667 40 -88 60 -136c28 -68 52.667 -134.333 74 -199z" />
    <glyph glyph-name="bracketright" unicode="]" horiz-adv-x="415" 
d="M415 783l-40 -137.999c-26.667 -96 -40 -158.667 -40 -188c-0.666992 0 -13 -37.667 -37 -113l-68 -219.5c-24 -79 -35.333 -122.167 -34 -129.5c-2.66699 -0.666992 -34.667 -5 -96 -13c-36.667 -4.66699 -57.334 -7 -62.001 -7c-4 0 -9 0.666992 -15 2
s-13 2.66602 -21 3.99902c5.33301 14.667 11.5 24.667 18.5 30s15.167 8 24.5 8c4 0 10 -0.666992 18 -2s14.667 -2 20 -2c14.667 0 27.334 5 38.001 15c15.333 14 29 37.833 41 71.5s22.833 69.5 32.5 107.5l28.5 113l75.5 293c20.333 82.667 32.833 129.667 37.5 141
c-10 2.66699 -20.333 4 -31 4c-12 0 -29.333 -3 -52 -9s-39.667 -9 -51 -9c-8 0 -15.667 1 -23 3s-15 5.66699 -23 11v27l94 22c56 12 93.333 18 112 18c19.333 0 33 -3.33301 41 -10s12 -16.667 12 -30z" />
    <glyph glyph-name="asciicircum" unicode="^" horiz-adv-x="347" 
d="M347 413c-14.667 -2 -23.8281 -3.83301 -27.4951 -5.5s-12.167 -8.83398 -25.5 -21.501c-8.66699 9.33301 -14.334 16.333 -17.001 21s-3.66699 11.334 -3 20.001l-67 300c-18 -46.667 -39.333 -90.667 -64 -132c-3.33301 -6 -15.333 -24.333 -36 -55l-30 -91
c-13.333 -24 -30.333 -36 -51 -36c-10.667 0 -17.667 3.33301 -21 10s-5 14.667 -5 24c0 12 10.333 37 31 75c26 48 46.667 87.333 62 118c29.333 59.333 53.666 106 72.999 140c11.333 20 21.666 35.667 30.999 47c7.33301 0 22.166 -4.83301 44.499 -14.5
s35.166 -18.167 38.499 -25.5l14 -94c11.333 -72 29 -165.333 53 -280z" />
    <glyph glyph-name="underscore" unicode="_" horiz-adv-x="482" 
d="M482 -61c-12 -5.33301 -19.333 -9 -22 -11s-8.66699 -7.33301 -18 -16h-408c-12 14.667 -19.667 25.5 -23 32.5l-10 21.5v20l18 6c14 4.66699 21.333 7 22 7h388c17.333 0 30 -6 38 -18c4 -6 9 -20 15 -42z" />
    <glyph glyph-name="grave" unicode="`" horiz-adv-x="211" 
d="M211 487c0 -9.33301 -6.16699 -18 -18.5 -26s-20.833 -12 -25.5 -12c-11.333 0 -22.333 8 -33 24c-14.667 22.667 -33.667 66 -57 130c-15.333 42 -29.666 76.667 -42.999 104c-16.667 33.333 -25 53.333 -25 60c0 10 3.66699 17.5 11 22.5s16.333 7.5 27 7.5
c17.333 0 34.666 -17.667 51.999 -53l45 -101z" />
    <glyph glyph-name="a" unicode="a" horiz-adv-x="402" 
d="M402 96c0 -12 -11.335 -29 -34.002 -51c-29.333 -28.667 -62.666 -43 -99.999 -43c-25.333 0 -45.666 10.333 -60.999 31c-9.33301 12.667 -17.666 31.334 -24.999 56.001c-15.333 -19.333 -27.333 -33.666 -36 -42.999c-28 -29.333 -51 -44 -69 -44
c-4 0 -13.167 5.16699 -27.5 15.5s-21.5 16.5 -21.5 18.5c-8.66699 3.33301 -14.667 8.66602 -18 15.999c-6.66699 14.667 -10 34 -10 58c0 49.333 23.667 112.666 71 189.999c55.333 90.667 113.333 136 174 136c5.33301 0 11.666 -1.83301 18.999 -5.5
s13.333 -6.16699 18 -7.5l-14 -34c10 2.66699 16.667 2.66699 20 0l15 -23c7.33301 -11.333 11 -18 11 -20c-16 -40.667 -28 -73 -36 -97c-24 -72.667 -36 -129.334 -36 -170.001c1.33301 -2.66699 2.66602 -5.66699 3.99902 -9s2 -8.33301 2 -15
c10.667 0 17.834 -0.666992 21.501 -2s6.5 -3 8.5 -5c8 0 22 8.5 42 25.5s38.333 35.5 55 55.5c10.667 -7.33301 16.667 -11.666 18 -12.999c6 -6 9 -12.667 9 -20zM237.998 382c-20.667 0 -46.6689 -17.667 -78.002 -53l-79 -93c-2 -2.66699 -3.33301 -4.66699 -4 -6
c-3.33301 -6 -6.33301 -13 -9 -21c-4.66699 -14 -10 -32.333 -16 -55c-8 -32 -12 -51.333 -12 -58c0 -2 3.33301 -8 10 -18c3.33301 -5.33301 7 -10.666 11 -15.999c44.667 15.333 87.334 61.666 128.001 138.999c34.667 66.667 54.334 125 59.001 175
c-2.66699 4 -6 6 -10 6z" />
    <glyph glyph-name="b" unicode="b" horiz-adv-x="352" 
d="M352 309c0 -7.33301 -3.33398 -23.0029 -10.001 -47.0029s-10 -39.333 -10 -46l-22 -55c-21.333 -41.333 -48 -75.666 -80 -102.999c-44 -37.333 -94.667 -56 -152 -56c-7.33301 0 -14.333 -0.166992 -21 -0.5s-13 -0.5 -19 -0.5c-12.667 0 -21.5 1.83301 -26.5 5.5
s-7.5 11.834 -7.5 24.501c0 40 14.333 102.333 43 187c53.333 156.667 80.333 236.667 81 240c29.333 99.333 44 183.333 44 252l20 64c14 44 23 69 27 75c5.33301 -7.33301 11 -14.666 17 -21.999c6.66699 -10 10 -21.333 10 -34l-20 -96l-40 -184
c-14.667 -66 -23.667 -103 -27 -111v-40c28 18 51.333 31.5 70 40.5s34.334 13.5 47.001 13.5c17.333 -12 30 -22 38 -30c25.333 -25.333 38 -51 38 -77zM291.999 314.997c0 12 -5 22.332 -15 30.999c-3.33301 2.66699 -8.33301 6 -15 10c-33.333 0 -65.666 -26 -96.999 -78
c-22.667 -38 -43.667 -86 -63 -144l-23 -79h46c45.333 13.333 85.666 51.333 120.999 114c30.667 54.667 46 103.334 46 146.001z" />
    <glyph glyph-name="c" unicode="c" horiz-adv-x="342" 
d="M362 360c-1.33301 -2.66699 -4.66797 -8.66406 -10.001 -17.9971s-12.333 -14 -21 -14c-3.33301 0 -13.333 9 -30 27s-31 27 -43 27c-25.333 0 -62.666 -26 -111.999 -78c-57.333 -60 -86 -118.667 -86 -176c0 -29.333 4.5 -50 13.5 -62s25.833 -18 50.5 -18
c23.333 0 48.666 9.33301 75.999 28c78.667 53.333 121.667 81.333 129 84c3.33301 -2.66699 6 -4.33398 8 -5.00098s3.66699 -1.33398 5 -2.00098c-3.33301 -9.33301 -5.66602 -17.666 -6.99902 -24.999s-2 -13 -2 -17c0 -2.66699 0.166992 -4.83398 0.5 -6.50098
s0.833008 -3.16699 1.5 -4.5c-2 -8.66699 -24 -26.334 -66 -53.001c-50 -31.333 -93.667 -47 -131 -47c-54 0 -92 15 -114 45c-16 22 -24 54 -24 96c-0 54.667 26.333 115 79 181c56 70.667 112.333 106 169 106c20 0 42.333 -9.33301 67 -28z" />
    <glyph glyph-name="d" unicode="d" horiz-adv-x="403" 
d="M408 719l-59.0029 -365.001c-6.66699 -42 -20.667 -100 -42 -174c-29.333 -103.333 -55.333 -163.333 -78 -180c-6.66699 6 -13 12 -19 18c0 2.66699 -2.66699 12.334 -8 29.001c-18 -14.667 -33 -25 -45 -31c-20.667 -10.667 -43.667 -16 -69 -16
c-31.333 0 -53.5 9.5 -66.5 28.5s-19.5 43.167 -19.5 72.5c0 53.333 22.667 116.666 68 189.999c48 78 94.333 117 139 117c15.333 0 29 -3.33301 41 -10c2.66699 -1.33301 13.334 -9 32.001 -23c14.667 23.333 31.334 91 50.001 203s26.667 177.667 24 197
c4.66699 1.33301 9.83398 2.5 15.501 3.5s16.167 2.16699 31.5 3.5c0 -11.333 0.833008 -22.666 2.5 -33.999s2.5 -21 2.5 -29zM255.997 274.999v19.999c0 20 -1.5 32.667 -4.5 38s-14.833 17 -35.5 35l-46 -40c-14 -12.667 -25.667 -21.667 -35 -27l-43 -95
c-16 -36 -24 -69.667 -24 -101c0 -24 7 -45.333 21 -64c44.667 26.667 82.667 60.334 114 101.001c35.333 46 53 90.333 53 133z" />
    <glyph glyph-name="e" unicode="e" horiz-adv-x="326" 
d="M294 348c0 2.66699 -1.00098 5.83301 -3.00098 9.5s-3.33301 7.16699 -4 10.5c-18.667 -6 -34 -11.333 -46 -16c-39.333 -16.667 -88.666 -67 -147.999 -151h27c39.333 20.667 75 44.667 107 72c44.667 38 67 63 67 75zM66.999 146.999
c-4.66699 -14 -7.00098 -21.3311 -7.00098 -21.998c0 -20.667 10.667 -38.334 32 -53.001c17.333 -12 33 -18 47 -18c14.667 0 40.667 7.33301 78 22s67.333 29.667 90 45c1.33301 -4.66699 2.83301 -8.83398 4.5 -12.501s2.5 -8.16699 2.5 -13.5
c0 -28.667 -16.333 -51.667 -49 -69s-71 -26 -115 -26c-39.333 0 -74.166 11.167 -104.499 33.5s-45.5 47.166 -45.5 74.499c0 64.667 29.5 132.167 88.5 202.5s115.167 105.5 168.5 105.5c21.333 0 38.166 -1.5 50.499 -4.5s18.5 -8.16699 18.5 -15.5
c6.66699 -5.33301 11.334 -10 14.001 -14c9.33301 -12 14 -25.667 14 -41c0 -26 -27.667 -64.333 -83 -115c-47.333 -43.333 -77.666 -67.333 -90.999 -72c-25.333 -8 -48 -12 -68 -12h-16c-12.667 2.66699 -22.334 4.33398 -29.001 5.00098z" />
    <glyph glyph-name="f" unicode="f" horiz-adv-x="355" 
d="M389 688c-4 -4 -7.66797 -5.99902 -11.001 -5.99902c-20 0 -31.667 16.667 -35 50c-0.666992 6 -1 16 -1 30l-27 8c-24 0 -55 -107.333 -93 -322c6 -1.33301 14 -2 24 -2c4 0 10 0.333008 18 1s14 1 18 1c11.333 0 22 -1.16699 32 -3.5s23.667 -7.83301 41 -16.5
c-10.667 -16 -36.5 -26.5 -77.5 -31.5s-61.833 -7.83301 -62.5 -8.5c-6.66699 -4.66699 -15.167 -18.334 -25.5 -41.001s-19.5 -49 -27.5 -79c-12.667 -44 -32 -99.333 -58 -166c-20.667 -52.667 -37 -86.667 -49 -102h-47c0 5.33301 -1.33301 10 -4 14s-4 7.33301 -4 10
c20 38 41.667 86.667 65 146c26.667 68 47.667 136 63 204c-12 2.66699 -25.333 5.33398 -40 8.00098c-24 5.33301 -50.667 11.666 -80 18.999v34c12.667 0 27.334 -1.16699 44.001 -3.5s28.334 -3.5 35.001 -3.5c40 0 69.667 33 89 99l42 183c20 66.667 51 100 93 100
c21.333 0 38 -7 50 -21c7.33301 -8.66699 16.666 -26.667 27.999 -54v-47z" />
    <glyph glyph-name="g" unicode="g" horiz-adv-x="328" 
d="M328 320c-13.333 -41.333 -24.3311 -76.6621 -32.998 -105.995l-81 -278.5c-28 -100.333 -49.333 -167.833 -64 -202.5c-34 -80.667 -71.333 -121 -112 -121c-34.667 0 -57.334 7.16699 -68.001 21.5s-16 38.166 -16 71.499v43c5.33301 3.33301 12.333 17.666 21 42.999
h20c8 -15.333 13.5 -30.333 16.5 -45s4.5 -30.334 4.5 -47.001c0 -8 -0.166992 -15.333 -0.5 -22s-0.5 -13 -0.5 -19c6 -2 12.333 -4 19 -6c20 0 42 34 66 102l75 258l-7 27l-36.5 -25.5c-13 -9 -24.167 -13.5 -33.5 -13.5c-26.667 0 -49.667 9.66699 -69 29
s-29 42.666 -29 69.999c0 42 20 96.667 60 164c46 78 93.333 117 142 117c10 0 18.667 -5 26 -15s14 -25 20 -45l-6 -14l-27 -7l-20 40c-34 -13.333 -67.333 -48.333 -100 -105c-27.333 -48 -41 -100.667 -41 -158c0 -6.66699 2.16699 -13.334 6.5 -20.001
s10.166 -10 17.499 -10c44.667 0 88 45 130 135l74 172l19.5 -9.5c6.33301 -3 13.166 -4.5 20.499 -4.5c0.666992 -2.66699 1.83398 -6 3.50098 -10s2.5 -7 2.5 -9z" />
    <glyph glyph-name="h" unicode="h" horiz-adv-x="350" 
d="M350 256c0 -51.333 -2.99902 -92.667 -8.99902 -124c-10.667 -56.667 -31.667 -98.667 -63 -126l-18 18l-10 10c12.667 35.333 23.834 72.833 33.501 112.5s14.5 75.167 14.5 106.5c0 18 -3.33301 37 -10 57s-15.667 30 -27 30c-28.667 0 -58 -31 -88 -93
c-4 -8.66699 -27.667 -66.334 -71 -173.001c-25.333 -62.667 -46 -94 -62 -94c-8.66699 0 -16.834 2.33301 -24.501 7s-11.5 10 -11.5 16c0 2 10 32 30 90c27.333 80 52 164.667 74 254c34.667 141.333 64.667 297 90 467c19.333 -7.33301 31.833 -14.5 37.5 -21.5
s8.5 -21.833 8.5 -44.5c0 -42 -5.33301 -89.333 -16 -142c-3.33301 -15.333 -14.333 -60.666 -33 -135.999c-13.333 -53.333 -21.333 -92.333 -24 -117l7 -13l32 26c20 14.667 34.667 22 44 22c25.333 0 46.666 -10 63.999 -30c21.333 -24.667 32 -58.667 32 -102z" />
    <glyph glyph-name="i" unicode="i" horiz-adv-x="172" 
d="M172 542c0 -11.333 -6.83203 -24.499 -20.499 -39.499s-25.834 -22.5 -36.501 -22.5c-6.66699 0 -14.5 4.83301 -23.5 14.5s-13.5 18.167 -13.5 25.5c0 15.333 5.5 29.166 16.5 41.499s22.167 18.5 33.5 18.5c12.667 0 23.167 -3.5 31.5 -10.5s12.5 -16.167 12.5 -27.5z
M124.001 315.001c-12 -42 -22.666 -86.498 -31.999 -133.498s-14 -90.167 -14 -129.5c0 -8 -7 -19 -21 -33s-23 -21 -27 -21c-1.33301 1.33301 -3.33301 2.66602 -6 3.99902s-7 2 -13 2c-2.66699 8 -5 16 -7 24c4 18.667 7.66699 35 11 49
c9.33301 37.333 21.666 82 36.999 134c6 20 13 58.667 21 116c4.66699 34 13 51 25 51c8.66699 0 15.167 -6.33301 19.5 -19s6.5 -27.334 6.5 -44.001z" />
    <glyph glyph-name="j" unicode="j" horiz-adv-x="154" 
d="M154 527c0 -6 -3.66699 -13.668 -11 -23.001s-21 -23 -41 -41h-34c-1.33301 2.66699 -4 6.33398 -8 11.001s-6 9 -6 13c0 6.66699 3.33301 18 10 34c15.333 36.667 32.333 55 51 55c8.66699 -4 15 -7.66699 19 -11c13.333 -11.333 20 -24 20 -38zM128 312.999
c0 -21.333 -10.332 -76.334 -30.999 -165.001c-10 -42.667 -15 -84.667 -15 -126c0 -15.333 -16.667 -72.666 -50 -171.999l-50 -148c-13.333 -25.333 -25 -44.333 -35 -57c-30.667 -38 -63.667 -57 -99 -57c-31.333 0 -52.333 11.667 -63 35c-6 26 -9.66699 41 -11 45v60
h14c15.333 -14 26.666 -27.667 33.999 -41c4 -7.33301 10.333 -22.666 19 -45.999c49.333 25.333 93 97.666 131 216.999c26.667 84.667 50.667 193 72 325l31 200h27c10 -20 16.833 -34 20.5 -42s5.5 -17.333 5.5 -28z" />
    <glyph glyph-name="k" unicode="k" horiz-adv-x="354" 
d="M377 401c-7.33301 -17.333 -27.002 -40.333 -59.002 -69c-18 -16 -48.333 -41 -91 -75c-36 -28 -57.667 -46.667 -65 -56l174 -174v-20c-5.33301 -2.66699 -10.666 -5 -15.999 -7c-32 0 -68 24.667 -108 74s-66.667 74 -80 74c-10 0 -26.667 -27.667 -50 -83
c-13.333 -32 -24.333 -53.667 -33 -65h-40c-0.666992 2.66699 -2 5.66699 -4 9s-3 9.33301 -3 18l16 45l45 127l67.5 200c23.667 70.667 41.834 139 54.501 205l25 158h26c10 -13.333 17.667 -26.666 23 -39.999l3 -6c0 -14.667 -8.33301 -60.334 -25 -137.001l-43 -194
c-16.667 -72 -25 -109 -25 -111c25.333 18 53.333 41 84 69c52 47.333 79.667 71 83 71c2.66699 -2.66699 5 -4.66699 7 -6c8.66699 -4.66699 20 -7 34 -7z" />
    <glyph glyph-name="l" unicode="l" horiz-adv-x="252" 
d="M286 752c-0.666992 0 -9.99805 -27.332 -27.998 -81.999l-52 -163c-18.667 -62.667 -28 -101.334 -28 -116.001c-8.66699 -23.333 -15.334 -43 -20.001 -59c-15.333 -47.333 -28.333 -93.333 -39 -138c-12.667 -44.667 -22.667 -78 -30 -100
c-22.667 -66.667 -39.667 -100 -51 -100c-0.666992 0 -4.33398 1 -11.001 3s-16 3 -28 3l144 457c36.667 116.667 55 191.667 55 225c4.66699 7.33301 8.66699 14.333 12 21c14.667 26.667 28.667 55 42 85h14c4 -6.66699 8.33301 -13.167 13 -19.5s7 -11.833 7 -16.5z" />
    <glyph glyph-name="m" unicode="m" horiz-adv-x="440" 
d="M440 357c0 -24 -10.168 -69.335 -30.501 -136.002s-30.5 -111.667 -30.5 -135v-10c1.33301 -4.66699 2 -8 2 -10h-27c0 -5.33301 1 -10 3 -14s3 -8 3 -12l-9.5 -11.5c-3 -3.66699 -6.16699 -9.16699 -9.5 -16.5c-9.33301 2.66699 -17.5 4.33398 -24.5 5.00098
s-12.167 1.33398 -15.5 2.00098c-0.666992 4.66699 -1.16699 9.16699 -1.5 13.5s-2.16602 10.833 -5.49902 19.5l94 294l-13 34c-21.333 -19.333 -48.333 -64.666 -81 -135.999l-107 -232h-33l-8 34c0 11.333 18.667 64.333 56 159c18 45.333 27 82.666 27 111.999
c-0.666992 7.33301 -1 12.666 -1 15.999c-48.667 -72 -86.667 -134.667 -114 -188c-32 -79.333 -52 -128 -60 -146c-3.33301 2 -7.66602 6.33301 -12.999 13c-2.66699 -5.33301 -4.33398 -9.5 -5.00098 -12.5s-1.33398 -5.5 -2.00098 -7.5l-24 18
c-2.66699 2.66699 -4 8.33398 -4 17.001v16c6 23.333 12.333 46.666 19 69.999c14.667 54 26.667 105.667 36 155c13.333 70 20 127.333 20 172c6 2.66699 12.333 5.33398 19 8.00098c2.66699 0 6.33398 -1.16699 11.001 -3.5s8 -3.83301 10 -4.5
c2 -33.333 3.66699 -58.333 5 -75c4 -49.333 6.66699 -75.666 8 -78.999c23.333 35.333 44.333 64.166 63 86.499s32 33.5 40 33.5c10 0 21 -4 33 -12c6 -4 14 -11 24 -21l39 49c10 12 21.667 24.667 35 38c16.667 -11.333 30.667 -23.333 42 -36c20 -22 30 -44.333 30 -67z
" />
    <glyph glyph-name="n" unicode="n" horiz-adv-x="378" 
d="M111 246l68.998 98c47.333 60 84 90 110 90c12 0 27.333 -9.33301 46 -28c28 -28 42 -65.667 42 -113c0 -4 -7.33301 -44 -22 -120c-10.667 -55.333 -19 -111 -25 -167c-5.33301 -4 -9.66602 -6 -12.999 -6c-12 0 -24 6 -36 18c-8 8 -12 15 -12 21
c0 17.333 9 59.666 27 126.999s27 117.666 27 150.999c0 7.33301 -8.66699 26 -26 56h-14c-22 -20 -41 -40 -57 -60c-18 -22.667 -43.333 -62.667 -76 -120c-3.33301 -6 -24.333 -51.667 -63 -137c-16.667 -37.333 -36 -56 -58 -56c-1.33301 4.66699 -2.66602 8 -3.99902 10
c-4.66699 6.66699 -12 10 -22 10c-4 0 -6 2 -6 6l6 33l93 394h27c5.33301 -5.33301 9.83301 -9.16602 13.5 -11.499s10.167 -5.16602 19.5 -8.49902c-10 -20.667 -17 -39.167 -21 -55.5s-8 -37.833 -12 -64.5z" />
    <glyph glyph-name="o" unicode="o" horiz-adv-x="334" 
d="M334 342c0 -12 -4.33398 -29.001 -13.001 -51.001s-13 -37.333 -13 -46c0 -27.333 -20.667 -71.666 -62 -132.999c-50 -74.667 -100.667 -112 -152 -112c-32 0 -56.333 10 -73 30c-14 16.667 -21 38 -21 64c0 24 11 63 33 117c25.333 62 54 113.333 86 154
c40.667 51.333 80.334 77 119.001 77c11.333 0 29.333 -11 54 -33c28 -24.667 42 -47 42 -67zM261.999 343.999c-6.66699 10.667 -11.6689 18.333 -15.002 23c-9.33301 14 -15.666 23 -18.999 27c-12 -22.667 -26.667 -38.334 -44 -47.001
c-5.33301 -2.66699 -12.666 -4.66699 -21.999 -6c1.33301 -6.66699 2 -13 2 -19c0 -6.66699 -2.83301 -13.167 -8.5 -19.5s-17.167 -13.5 -34.5 -21.5c2 -4 3 -9 3 -15c0 -15.333 -7 -40 -21 -74l-43 -104c0 -4 2.16699 -8.33301 6.5 -13l14.5 -15c46 22 85.333 59 118 111
c42 66.667 63 124.334 63 173.001z" />
    <glyph glyph-name="p" unicode="p" horiz-adv-x="325" 
d="M330 318c0 -44.667 -9.66992 -90.333 -29.0029 -137c-21.333 -51.333 -47 -85 -77 -101c-57.333 -17.333 -94.666 -30.333 -111.999 -39c-28 -13.333 -42 -49.333 -42 -108c-8 -26.667 -14 -48 -18 -64c-14 -48.667 -25.667 -87.667 -35 -117l-39 -131
c-8 -23.333 -18.667 -35 -32 -35c-7.33301 0 -15.166 2.66699 -23.499 8s-12.5 10.333 -12.5 15l27 92c20.667 71.333 37.667 133.333 51 186c18.667 73.333 28 119.666 28 138.999c12.667 23.333 23 47 31 71c14 40.667 26.333 88.334 37 143.001
c15.333 77.333 26 123 32 137c19.333 42 54.333 63 105 63c18.667 0 34.334 -4.66699 47.001 -14c34.667 -25.333 53.667 -38.333 57 -39zM263.997 314.001l-0.000976562 21.001c0 8 -2 15.333 -6 22l-20 30c-41.333 -16 -67 -47 -77 -93
c-23.333 -110 -37.666 -172.667 -42.999 -188c46 16.667 81.833 43.167 107.5 79.5s38.5 79.166 38.5 128.499z" />
    <glyph glyph-name="q" unicode="q" horiz-adv-x="310" 
d="M310 347c0 -10.667 -14.334 -43.667 -43.001 -99l-81 -156c-29.333 -60 -44 -99.667 -44 -119c0 -4.66699 -12.333 -30.667 -37 -78l-83 -159c0 -3.33301 1 -6.83301 3 -10.5s3.33301 -7.16699 4 -10.5l13 -6c8 0 16.667 4 26 12c21.333 18.667 34 28 38 28
c6 0 13.333 -5 22 -15l15 -19c-10 -14 -39.167 -36.5 -87.5 -67.5s-81.5 -46.5 -99.5 -46.5c-5.33301 0 -11.666 3.66699 -18.999 11c-2 2 -7 7.66699 -15 17l174 414l-74 56c-13.333 18.667 -20 46.667 -20 84c0 38 18.667 85.667 56 143c42 64.667 83.667 97 125 97
c9.33301 0 32.833 -11.333 70.5 -34s56.5 -36.667 56.5 -42zM129.999 -31v13v-13zM235.999 363l-34.001 14.002c-20.667 0 -36.667 -9 -48 -27s-20.666 -27 -27.999 -27c-5.33301 0 -17.333 -23.667 -36 -71s-28 -78 -28 -92c0 -4.66699 2 -10.334 6 -17.001
s9 -13.334 15 -20.001c22.667 14.667 45.667 40 69 76c9.33301 14 37.333 68.667 84 164z" />
    <glyph glyph-name="r" unicode="r" horiz-adv-x="374" 
d="M374 329c-47.333 0 -88.001 -9 -122.001 -27s-64.667 -49.333 -92 -94c-30.667 -50.667 -54.334 -104 -71.001 -160c-9.33301 -31.333 -21.666 -47 -36.999 -47c-6 0 -15.167 3.66699 -27.5 11s-18.5 14 -18.5 20l23 97c19.333 76 35.666 137.667 48.999 185
c19.333 68 33.333 106.333 42 115c14.667 -10 24.834 -19.5 30.501 -28.5s8.5 -18.5 8.5 -28.5c0 -8.66699 -0.333008 -15.667 -1 -21c-3.33301 -26 -5 -42.333 -5 -49c25.333 18 45.333 31.333 60 40c46.667 27.333 84.334 41 113.001 41l48 -34v-20z" />
    <glyph glyph-name="s" unicode="s" horiz-adv-x="327" 
d="M327 159c0 -26 -12.1689 -51.498 -36.502 -76.498s-52.166 -37.5 -83.499 -37.5c-15.333 -12 -33.666 -22.667 -54.999 -32s-46.666 -14 -75.999 -14s-47.333 2.33301 -54 7s-14 17.667 -22 39c8.66699 4 15 6.5 19 7.5s6.66699 1.5 8 1.5
c2.66699 0 6.66699 -0.5 12 -1.5s9.66602 -1.5 12.999 -1.5c32.667 0 73.5 11.167 122.5 33.5s84.167 46.833 105.5 73.5v20c-54.667 7.33301 -98.667 13.666 -132 18.999c-63.333 11.333 -95 35.333 -95 72c0 16 20.667 41.667 62 77c52 44.667 108 67 168 67
c5.33301 0 12.666 -2 21.999 -6s14 -9 14 -15l-5 -33c-32.667 0 -69 -7.33301 -109 -22c-55.333 -20 -88.333 -48.333 -99 -85c10.667 0 28.334 -1.66699 53.001 -5c10 -1.33301 23.667 -2 41 -2c28.667 0 55.667 -7 81 -21c30.667 -16.667 46 -38.334 46 -65.001z" />
    <glyph glyph-name="t" unicode="t" horiz-adv-x="418" 
d="M431 380c-15.333 -15.333 -35.168 -25.835 -59.501 -31.502s-64.5 -8.5 -120.5 -8.5c-5.33301 -26 -9.66602 -48 -12.999 -66c-22 -101.333 -46.667 -193 -74 -275h-47l80 328c-17.333 0 -38.333 0.666992 -63 2s-42.667 2 -54 2h-36c-12 -2 -21 -3.33301 -27 -4
c-4.66699 6.66699 -7.66699 11.334 -9 14.001c-3.33301 5.33301 -5 9.66602 -5 12.999l7 26h201c0 19.333 13.833 83.333 41.5 192s44.834 169.334 51.501 182.001h27v-60c-6 -15.333 -10.833 -33.666 -14.5 -54.999s-5.5 -41 -5.5 -59
c0 -8.66699 -8.66699 -41.334 -26 -98.001c-8.66699 -29.333 -15.667 -47.666 -21 -54.999v-32h49.5c16.333 0 32.166 0.333008 47.499 1c22.667 0 41.667 -1 57 -3z" />
    <glyph glyph-name="u" unicode="u" horiz-adv-x="369" 
d="M382 358c0 -14 -13.0029 -49.667 -39.0029 -107c-30.667 -66.667 -61.334 -121.667 -92.001 -165c-41.333 -57.333 -77.666 -86 -108.999 -86c-29.333 -0 -58.666 14.333 -87.999 43c-34.667 33.333 -52 73 -52 119c0 23.333 8.83301 65.666 26.5 126.999
s26.5 109.666 26.5 144.999c7.33301 0 13 0.833008 17 2.5s7.33301 3.5 10 5.5c4 0 8.83301 -1.33301 14.5 -4s9.83398 -4 12.501 -4c0.666992 -5.33301 1.66699 -12 3 -20s2 -14.333 2 -19c0 -19.333 -7.66699 -53 -23 -101s-23 -94.667 -23 -140
c0 -27.333 3.83301 -50.833 11.5 -70.5s21.5 -29.5 41.5 -29.5c22 0 49.667 29 83 87c21.333 36.667 47.333 91.334 78 164.001c26.667 63.333 40.334 95.333 41.001 96h46l9 -28.5c2 -6.33301 3.33301 -11.166 4 -14.499z" />
    <glyph glyph-name="v" unicode="v" horiz-adv-x="355" 
d="M355 361c0 -6 -15.333 -28.002 -46 -66.002l-101 -124c-19.333 -29.333 -40.333 -58.333 -63 -87c-46 -57.333 -79.667 -86 -101 -86c-8 0 -13.5 3.33301 -16.5 10s-4.5 17 -4.5 31c0 12.667 1.16699 32.667 3.5 60s3.5 45.333 3.5 54v12c0 4.66699 -0.666992 11 -2 19
l-21 187c0 9.33301 4.33301 16.666 13 21.999c12.667 5.33301 22 9 28 11c21.333 -35.333 33.5 -89.166 36.5 -161.499s6.16699 -114.166 9.5 -125.499c55.333 54.667 101 109.334 137 164.001c44.667 68.667 74.667 103 90 103c6.66699 0 14 -2.16699 22 -6.5
s12 -9.83301 12 -16.5z" />
    <glyph glyph-name="w" unicode="w" horiz-adv-x="429" 
d="M429 407c0 -6 -7.66895 -25.3359 -23.002 -58.0029c-7.33301 -16 -11 -31 -11 -45c0.666992 -5.33301 1 -9.33301 1 -12l-13 7c-29.333 -36.667 -58 -82 -86 -136l-58 -116c-18 -32 -34.667 -48 -50 -48c-12.667 0 -21.5 5 -26.5 15s-7.5 24.333 -7.5 43
c0 8.66699 0.666992 24.334 2 47.001s2 35.667 2 39c0 12.667 -1 24.667 -3 36c-24 -20 -43 -48 -57 -84c-22.667 -60 -40.667 -90 -54 -90c-3.33301 0 -9.66602 1.16699 -18.999 3.5s-17.333 3.5 -24 3.5c0 14.667 5.66699 44.334 17 89.001s17 79.334 17 104.001
c0 47.333 -2 85.666 -6 114.999c-9.33301 68 -14 103.333 -14 106c8 0 14 -0.333008 18 -1l35 -6c4.66699 -46 8.33398 -80.667 11.001 -104c8 -70 13.333 -108.667 16 -116c19.333 26.667 44 73.334 74 140.001c20 45.333 37.333 68 52 68
c5.33301 0 11.166 -6.5 17.499 -19.5s9.5 -23.5 9.5 -31.5c0 -8.66699 -4.33301 -32 -13 -70c-10.667 -46.667 -21.667 -84.667 -33 -114l13 -13c8.66699 6 50.334 71.333 125.001 196c31.333 52 54 78 68 78c5.33301 0 10 -2.83301 14 -8.5s6 -11.5 6 -17.5z" />
    <glyph glyph-name="x" unicode="x" horiz-adv-x="389" 
d="M402 444c-12 -10 -42.333 -43.665 -91 -100.998c-54.667 -64.667 -82 -102 -82 -112c0 -12 10.667 -38.333 32 -79c34.667 -66 57.334 -111.333 68.001 -136c-10.667 0 -20.834 -0.833008 -30.501 -2.5s-16.167 -2.5 -19.5 -2.5c-5.33301 0 -11 3.33301 -17 10
c-8.66699 9.33301 -17.667 16.666 -27 21.999c2 8.66699 -3.33301 32.167 -16 70.5s-20.667 57.5 -24 57.5c-15.333 0 -39.333 -25 -72 -75c-22.667 -34.667 -47.667 -65.667 -75 -93h-47v40c14 5.33301 51 45 111 119c32.667 40.667 49 67 49 79l-106 223
c1.33301 0.666992 5 3 11 7s11 6 15 6c14 0 36.667 -31.667 68 -95c20 -40 37.667 -72.667 53 -98c44 55.333 80.5 99.166 109.5 131.499s54.833 50.833 77.5 55.5z" />
    <glyph glyph-name="y" unicode="y" horiz-adv-x="355" 
d="M355 366c-0.666992 -1.33301 -20.332 -38.6641 -58.999 -111.997c-16 -30.667 -32 -53.334 -48 -68.001c3.33301 -4.66699 7.66602 -7 12.999 -7c-8.66699 -9.33301 -15.167 -19.5 -19.5 -30.5s-8.83301 -16.5 -13.5 -16.5
c-101.333 -210.667 -152 -316.334 -152 -317.001c0 -4.66699 1.66699 -10.334 5 -17.001c-10.667 -8.66699 -17.334 -13 -20.001 -13c0 -5.33301 -0.666992 -10.333 -2 -15c-7.33301 -26 -26.666 -63.333 -57.999 -112h-33c-3.33301 6 -5.66602 11.667 -6.99902 17l132 324
l-92 381c5.33301 2 9.16602 3.66699 11.499 5s4.83301 2 7.5 2c16.667 0 36.667 -35.667 60 -107l61 -194c90 158 138 244.667 144 260c10.667 29.333 20.667 54 30 74h40v-54z" />
    <glyph glyph-name="z" unicode="z" horiz-adv-x="415" 
d="M415 48c-6.66699 0.666992 -12.833 1.16992 -18.5 1.50293s-11.167 0.5 -16.5 0.5c-17.333 0 -35.666 -0.333008 -54.999 -1l-57 -2c-11.333 0 -55.333 -9 -132 -27l-112 -27c-9.33301 0 -15.333 4.66699 -18 14s-4.33398 14.666 -5.00098 15.999l280 370v20
c-18 0 -31.167 0.833008 -39.5 2.5s-15.166 3.5 -20.499 5.5c-18 -12.667 -37 -21.334 -57 -26.001c-36 -9.33301 -76.333 -14 -121 -14c-12 0 -23 1.66699 -33 5c-15.333 5.33301 -23 12.333 -23 21c2 3.33301 3.83301 7.16602 5.5 11.499s4.5 13.833 8.5 28.5
c14.667 -4.66699 32.334 -7 53.001 -7c30.667 0 79.5 6.83301 146.5 20.5s111.5 20.5 133.5 20.5c17.333 0 28.666 -3 33.999 -9s9.66602 -17.667 12.999 -35l-273 -364c31.333 0 81.333 5.66699 150 17c36.667 6 67.667 9 93 9c20 0 31.5 -0.5 34.5 -1.5
s12.833 -7.16699 29.5 -18.5v-31z" />
    <glyph glyph-name="braceleft" unicode="{" horiz-adv-x="365" 
d="M365 762c-10.667 -3.33301 -18.667 -4.99805 -24 -4.99805c-2 0 -4.66699 1 -8 3s-8.66602 3 -15.999 3c-31.333 0 -54.333 -22 -69 -66c-12 -36 -18 -87.667 -18 -155c0 -46.667 -12 -83.334 -36 -110.001l-78 -53l34 -58.5c11.333 -19.667 18.166 -34.167 20.499 -43.5
s3.5 -20 3.5 -32c0 -14 -2 -39.667 -6 -77s-6 -66 -6 -86v-17c1.33301 -8 2 -13.667 2 -17c42.667 0 72 4.66699 88 14c8 4.66699 19.667 7 35 7c9.33301 0.666992 15 1 17 1c3.33301 0 7 -2.66699 11 -8c6.66699 -9.33301 12 -16.333 16 -21
c-8 -11.333 -19 -20.333 -33 -27c-25.333 -12.667 -60 -19 -104 -19c-19.333 0 -33 3.33301 -41 10s-19 10 -33 10c-5.33301 0 -8 2 -8 6c0.666992 3.33301 1 6.66602 1 9.99902s-0.666992 6.66602 -2 9.99902c-8.66699 19.333 -15.167 35.666 -19.5 48.999s-6.5 24 -6.5 32
c5.33301 19.333 9.83301 36.833 13.5 52.5s5.5 34.834 5.5 57.501c0 2.66699 -1 4 -3 4s-5.33301 -0.333008 -10 -1v11v35.5c0 11.667 0.333008 23.5 1 35.5c0 6.66699 -0.333008 10.334 -1 11.001l-62.5 30c-16.333 8 -24.5 17 -24.5 27c0 10.667 23.333 25.667 70 45
s70 49 70 89c4.66699 12.667 8 24.334 10 35.001c6.66699 33.333 10 74.333 10 123c14.667 29.333 26.667 51.333 36 66c29.333 44 56.333 66 81 66c20.667 0 36 -1.33301 46 -4s22.667 -12.334 38 -29.001v-14z" />
    <glyph glyph-name="bar" unicode="|" horiz-adv-x="150" 
d="M150 640c-4.66699 -38.667 -9.00098 -77.3359 -13.001 -116.003c-12 -108 -20.667 -194.667 -26 -260c-9.33301 -114 -14 -202.333 -14 -265c-19.333 -4.66699 -34.333 -7 -45 -7c-7.33301 0 -14 0.666992 -20 2c-13.333 3.33301 -20.666 5 -21.999 5
c0 10.667 -1.66699 17 -5 19c-1.33301 0 -2.33301 0.333008 -3 1c6.66699 30.667 11 59.334 13 86.001c4.66699 48 7 97.333 7 148c0 18.667 8 80 24 184l24 150c-0.666992 11.333 -1.5 26.333 -2.5 45s-1.5 29.334 -1.5 32.001c0 28.667 2.33301 56.334 7 83.001
s12.667 49 24 67l27 -12c9.33301 -4 18 -6.66699 26 -8v-154z" />
    <glyph glyph-name="braceright" unicode="}" horiz-adv-x="360" 
d="M360 368c-18 -18 -34.333 -27.002 -49 -27.002c-10 0 -20.667 4.66699 -32 14c-12 -19.333 -20.833 -39.166 -26.5 -59.499s-8.5 -38.833 -8.5 -55.5s1.5 -33.167 4.5 -49.5s6.5 -33.5 10.5 -51.5c0 -30 -6.33301 -59.167 -19 -87.5s-28.334 -42.5 -47.001 -42.5
c-4 0 -15 -6 -33 -18c-10 -6.66699 -19.333 -10 -28 -10c-20 0 -40 2.33301 -60 7c-34 8 -58.333 21 -73 39c14.667 14.667 24.667 22 30 22c6.66699 -5.33301 15.5 -10 26.5 -14s25.167 -6 42.5 -6c31.333 0 52.666 10.667 63.999 32c8.66699 16 13 42.667 13 80
c0 8.66699 -0.333008 23.334 -1 44.001s-1 36.667 -1 48c0 31.333 2.66699 59 8 83s16 46 32 66c-12.667 14 -22 27 -28 39c-8 16.667 -12 36 -12 58l26 95c17.333 64 26 101.333 26 112c0 32.667 -17.667 55.334 -53 68.001s-53 29 -53 49
c4 5.33301 6.33301 9.66602 7 12.999h53c46.667 -22.667 77.334 -42 92.001 -58c18.667 -20.667 28 -50 28 -88c0 -12 -7.66699 -39.333 -23 -82s-23 -78 -23 -106c0 -38.667 16 -64 48 -76c24.667 -9.33301 44.334 -22 59.001 -38z" />
    <glyph glyph-name="asciitilde" unicode="~" horiz-adv-x="417" 
d="M417 486c0 -29.333 -14.332 -69.333 -42.999 -120c-34 -60 -68.333 -90 -103 -90c-18.667 0 -31.334 3.33301 -38.001 10s-16 10 -28 10c-14 0 -23.667 21.667 -29 65c-7.33301 58 -11 87.333 -11 88c-8 -6 -37 -47 -87 -123c-16.667 -25.333 -35 -38 -55 -38
c-2.66699 0 -5 0.666992 -7 2c-6 3.33301 -10 5 -12 5v27c20 63.333 33.667 102.333 41 117c34.667 68.667 76.667 103 126 103c39.333 0 63 -27.333 71 -82c2.66699 -35.333 5.66699 -70.333 9 -105l14 -7c27.333 42.667 52 89.667 74 141c12 27.333 23.667 41 35 41
c8.66699 0 18 -5.5 28 -16.5s15 -20.167 15 -27.5z" />
    <glyph glyph-name="c128" horiz-adv-x="495" 
d="M495 740c0 -3.33301 -0.834961 -7.6709 -2.50195 -13.0039s-2.5 -9 -2.5 -11c-11.333 2.66699 -25.666 7.16699 -42.999 13.5s-28.333 9.5 -33 9.5c-4 0 -7.66699 -1 -11 -3l-60 -88c-40 -61.333 -60 -98.666 -60 -111.999c0 -5.33301 5.66699 -12.333 17 -21
c18 -14 32.333 -27.333 43 -40v-26c-27.333 -4 -50 -7.5 -68 -10.5s-35.667 -12.833 -53 -29.5v-14c37.333 -9.33301 57.333 -14.666 60 -15.999c8 -4 21.667 -16.333 41 -37v-14c-3.33301 -2 -29.833 -5.33301 -79.5 -10s-74.5 -47.667 -74.5 -129
c0 -28.667 9.33301 -56 28 -82c21.333 -30 46.333 -45 75 -45c22 0 36.667 4.33301 44 13s16.333 13 27 13s20 -3.66699 28 -11s12 -14.333 12 -21c0 -4.66699 -1.16699 -12.167 -3.5 -22.5s-3.5 -18.833 -3.5 -25.5c-19.333 0 -36 -1 -50 -3
c-2.66699 0 -6.33398 -1 -11.001 -3c-34.667 0 -71.667 13.667 -111 41l-115 98c3.33301 34 6.33301 70.667 9 110c0.666992 12.667 1.66699 28.667 3 48c0 8 -11.167 18.5 -33.5 31.5s-44.166 27.833 -65.499 44.5c16 10.667 42.167 17.167 78.5 19.5
s54.5 13.833 54.5 34.5c0 6 -3.66699 12.333 -11 19l-69 54c7.33301 6.66699 15.833 10.834 25.5 12.501s15.834 2.5 18.501 2.5h14c20 0 37 5.66699 51 17c21.333 17.333 43 51.333 65 102c16.667 36.667 39.334 70.334 68.001 101.001c37.333 39.333 73.666 59 108.999 59
c18 0 37.333 -6.16699 58 -18.5s31 -24.833 31 -37.5z" />
    <glyph glyph-name="exclamdown" unicode="&#xa1;" horiz-adv-x="280" 
d="M272 747c0 -12 -9.16699 -25.001 -27.5 -39.001s-34.5 -21 -48.5 -21c-8 0 -15 3.33301 -21 10s-9 14.334 -9 23.001c0 16 4.5 31.5 13.5 46.5s24.5 26.5 46.5 34.5c9.33301 3.33301 19.333 -1 30 -13s16 -25.667 16 -41zM212 560.999
c-7.33301 -30 -14.332 -56.002 -20.999 -78.002c-18 -60.667 -42.333 -130.667 -73 -210c-6 -15.333 -14 -59.666 -24 -132.999c-7.33301 -55.333 -26 -104.333 -56 -147c-10 30.667 -23.333 50.667 -40 60l16 80c12.667 62 25.334 117.667 38.001 167
c1.33301 6.66699 22.666 62.667 63.999 168c14.667 38 22 65.667 22 83c0 12.667 5.66699 26.334 17 41.001c7.33301 10 15.333 15 24 15c7.33301 0 14.666 -4.66699 21.999 -14s11 -20 11 -32z" />
    <glyph glyph-name="cent" unicode="&#xa2;" horiz-adv-x="423" 
d="M118 435c0 -4.66699 -2.83301 -14.834 -8.5 -30.501l-17.5 -48.5c0 -18.667 7 -34.667 21 -48c3.33301 -3.33301 18.666 -14 45.999 -32c4 12.667 8.33301 42.834 13 90.501s11.334 85.834 20.001 114.501c-16.667 -8.66699 -29 -15.334 -37 -20.001
c-24.667 -14 -37 -22.667 -37 -26zM245 798c24 -6 41.332 -17.502 51.999 -34.502s16 -37.5 16 -61.5c0 -25.333 -5.33301 -52.666 -16 -81.999l66 -16c22 -7.33301 42 -19.666 60 -36.999v-27c-22 0 -44.667 4.33301 -68 13c-12.667 4.66699 -21 7 -25 7
c-29.333 0 -46 -25.667 -50 -77c-6.66699 -81.333 -14 -132.666 -22 -153.999v-53c4.66699 -0.666992 8.83398 -1 12.501 -1h7.5c18 0 34 4.66699 48 14c7.33301 4.66699 15 7 23 7c12 0 22.333 -5 31 -15c6.66699 -8 10 -15 10 -21c0 -18 -14.333 -32.667 -43 -44
c-24 -9.33301 -48 -14 -72 -14c-6 0 -11.667 0.666992 -17 2c-12 -21.333 -21 -48.333 -27 -81c-12 -66.667 -23 -108 -33 -124l-48 22c-12 7.33301 -18 14.333 -18 21c0 15.333 5.33301 43 16 83c3.33301 13.333 8.66602 32 15.999 56c0 5.33301 -15.5 19.166 -46.5 41.499
s-48.167 33.5 -51.5 33.5c-7.33301 0 -20.166 17.667 -38.499 53s-27.5 61 -27.5 77c0 32.667 23 69 69 109l156 118c2.66699 32 4.66699 61.667 6 89c4 54.667 8.66699 86.667 14 96z" />
    <glyph glyph-name="sterling" unicode="&#xa3;" horiz-adv-x="468" 
d="M470 762c0 -10 -5.66602 -26.002 -16.999 -48.002c-6.66699 -13.333 -12.667 -20 -18 -20c-34 0 -51 11.333 -51 34c0 11.333 5 26 15 44c-6.66699 4 -14.334 8 -23.001 12s-14.334 6.66699 -17.001 8c-45.333 -67.333 -75.833 -137.166 -91.5 -209.499
s-26.834 -119.166 -33.501 -140.499c10.667 -1.33301 20 -2 28 -2h28.5c9.66699 0 19.834 0.333008 30.501 1c26 0 46.333 -2.66699 61 -8s22 -16.333 22 -33c0 -4.66699 -0.333008 -8.83398 -1 -12.501s-2 -7.5 -4 -11.5c-7.33301 0 -18.333 -1 -33 -3s-26 -3 -34 -3
c-62 0 -105 -18 -129 -54c-18.667 -28 -48 -109.333 -88 -244l39.5 -11.5c8.33301 -2.33301 14.5 -3.5 18.5 -3.5c2 0 5.5 0.5 10.5 1.5s9.5 1.5 13.5 1.5c30 0 51.333 5.66699 64 17c6.66699 6 13 9 19 9c5.33301 0 15 -8.66699 29 -26c6 -7.33301 14 -18.666 24 -33.999
c-8.66699 -3.33301 -48.167 -8.5 -118.5 -15.5s-117.833 -10.5 -142.5 -10.5c-0.666992 -0 -6 3.33301 -16 10s-25.667 10 -47 10l-7 27l119 309c-30.667 0 -55 3.33301 -73 10c-22.667 8.66699 -37.667 23 -45 43c28 4.66699 50.5 7.5 67.5 8.5s33.167 1.5 48.5 1.5
c8.66699 0 14 1 16 3c11.333 48.667 24.833 102 40.5 160s39.5 114.667 71.5 170c20 36 35.667 58.667 47 68c20.667 17.333 44.334 26 71.001 26c18.667 0 39.667 -7.66699 63 -23c28 -18 42 -38.333 42 -61z" />
    <glyph glyph-name="currency" unicode="&#xa4;" horiz-adv-x="490" 
d="M490 635c0 -7.33301 -6.66992 -20.666 -20.0029 -39.999c-15.333 -22.667 -33 -43.667 -53 -63c6 -7.33301 14 -22.833 24 -46.5s15 -43.167 15 -58.5c0 -17.333 -7 -43.166 -21 -77.499s-28.667 -59.5 -44 -75.5l48 -52c11.333 -12.667 17 -20.334 17 -23.001
c0 -13.333 -5.66699 -23.833 -17 -31.5s-23 -11.5 -35 -11.5l-46 33c-31.333 23.333 -51.333 40.666 -60 51.999c-10 -12 -19.667 -20.333 -29 -25s-19 -7 -29 -7c-7.33301 0 -13 0.666992 -17 2s-7.66699 3 -11 5c-30.667 0 -62.667 -22.667 -96 -68
c-16 -21.333 -33.333 -32 -52 -32c-10.667 0 -20.667 4.33301 -30 13s-14 17.667 -14 27c0 5.33301 13.333 25.666 40 60.999c13.333 17.333 20 33.333 20 48c0 8 -3.33301 15.333 -10 22c-14.667 15.333 -22 42 -22 80c0 18 4.5 40 13.5 66s21.833 48 38.5 66
c-35.333 26.667 -55.333 42.334 -60 47.001l-39 52v26c14.667 0 23.334 1 26.001 3s5 3.66699 7 5c14 0 32.333 -8.16699 55 -24.5l70 -49.5c8.66699 5.33301 20 10 34 14s29 6 45 6c54.667 0 98.334 16.667 131.001 50s58.334 50 77.001 50c6 0 14.833 -5.83301 26.5 -17.5
s17.5 -20.167 17.5 -25.5zM343.997 446c0.666992 7.33301 0.667969 13.334 0.000976562 18.001c-6 28 -29.333 42 -70 42c-28.667 0 -54.834 -18.167 -78.501 -54.5s-35.5 -69.833 -35.5 -100.5c0 -22.667 6.33301 -39.334 19 -50.001c10.667 -8.66699 24 -13 40 -13
c33.333 0 62.5 15.167 87.5 45.5s37.5 67.833 37.5 112.5z" />
    <glyph glyph-name="yen" unicode="&#xa5;" horiz-adv-x="455" 
d="M455 192c-28.667 -5.33301 -54.3389 -8.83398 -77.0059 -10.501s-45.334 -2.5 -68.001 -2.5h-34c-21.333 0 -34.333 -3.66699 -39 -11s-7 -28.666 -7 -63.999v-43c0 -26.667 -3.16699 -43.167 -9.5 -49.5s-19.5 -9.5 -39.5 -9.5s-33.667 6.16699 -41 18.5
s-11 30.166 -11 53.499c0 12.667 0.5 29.834 1.5 51.501s1.5 32.834 1.5 33.501c-12.667 2.66699 -22.667 4 -30 4c-6.66699 0 -13.667 -1.5 -21 -4.5s-14.666 -4.5 -21.999 -4.5c-9.33301 0 -19.333 4 -30 12c-14.667 10.667 -24.334 26 -29.001 46
c14 7.33301 46.333 14.666 97 21.999c31.333 4.66699 47 18.667 47 42c0 10.667 -10.667 18.167 -32 22.5s-52 6.5 -92 6.5c-1.33301 11.333 -2.66602 19.333 -3.99902 24s-4.66602 14.334 -9.99902 29.001c12 4.66699 30.333 9 55 13s48.334 6 71.001 6
c4 5.33301 6 10 6 14c0 7.33301 -9.66699 37 -29 89c-30.667 83.333 -50 137 -58 161c-22 67.333 -34.667 118 -38 152c62 -23.333 101.333 -66 118 -128c13.333 -49.333 33.333 -94.666 60 -135.999c8 9.33301 32 44 72 104c46.667 69.333 80 122.666 100 159.999l40 -13
c20 -6.66699 35.333 -13.334 46 -20.001c-6 -20 -36 -77 -90 -171c-51.333 -90 -87.333 -149.667 -108 -179c4.66699 -0.666992 9.83398 -1.16699 15.501 -1.5s9.5 -0.5 11.5 -0.5c10.667 0 22.334 1.66699 35.001 5s23.334 5 32.001 5c8 0 16.333 -2 25 -6
c30 -14 45.333 -21 46 -21v-47l-116 -16c-30 -8 -51 -29 -63 -63c20.667 -9.33301 39 -14 55 -14c10.667 0 21 1.33301 31 4c28 7.33301 46.667 11 56 11c27.333 0 46 -6 56 -18c0.666992 -0.666992 7.33398 -14.667 20.001 -42v-14z" />
    <glyph glyph-name="brokenbar" unicode="&#xa6;" horiz-adv-x="199" 
d="M199 722c0 -20.667 -4.5 -55.3311 -13.5 -103.998s-17.5 -87.667 -25.5 -117c-22 6.66699 -35 11 -39 13c-18.667 8 -28 18 -28 30c0 2.66699 8.66699 48 26 136c9.33301 47.333 14 86.666 14 117.999c4.66699 4.66699 8.66699 7 12 7c21.333 0 36.333 -9 45 -27
c6 -12.667 9 -31.334 9 -56.001zM133 260.003c-14 -38.667 -26.333 -81.667 -37 -129s-16 -89.333 -16 -126c-2.66699 0 -5.66699 -0.666992 -9 -2l-10 -4c-8.66699 0 -20 3.66699 -34 11c-17.333 9.33301 -26 19 -26 29c0 8.66699 11 57.334 33 146.001l33 131h33
c8 -8 14.667 -15 20 -21c8.66699 -10.667 13 -22.334 13 -35.001z" />
    <glyph glyph-name="section" unicode="&#xa7;" horiz-adv-x="328" 
d="M334 755c0 -2.66699 -1.00391 -7.00684 -3.00391 -13.0068s-3 -9.33301 -3 -10c-13.333 2 -24.166 4 -32.499 6s-16.5 4.33301 -24.5 7c-6.66699 0 -19.667 -10 -39 -30c-24 -25.333 -36 -50.666 -36 -75.999c0 -24.667 22 -59.667 66 -105s66 -92.666 66 -141.999
c0 -29.333 -6.66699 -54.666 -20 -75.999l-46 -62c8 -9.33301 15.333 -24.166 22 -44.499s10 -43.166 10 -68.499c0 -36.667 -12 -68 -36 -94c-10 -10.667 -30.667 -26.667 -62 -48h-93c-2.66699 4 -5 7 -7 9c0.666992 4 1 7.66699 1 11c-24.667 6.66699 -44 14.667 -58 24
c-4.66699 3.33301 -16.334 12.666 -35.001 27.999v27c10.667 -1.33301 28.334 -8.16602 53.001 -20.499s49.667 -18.5 75 -18.5c28.667 0 54.167 11.5 76.5 34.5s33.5 46.5 33.5 70.5c0 30 -26.667 66.667 -80 110s-80 80.333 -80 111c0 26.667 9 53 27 79
c14.667 21.333 41.334 49 80.001 83c-13.333 8.66699 -24.666 20.334 -33.999 35.001c-12.667 20 -19 41.333 -19 64c0 30.667 11 63.667 33 99c24.667 40 52 60 82 60c18.667 -6.66699 32.334 -12 41.001 -16c28 -13.333 42 -24.666 42 -33.999zM267.996 440.993
c-4.66699 4 -8.33496 7 -11.002 9c-8.66699 6 -16 9.66699 -22 11v20c-27.333 -24 -45.666 -40.667 -54.999 -50c-16 -16 -24 -32.333 -24 -49c0 -8 2.16699 -16.5 6.5 -25.5s10.833 -13.5 19.5 -13.5c16.667 0 34.334 8.66699 53.001 26c22 20.667 33 44.667 33 72z" />
    <glyph glyph-name="dieresis" unicode="&#xa8;" horiz-adv-x="397" 
d="M380 897c0 -16 -12.166 -34.499 -36.499 -55.499s-44.5 -31.5 -60.5 -31.5c-12.667 0 -30.334 6 -53.001 18c-14.667 8 -22 15.333 -22 22c0 22.667 14.333 45.667 43 69c25.333 20.667 47 31 65 31c9.33301 0 21 -4.33301 35 -13c8 -4.66699 15 -7 21 -7
c2 -4.66699 3.83301 -9.83398 5.5 -15.501s2.5 -11.5 2.5 -17.5zM188.001 890.001c0 -18.667 -10.332 -38.668 -30.999 -60.001s-42.334 -32 -65.001 -32c-16 0 -32.333 4 -49 12c-22 10.667 -33 24 -33 40c0 13.333 8.66699 30.333 26 51c20 23.333 40 35 60 35
c20.667 -3.33301 36 -6.33301 46 -9c30.667 -9.33301 46 -21.666 46 -36.999z" />
    <glyph glyph-name="copyright" unicode="&#xa9;" horiz-adv-x="535" 
d="M535 517l-0.00390625 -56.0049v-13c0 -36.667 -2.33301 -59.667 -7 -69c0 -75.333 -24 -150.666 -72 -225.999c-57.333 -90.667 -128 -136 -212 -136c-37.333 0 -75.833 12.833 -115.5 38.5s-60.5 47.5 -62.5 65.5c-8 1.33301 -14.667 -0.666992 -20 -6
c-8 16 -17.833 53 -29.5 111s-17.5 93.667 -17.5 107c0 26.667 6.66699 62.334 20 107.001l21 64c0.666992 6 -0.666016 9 -3.99902 9c-1.33301 0 -3.16602 -0.333008 -5.49902 -1s-4.16602 -1 -5.49902 -1c4.66699 4 8 8 10 12c7.33301 12.667 11 28.334 11 47.001l20 -6
c0 6 -0.166992 12.333 -0.5 19s-0.5 13.334 -0.5 20.001c0 18.667 21.667 49.334 65 92.001c54 53.333 111.667 80 173 80c62.667 0 116.334 -28 161.001 -84c37.333 -47.333 56 -94 56 -140c0 -10 -1.66699 -19 -5 -27c8 -4.66699 14.667 -7 20 -7zM434.996 474.995
c0 38 -11 86.002 -33 144.002c-26 69.333 -54.333 104 -85 104c-12.667 0 -27 -7.66699 -43 -23l-44 -51c-27.333 0 -55 -49.667 -83 -149c-24 -84.667 -36 -144.667 -36 -180v-38c0 -40.667 6 -73.334 18 -98.001c18 -36.667 54.333 -75.334 109 -116.001
c28 24.667 54.667 53.667 80 87c33.333 44 60 90.333 80 139c24.667 60.667 37 121 37 181zM388.996 510.997c-43.333 -10.667 -77.999 -35.999 -103.999 -75.999c-22.667 -34.667 -34 -71.667 -34 -111c0 -32.667 14.667 -49.834 44 -51.501s49.666 -12.5 60.999 -32.5
c-10 -10 -20.167 -16.667 -30.5 -20s-18.833 -5 -25.5 -5c-9.33301 0 -22 2.66699 -38 8c-35.333 12 -59 18 -71 18c-6 4.66699 -10.667 9 -14 13c-21.333 27.333 -32 69 -32 125c0 27.333 15.333 64 46 110c34 50.667 67 76 99 76c44.667 0 77.667 -18 99 -54z" />
    <glyph glyph-name="ordfeminine" unicode="&#xaa;" horiz-adv-x="320" 
d="M320 673c0 -26.667 -7 -75.0029 -21 -145.003c-6.66699 -33.333 -10 -58.666 -10 -75.999s2.16699 -32.166 6.5 -44.499s12.166 -24.166 23.499 -35.499h-45c-6.66699 11.333 -15 22.666 -25 33.999c-15.333 16 -24.666 26.667 -27.999 32l-54 -54
c-26 -25.333 -45.667 -38 -59 -38c-26.667 0 -51.667 11 -75 33c-20.667 19.333 -31 37 -31 53c0 27.333 12.167 71.333 36.5 132s52.5 113.334 84.5 158.001c38 53.333 72.667 80 104 80c20.667 -8.66699 36 -17 46 -25c31.333 -26 47 -60.667 47 -104zM234 708.997
c-34 -8.66699 -69.332 -54.334 -105.999 -137.001c-10.667 -24.667 -30.334 -78 -59.001 -160c54 52 95.667 107 125 165c36 70.667 49.333 121.334 40 152.001v-20z" />
    <glyph glyph-name="guillemotleft" unicode="&#xab;" horiz-adv-x="398" 
d="M220 573c0 -11.333 -13.667 -36.332 -41 -74.999l-91 -123c0 -3.33301 14.333 -23 43 -59s43 -60.667 43 -74c-3.33301 -8 -5.66602 -14.667 -6.99902 -20c-16.667 4.66699 -48.334 31.667 -95.001 81s-70 82 -70 98l77 109c53.333 72.667 85.666 109 96.999 109
c4.66699 0 13.334 -7.66699 26.001 -23c4 -4.66699 10 -12.334 18 -23.001zM286 387.001c0 -9.33301 15.332 -33.334 45.999 -72.001s46 -63 46 -73c0 -5.33301 -1.5 -10.166 -4.5 -14.499l-8.5 -12.5c-14 7.33301 -43.667 36.333 -89 87
c-50.667 56.667 -76 95.334 -76 116.001l72 87c49.333 58.667 77 88 83 88c9.33301 -8 16.333 -14.333 21 -19c14.667 -15.333 22 -28 22 -38c0 -6.66699 -13 -29.334 -39 -68.001c-29.333 -43.333 -53.666 -70.333 -72.999 -81z" />
    <glyph glyph-name="logicalnot" unicode="&#xac;" horiz-adv-x="458" 
d="M458 447c0 -16 -4.00098 -36.333 -12.001 -61l-34 -104l-26 -7c-2.66699 28.667 -5 46.667 -7 54s-3.33301 13.333 -4 18c0 1.33301 0.333008 3.66602 1 6.99902c4 21.333 7.33301 41.333 10 60c-18.667 4.66699 -37 7 -55 7c-12.667 0 -52 -6 -118 -18
c-33.333 -6 -63.666 -9 -90.999 -9c-26.667 0 -51.667 5 -75 15c-30 12.667 -45 29.667 -45 51c0 8.66699 4.66699 17.334 14 26.001s20.333 13 33 13h350c15.333 0 29 -4.66699 41 -14s18 -22 18 -38z" />
    <glyph glyph-name="minus" unicode="&#xad;" horiz-adv-x="292" 
d="M292 411c0 -24 -8.83398 -41.5 -26.501 -52.5s-53.834 -16.5 -108.501 -16.5c-8 0 -16.167 -0.166992 -24.5 -0.5s-17.166 -0.5 -26.499 -0.5c-40 0 -67.333 3.83301 -82 11.5s-22 18.5 -22 32.5c1.33301 3.33301 2 6 2 8c3.33301 15.333 5 31 5 47
c26.667 5.33301 52.334 9 77.001 11s51.667 3 81 3h42c29.333 0 50.5 -2.5 63.5 -7.5s19.5 -16.833 19.5 -35.5z" />
    <glyph glyph-name="registered" unicode="&#xae;" horiz-adv-x="458" 
d="M458 533c0 -26.667 -3.33105 -57.499 -9.99805 -92.499s-16.667 -76.167 -30 -123.5c-0.666992 -2 -3.33398 -13.333 -8.00098 -34l-6 -25c-6.66699 -18.667 -17.334 -41.667 -32.001 -69c-16.667 -30.667 -36.5 -60.5 -59.5 -89.5s-45.833 -52.5 -68.5 -70.5l-57 -42
h-33l-84 57c-24.667 19.333 -41.667 42.666 -51 69.999c-11.333 33.333 -17 83.666 -17 150.999c0 22.667 12.333 83.667 37 183s41 155 49 167c5.33301 8.66699 12 14.834 20 18.501s12.333 6.16699 13 7.5c12 29.333 32 61 60 95c38 46.667 72 70 102 70
c52.667 0 96 -30.333 130 -91c30 -54 45 -114.667 45 -182zM306.002 540.001c0 4 -0.666992 8.16797 -2 12.501l-5 15.5c-13.333 -4.66699 -26.333 -9 -39 -13c1.33301 -12 0 -24.333 -4 -37l-16 -34c14.667 6.66699 25.667 12 33 16c22 13.333 33 26.666 33 39.999z
M392.002 549.002c0 44.667 -6.66895 84.334 -20.002 119.001c-10.667 27.333 -26 51.333 -46 72c-18.667 -18.667 -41.667 -35.834 -69 -51.501s-46.333 -29.167 -57 -40.5c-24 -26 -51 -87 -81 -183s-45 -169 -45 -219c0 -60 4.33301 -106 13 -138s23.334 -48 44.001 -48
c23.333 0 49.333 13 78 39c21.333 19.333 38.333 39.333 51 60c-26.667 21.333 -43.167 39.5 -49.5 54.5s-11.833 47.5 -16.5 97.5c-14.667 -53.333 -22.5 -82.5 -23.5 -87.5s-4.16699 -26.5 -9.5 -64.5h-53c0 6.66699 -1.5 12 -4.5 16s-8.16699 9.66699 -15.5 17l119 442
c9.33301 0 21 0.833008 35 2.5s27.333 3.5 40 5.5c30 0 52.5 -10.333 67.5 -31s22.5 -49 22.5 -85c0 -64 -28.667 -103.333 -86 -118c-26.667 -6.66699 -40 -21.334 -40 -44.001l40 -172c28.667 56.667 52.334 115.334 71.001 176.001c23.333 76.667 35 137 35 181z" />
    <glyph glyph-name="macron" unicode="&#xaf;" horiz-adv-x="449" 
d="M15 543c-6.66699 5.33301 -11.001 10.834 -13.001 16.501s-3 12.167 -3 19.5c0 4 0.333008 9.83301 1 17.5s0.666992 13.167 0 16.5l386 12c24.667 -4.66699 41.334 -10 50.001 -16s13 -15.333 13 -28c0 -16 -12 -28.5 -36 -37.5s-55 -13.5 -93 -13.5h-247
c-6 -2.66699 -17.333 -1.33398 -34 3.99902c-5.33301 1.33301 -13.333 4.33301 -24 9z" />
    <glyph glyph-name="degree" unicode="&#xb0;" horiz-adv-x="260" 
d="M260 660c0 -32.667 -19.001 -65.333 -57.001 -98c-34.667 -30 -64 -45 -88 -45c-34 0 -62 15.333 -84 46c-19.333 27.333 -29 57.333 -29 90c0 30 17.167 62.167 51.5 96.5s66.833 51.5 97.5 51.5c22.667 0 45.334 -11.667 68.001 -35c27.333 -28.667 41 -64 41 -106z
M199.999 679.001c0 13.333 -6.83203 25.002 -20.499 35.002s-26.5 15 -38.5 15c-15.333 0 -32.333 -11.333 -51 -34s-28 -41.334 -28 -56.001c0 -8 5.33301 -16.333 16 -25c3.33301 -2.66699 8.66602 -6.33398 15.999 -11.001c18.667 0 41 8.5 67 25.5s39 33.833 39 50.5z
" />
    <glyph glyph-name="plusminus" unicode="&#xb1;" horiz-adv-x="421" 
d="M402 513c-14.667 -11.333 -27.499 -19.333 -38.499 -24s-21.167 -7 -30.5 -7c-8.66699 0 -16.334 2 -23.001 6c-2 1.33301 -4.33301 3.33301 -7 6c-24 0 -40.667 -5.16699 -50 -15.5s-17 -42.833 -23 -97.5c-4.66699 0 -10.5 -1.16699 -17.5 -3.5
s-11.167 -3.5 -12.5 -3.5c-10.667 0 -20.667 7.83301 -30 23.5s-14 32.5 -14 50.5c0 8 0.666992 14 2 18c-19.333 6.66699 -40 12 -62 16c-8 1.33301 -20.333 18 -37 50v33c5.33301 1.33301 11.833 2.33301 19.5 3s14.5 1 20.5 1c14 0 22.667 -0.166992 26 -0.5
s6.33301 -1.16602 9 -2.49902c24.667 0 41.5 11.667 50.5 35l26.5 70h19c26 -20.667 39 -41.334 39 -62.001c0 -8.66699 -2 -18.667 -6 -30c8.66699 -2.66699 15.5 -4.33398 20.5 -5.00098s9.83301 -1 14.5 -1c4 0 9.33301 1.16699 16 3.5s12.667 3.5 18 3.5
c20.667 0 35.667 -6 45 -18c2.66699 -3.33301 11 -19.666 25 -48.999zM421.001 239c0 -24 -21.666 -40.499 -64.999 -49.499s-132.666 -13.5 -267.999 -13.5c-6 0 -11.167 -0.166992 -15.5 -0.5s-7.83301 -0.5 -10.5 -0.5c-6.66699 0 -11.667 1.33301 -15 4l-48 56v47
c4 -2 20.167 -3.66699 48.5 -5s59.833 -2 94.5 -2c55.333 0 111.166 0.666992 167.499 2s87.166 2.66602 92.499 3.99902c6.66699 -9.33301 11.5 -16.333 14.5 -21s4.5 -11.667 4.5 -21z" />
    <glyph glyph-name="twosuperior" unicode="&#xb2;" horiz-adv-x="333" 
d="M333 451c0 -18.667 -8.66699 -31.666 -26 -38.999c-12.667 -5.33301 -32.334 -8 -59.001 -8c-6.66699 0 -17 0.333008 -31 1s-23.667 1 -29 1c-26 0 -39 -5 -39 -15c-2 -0.666992 -4.66699 -1.16699 -8 -1.5s-7.66602 -0.5 -12.999 -0.5c-7.33301 0 -24 0.333008 -50 1
s-46.333 1 -61 1l-9 27.5c-3.33301 10.333 -5 17.833 -5 22.5c43.333 39.333 83.666 81.333 120.999 126c41.333 49.333 67.333 98.333 78 147c-6 1.33301 -9 2.83301 -9 4.5s-2.66699 2.5 -8 2.5c-9.33301 0 -32.666 -18 -69.999 -54s-59 -60 -65 -72
c-17.333 6.66699 -28 11.667 -32 15c-10 7.33301 -15 16 -15 26c0 22 24.333 55 73 99s83.667 66 105 66s40 -10 56 -30s24 -42 24 -66c0 -40 -11 -78.167 -33 -114.5l-66 -107.5c9.33301 -2 20 -3 32 -3c10 0 25 1 45 3s34.667 3 44 3c12.667 0 22 -1 28 -3
c14.667 -4.66699 22 -15.334 22 -32.001z" />
    <glyph glyph-name="threesuperior" unicode="&#xb3;" horiz-adv-x="307" 
d="M307 531c0 -23.333 -13.5 -49.498 -40.5 -78.498s-49.833 -43.5 -68.5 -43.5c-12 -7.33301 -21.333 -12.666 -28 -15.999c-21.333 -10.667 -39.333 -16 -54 -16c-44 0 -72.333 8.33301 -85 25c-6.66699 8.66699 -13.334 13 -20.001 13v47
c26.667 -2.66699 48.167 -4.66699 64.5 -6s28.166 -2 35.499 -2c26.667 0 49.334 5.5 68.001 16.5s39.667 32.167 63 63.5c-14.667 14 -27.667 21 -39 21l-53 -9.5c-17.333 -3 -35 -4.5 -53 -4.5c-2 6.66699 -3.33301 11.667 -4 15c-2.66699 11.333 -4 19.666 -4 24.999
c0 12.667 26 33.667 78 63c34 18.667 61 46 81 82c-2 0.666992 -6.16699 3 -12.5 7s-10.833 6 -13.5 6c-20 0 -51.667 -16.333 -95 -49s-73.666 -49 -90.999 -49c-10 0 -18 5.16699 -24 15.5s-9 18.166 -9 23.499c0 11.333 27 34 81 68s94.333 51 121 51
c24.667 0 47.834 -6.5 69.501 -19.5s32.5 -30.833 32.5 -53.5l-10 -39c-9.33301 -28.667 -21 -55.334 -35 -80.001c13.333 -10.667 24.166 -23.5 32.499 -38.5s12.5 -27.5 12.5 -37.5z" />
    <glyph glyph-name="acute" unicode="&#xb4;" horiz-adv-x="228" 
d="M228 947c0 -21.333 -22.667 -44.666 -68 -69.999l-71 -33c-11.333 -12.667 -22.333 -23.334 -33 -32.001s-19.667 -13 -27 -13c-6.66699 0 -12.5 3.33301 -17.5 10s-7.5 15.334 -7.5 26.001c0 10 5.66699 20.667 17 32c20.667 20.667 59 46 115 76l26 20
c12 9.33301 21.667 14 29 14c9.33301 0 17.833 -2.83301 25.5 -8.5s11.5 -12.834 11.5 -21.501z" />
    <glyph glyph-name="mu" unicode="&#xb5;" horiz-adv-x="381" 
d="M381 439c0 -18.667 -4.33301 -49.334 -13 -92.001s-13 -82.334 -13 -119.001c-2.66699 -44 -4.33398 -77.333 -5.00098 -100c-4 -72 -6.33301 -112.333 -7 -121c-6.66699 -4.66699 -12.334 -7 -17.001 -7c-24 0 -39.167 11.333 -45.5 34l-17.5 65
c-4.66699 -8 -7 -13.333 -7 -16c0 -4 0.333008 -7.33301 1 -10c-3.33301 -1.33301 -6.66602 -2 -9.99902 -2c-2.66699 2 -5 3 -7 3c-10 -9.33301 -18 -16 -24 -20c-19.333 -13.333 -36.666 -20 -51.999 -20l-59 26c-18 -42 -35.333 -104.333 -52 -187
s-32.334 -165.667 -47.001 -249h-26c-13.333 6.66699 -23 11.834 -29 15.501s-14.333 9.83398 -25 18.501c5.33301 15.333 15.333 56.333 30 123c28.667 128.667 43 199.667 43 213c3.33301 9.33301 6.33301 18.333 9 27c15.333 52 32.333 126.333 51 223l36 192
c5.33301 22.667 15 34 29 34c17.333 0 31.5 -6.16699 42.5 -18.5s16.5 -27.166 16.5 -44.499c0 -9.33301 -11.667 -55 -35 -137c-11.333 -40 -17 -72.667 -17 -98c0 -3.33301 1.16699 -14 3.5 -32s3.5 -27.333 3.5 -28l13 -13c21.333 18 50 67.333 86 148
c30.667 68 50.334 117.667 59.001 149l10 78c4 10.667 14 16 30 16c14 0 25 -5.33301 33 -16s12 -22.334 12 -35.001z" />
    <glyph glyph-name="paragraph" unicode="&#xb6;" horiz-adv-x="453" 
d="M364 764c1.33301 10.667 8.66406 23.335 21.9971 38.002s26 22 38 22c5.33301 0 11.5 -5.83301 18.5 -17.5s10.5 -25.834 10.5 -42.501c0 -28.667 -13 -109.667 -39 -243l-73 -351l-39 -179c-2.66699 0 -5.16699 -1.16699 -7.5 -3.5s-5.16602 -3.5 -8.49902 -3.5
c-31.333 0 -49.666 7.66699 -54.999 23c-7.33301 22 -12.333 34 -15 36l34 152l67 313c26.667 129.333 42.334 214.666 47.001 255.999zM262.998 705.001c0 1.33301 -4.49902 3.16895 -13.499 5.50195s-13.5 4.5 -13.5 6.5c-26.667 -20 -46.334 -36.333 -59.001 -49
c-40 -38.667 -60 -70.334 -60 -95.001c0 -18.667 10.333 -38.334 31 -59.001l55 -49l30 108c20 74.667 30 118.667 30 132zM232.999 796.004c44 0 75 -7 93 -21c2.66699 -2 5.66699 -5.66699 9 -11c-14.667 -60 -27.167 -119.5 -37.5 -178.5s-21.833 -131.833 -34.5 -218.5
c-7.33301 -52 -15.666 -97.333 -24.999 -136c-14.667 -54 -26.334 -98.667 -35.001 -134l-8 -43c-4 -14.667 -12.333 -22 -25 -22c-12 0 -22.333 3.66699 -31 11c-13.333 12 -22.666 19 -27.999 21c14 14.667 26.5 57.334 37.5 128.001s22.833 135.667 35.5 195
c-7.33301 0 -13.333 0.333008 -18 1c-24.667 3.33301 -51 14.166 -79 32.499s-52.667 40.833 -74 67.5c-8 20 -12 45.667 -12 77c0 28.667 4 62.667 12 102c15.333 22 42.666 47 81.999 75c51.333 36 97.333 54 138 54z" />
    <glyph glyph-name="periodcentered" unicode="&#xb7;" horiz-adv-x="160" 
d="M160 408c0 -29.333 -7.33203 -52 -21.999 -68s-33 -24 -55 -24c-34 0 -57 9.33301 -69 28c-8 12.667 -12 33 -12 61c0 16.667 7 34.667 21 54s27.667 29 41 29c29.333 0 52.666 -7.33301 69.999 -22s26 -34 26 -58z" />
    <glyph glyph-name="periodcentered" unicode="&#x2219;" horiz-adv-x="160" 
d="M160 408c0 -29.333 -7.33203 -52 -21.999 -68s-33 -24 -55 -24c-34 0 -57 9.33301 -69 28c-8 12.667 -12 33 -12 61c0 16.667 7 34.667 21 54s27.667 29 41 29c29.333 0 52.666 -7.33301 69.999 -22s26 -34 26 -58z" />
    <glyph glyph-name="cedilla" unicode="&#xb8;" horiz-adv-x="338" 
d="M338 -251c0 -16.667 -2.50098 -32.001 -7.50098 -46.001s-11.167 -21 -18.5 -21c-10 -26.667 -25.333 -47.667 -46 -63c-24.667 -18.667 -57 -28 -97 -28c-31.333 0 -64.333 4 -99 12c-45.333 10.667 -68 24 -68 40c0 15.333 39.333 26.333 118 33s118 36.334 118 89.001
c0 12 -4 20 -12 24s-20 6 -36 6h-22c-7.33301 0 -14.666 -0.333008 -21.999 -1c-24.667 0 -42.667 3.66699 -54 11c-16 10 -24 28.667 -24 56c11.333 30.667 21 53.667 29 69c24.667 46 50 69 76 69c20.667 0 34.667 -2.5 42 -7.5s11 -15.5 11 -31.5
c0 -11.333 -4.33301 -26.333 -13 -45c-11.333 -23.333 -18 -39.333 -20 -48c56 0 91.667 -4.33301 107 -13c25.333 -14.667 38 -49.667 38 -105z" />
    <glyph glyph-name="onesuperior" unicode="&#xb9;" horiz-adv-x="234" 
d="M234 727l-59 -347.999h-46l-24 22c-11.333 12 -17 25.667 -17 41c6.66699 14 11 29 13 45c4.66699 30 7 64.667 7 104c5.33301 12 10.166 25.5 14.499 40.5s6.5 32.167 6.5 51.5l-45 -28c-16 -8 -28.667 -12 -38 -12c-8 0 -17.667 4.16699 -29 12.5
s-18 13.166 -20 14.499c14 20.667 25.333 36 34 46c26.667 31.333 48.334 47 65.001 47c12 9.33301 21.667 16 29 20c22 13.333 40.667 20 56 20c20 0 34.333 -8 43 -24c6.66699 -12.667 10 -30 10 -52z" />
    <glyph glyph-name="ordmasculine" unicode="&#xba;" horiz-adv-x="434" 
d="M170 651c-20.667 -18 -39.333 -40.667 -56 -68c-2.66699 -4.66699 -6 -11 -10 -19c0 -48 30 -72 90 -72c42 0 73.833 10.833 95.5 32.5s32.5 50.167 32.5 85.5c0 29.333 -5.16699 49.833 -15.5 61.5s-24.833 17.5 -43.5 17.5c-18 0 -37.333 -5 -58 -15
c-15.333 -7.33301 -27 -15 -35 -23zM303.001 792c38 -14 67.668 -34.998 89.001 -62.998c28 -36.667 42 -84 42 -142c0 -56.667 -23 -106.334 -69 -149.001c-41.333 -38.667 -84 -58 -128 -58c-46 0 -95 17 -147 51c-60 39.333 -90 83.666 -90 132.999
c0 64 30.667 120.333 92 169c55.333 44 111.666 66 168.999 66c16.667 0 30.667 -2.33301 42 -7z" />
    <glyph glyph-name="guillemotright" unicode="&#xbb;" horiz-adv-x="398" 
d="M398 401c0 -15.333 -23.501 -47.833 -70.501 -97.5s-78.5 -76.834 -94.5 -81.501c-2.66699 6.66699 -5 13.334 -7 20.001c0 12.667 14.333 37 43 73s43 56 43 60l-66 89c-44 59.333 -66 95.666 -66 108.999c8 10.667 14 18.334 18 23.001
c12.667 15.333 21.334 23 26.001 23c8 0 27 -18.667 57 -56c16 -20 41.667 -55 77 -105zM199.999 418c0 -21.333 -25.002 -60.001 -75.002 -116.001c-44.667 -50 -74.667 -79 -90 -87c-1.33301 2.66699 -3.83301 6.66699 -7.5 12s-5.5 10.333 -5.5 15
c0 10 15.333 34.333 46 73s46 62.667 46 72c-19.333 10 -43.666 37 -72.999 81c-26 38.667 -39 61.334 -39 68.001c0 12.667 9.66699 28 29 46l14 11c6.66699 0 34.334 -29 83.001 -87z" />
    <glyph glyph-name="onequarter" unicode="&#xbc;" horiz-adv-x="431" 
d="M220 743c0 -12 -4.00098 -28 -12.001 -48c-19.333 -48 -35.333 -91.667 -48 -131c-4 -15.333 -7.66699 -30.333 -11 -45c-4.66699 -14 -8.66699 -21 -12 -21c-5.33301 0 -12 4 -20 12c-11.333 10.667 -17 23.334 -17 38.001c0 2.66699 1.66699 10 5 22l29 99
c-18.667 4.66699 -34 7 -46 7c-2 13.333 -3.83301 22.666 -5.5 27.999s-2.5 9.33301 -2.5 12c0 6 14.833 21.833 44.5 47.5s45.834 38.5 48.501 38.5c14.667 0 26.667 -8.66699 36 -26c7.33301 -14 11 -25 11 -33zM423.999 792l-369.001 -829h-14
c-16 10 -26.333 17.667 -31 23c-1.33301 2 -4 6.66699 -8 14l376 841h20c4.66699 -6 8.83398 -12.167 12.501 -18.5s8.16699 -16.5 13.5 -30.5zM430.998 154c-2.66699 -3.33301 -4.33203 -6.00293 -4.99902 -8.00293s-1.33398 -3.66699 -2.00098 -5
c-5.33301 0.666992 -10.666 2 -15.999 4s-12.333 3 -21 3c-20 0 -33 -14.333 -39 -43c-9.33301 -42 -17 -67.333 -23 -76c-14 14 -24 26.167 -30 36.5s-9 18.833 -9 25.5c0 6 3 13 9 21s9 14.333 9 19c0 5.33301 -1.66699 11 -5 17c-18 10.667 -32.667 21.5 -44 32.5
s-17 24.167 -17 39.5c0 3.33301 3.5 18.333 10.5 45l23.5 87h19c6 -8.66699 10.333 -18.167 13 -28.5s4 -20.166 4 -29.499c0 -11.333 -2.66699 -25.666 -8 -42.999c-2 -7.33301 -4.66699 -15.333 -8 -24l20 -13c12.667 14.667 24.167 33.667 34.5 57s20.833 55 31.5 95
c10 -4 20.167 -11.833 30.5 -23.5s15.5 -22.5 15.5 -32.5c-8 -11.333 -13.667 -20.666 -17 -27.999c-11.333 -22 -17 -41.333 -17 -58c0 -6 2.33301 -10.667 7 -14c15.333 -9.33301 26.666 -28 33.999 -56z" />
    <glyph glyph-name="onehalf" unicode="&#xbd;" horiz-adv-x="403" 
d="M225 708c0 -14.667 -6.33301 -53.333 -19 -116s-24 -106.667 -34 -132c-20 9.33301 -32.333 16.333 -37 21c-8 7.33301 -12 17.666 -12 30.999c0 16 9.66699 56 29 120c-9.33301 2.66699 -18.5 5.83398 -27.5 9.50098s-17.167 9.16699 -24.5 16.5v20
c25.333 8.66699 40.833 18.167 46.5 28.5s16.5 20.833 32.5 31.5h39c2 -1.33301 3.66699 -3.5 5 -6.5s2 -10.833 2 -23.5zM403 777.001c0 -10 -16.666 -54.668 -49.999 -134.001c-55.333 -131.333 -91.333 -218.666 -108 -261.999c-14 -35.333 -27.667 -68 -41 -98l-45 -100
c-18 -40.667 -39 -82.667 -63 -126c-26.667 -48 -43.334 -72 -50.001 -72l-45 13c26 34 66 111.667 120 233l143 335c53.333 126 91 207.333 113 244l16.5 -16c6.33301 -6 9.5 -11.667 9.5 -17zM403.001 11c-16 0.666992 -24.999 0.999023 -26.999 0.999023
s-3.5 -1.33301 -4.5 -4s-3.5 -6 -7.5 -10h-139c-4.66699 10 -11.334 19 -20.001 27l55 74.5c16.667 23 33.667 48.5 51 76.5l-7 60l-17 -17l-16 -16c-2.66699 0 -6.5 0.666992 -11.5 2s-12.167 2.66602 -21.5 3.99902c-4.66699 4 -7 7.66699 -7 11
c0 5.33301 10.333 20.5 31 45.5s35.667 37.5 45 37.5c10.667 0 23 -10.333 37 -31c16.667 -25.333 25 -53.666 25 -84.999c0 -14 -5.66699 -30.833 -17 -50.5l-35 -59.5c8.66699 -2 17.667 -3.83301 27 -5.5s16 -2.5 20 -2.5c3.33301 0 7 0.333008 11 1
c0 -1.33301 0.333008 -2.66602 1 -3.99902c3.33301 -12.667 12.333 -31 27 -55z" />
    <glyph glyph-name="threequarters" unicode="&#xbe;" horiz-adv-x="410" 
d="M238 716c0 -28.667 -5.66602 -51.667 -16.999 -69c-6 -9.33301 -20.333 -24 -43 -44c9.33301 -12.667 15 -20.667 17 -24s3 -8 3 -14v-15c0 -27.333 -6.33301 -51 -19 -71c-17.333 -27.333 -41.666 -41 -72.999 -41c-14.667 0 -30.334 4.33301 -47.001 13
c-22 11.333 -33 24.666 -33 39.999c0 3.33301 0.666992 6.5 2 9.5s3 6.16699 5 9.5c6 0.666992 10.333 1 13 1c11.333 0 23 -2.66699 35 -8c7.33301 -3.33301 13 -5 17 -5c11.333 0 23 6.33301 35 19c7.33301 8 11 15 11 21c0 12 -6 22.667 -18 32
c-26.667 20.667 -40 35 -40 43c0 12 16.333 24.333 49 37s49 29 49 49c0 4.66699 -1.83301 10.334 -5.5 17.001s-5.83398 10.667 -6.50098 12c-14.667 -10.667 -26.167 -19.5 -34.5 -26.5s-16.833 -15.833 -25.5 -26.5h-19c-5.33301 9.33301 -10.333 18.666 -15 27.999
c0 7.33301 11.5 24.333 34.5 51s40.5 40 52.5 40c20.667 0 38 -7.66699 52 -23s21 -33.666 21 -54.999zM416.001 778c0 -12.667 -12 -39.668 -36 -81.001c-48 -82.667 -74.667 -129 -80 -139c-34.667 -64.667 -62 -126.667 -82 -186
c-24.667 -74.667 -45.334 -130.334 -62.001 -167.001l-50 -111c-8.66699 -24 -17 -44.333 -25 -61c-16.667 -34 -30.667 -51 -42 -51c-7.33301 0 -15.666 4.33301 -24.999 13s-14 17.667 -14 27c12 34.667 24 66.334 36 95.001
c31.333 76.667 78.666 181.334 141.999 314.001l96 206c44.667 90.667 81 152 109 184c10.667 -7.33301 18.834 -14.5 24.501 -21.5s8.5 -14.167 8.5 -21.5zM410.001 141.999c-2.66699 -3.33301 -5.83496 -6.99902 -9.50195 -10.999s-8.16699 -6 -13.5 -6
s-13.666 3 -24.999 9l-14 -29c-8 -55.333 -19.667 -83 -35 -83c-4 2 -8.33301 4 -13 6c-10 4.66699 -22 7 -36 7v20c4 4 7.66699 10 11 18s6.16602 17.5 8.49902 28.5s3.5 18.833 3.5 23.5c0 10 -6.66699 18 -20 24c-20.667 8.66699 -37 19 -49 31
c4.66699 8.66699 9.33398 21 14.001 37c9.33301 34 22.333 64.667 39 92c12.667 -6 21.334 -12 26.001 -18s7 -13 7 -21c0 -6 -2.66699 -15.667 -8 -29s-8 -23 -8 -29c0 -7.33301 3 -13.666 9 -18.999c6 6 12.667 16 20 30c24 46 42.333 78.667 55 98
c13.333 -8.66699 22.833 -16.167 28.5 -22.5s8.5 -12.5 8.5 -18.5c0 -6.66699 -3.66699 -18 -11 -34c-12 -26.667 -20.667 -47.334 -26 -62.001c0.666992 -6 6.5 -12.333 17.5 -19s17.833 -14.334 20.5 -23.001z" />
    <glyph glyph-name="questiondown" unicode="&#xbf;" horiz-adv-x="412" 
d="M5 130c0 62 6.33301 107.831 19 137.498s39.667 66.5 81 110.5c55.333 58.667 98.666 111 129.999 157c34.667 50.667 54 76 58 76c4.66699 0 13.5 -6.16699 26.5 -18.5s19.5 -21.5 19.5 -27.5c0 -14 -20.333 -48 -61 -102c-29.333 -38.667 -67.333 -85.667 -114 -141
c-42.667 -50.667 -64.667 -77.5 -66 -80.5s-2.33301 -7.5 -3 -13.5s-1 -13 -1 -21v-18c0 -6.66699 -0.5 -10.5 -1.5 -11.5s-7.16699 -9.16699 -18.5 -24.5c-6 -8 -9 -12.333 -9 -13c0 -25.333 6.33301 -47.833 19 -67.5s30 -29.5 52 -29.5
c31.333 0 72.666 26.667 123.999 80s81.333 80 90 80c10.667 0 19.667 -2.33301 27 -7c8.66699 -8 16 -14.333 22 -19c-8.66699 -14 -17 -23.667 -25 -29c-4 -3.33301 -9 -4.66602 -15 -3.99902c-7.33301 -26 -18 -48.833 -32 -68.5s-38.667 -38.167 -74 -55.5l-100 -43
c-6 4.66699 -11.333 8 -16 10c-15.333 6.66699 -35.666 10 -60.999 10c-4 0 -8.16699 3 -12.5 9s-8.16602 9.66699 -11.499 11l-40 16c-4.66699 4.66699 -7 20.334 -7 47.001v50zM279 757.998c0 12.667 7 26 21 40s29.333 21 46 21c8.66699 0 21 -8.66699 37 -26
s24 -32.333 24 -45c0 -14.667 -5.66699 -24 -17 -28c-6 -2 -18.333 -3 -37 -3c-20 0 -37.333 3 -52 9s-22 16.667 -22 32z" />
    <glyph glyph-name="Agrave" unicode="&#xc0;" 
d="M317 906c0 -24 -8.33301 -35.999 -25 -35.999c-7.33301 0 -16.333 4.33301 -27 13l-33 32c-24 9.33301 -47.333 20.333 -70 33c-46 26 -69 49.333 -69 70c0 9.33301 3.66699 16.666 11 21.999s16 8 26 8c6.66699 0 16 -4.66699 28 -14c16 -12 25 -18.667 27 -20
c56.667 -30 95 -55.333 115 -76c11.333 -11.333 17 -22 17 -32zM416 60.001c-8 -8.66699 -13.0029 -15.333 -15.0029 -20s-3.33301 -7 -4 -7c-1.33301 0 -4.16602 0.333008 -8.49902 1s-9.83301 1 -16.5 1c-11.333 0 -19.166 0.5 -23.499 1.5s-8.5 4.5 -12.5 10.5
c-7.33301 50 -12.666 88.667 -15.999 116c-11.333 86 -17 140.667 -17 164c0 1.33301 -0.666992 4.33301 -2 9c-3.33301 12.667 -5 32 -5 58c-4.66699 2 -9.33398 4.33301 -14.001 7l-93 -20c-0.666992 0 -10.334 -25.333 -29.001 -76
c-25.333 -68.667 -43.666 -122.334 -54.999 -161.001c-19.333 -65.333 -29 -113.333 -29 -144c-16 0 -27 -0.833008 -33 -2.5s-11 -3.16699 -15 -4.5c-5.33301 0 -9.33301 0.666992 -12 2c-5.33301 6 -10 10 -14 12c27.333 96.667 53 181.334 77 254.001l46 138
c10.667 34 16 60.333 16 79c12.667 38.667 23.834 76.667 33.501 114s14.5 65 14.5 83c0 6 9.83301 30.833 29.5 74.5s34.167 65.5 43.5 65.5c8.66699 0 16.667 -0.833008 24 -2.5s15 -3.16699 23 -4.5c5.33301 -34 10 -69 14 -105s6 -67.333 6 -94
c6 -58 11 -104.333 15 -139c12 -99.333 25 -182.333 39 -249c5.33301 -28 9 -58.5 11 -91.5s9.33301 -56.167 22 -69.5zM288.997 441.002c-3.33301 7.33301 -8.50098 44.5 -15.501 111.5s-10.5 105.5 -10.5 115.5l-60 -234c12.667 0 27.334 1.16699 44.001 3.5
s30.667 3.5 42 3.5z" />
    <glyph glyph-name="Aacute" unicode="&#xc1;" 
d="M453 1018c0 -21.333 -22.667 -44.666 -68 -69.999l-71 -33c-11.333 -12.667 -22.333 -23.334 -33 -32.001s-19.667 -13 -27 -13c-6.66699 0 -12.5 3.33301 -17.5 10s-7.5 15.334 -7.5 26.001c0 10 5.66699 20.667 17 32c20.667 20.667 59 46 115 76l26 20
c12 9.33301 21.667 14 29 14c9.33301 0 17.833 -2.83301 25.5 -8.5s11.5 -12.834 11.5 -21.501zM416 60c-8 -8.66699 -13.0029 -15.333 -15.0029 -20s-3.33301 -7 -4 -7c-1.33301 0 -4.16602 0.333008 -8.49902 1s-9.83301 1 -16.5 1c-11.333 0 -19.166 0.5 -23.499 1.5
s-8.5 4.5 -12.5 10.5c-7.33301 50 -12.666 88.667 -15.999 116c-11.333 86 -17 140.667 -17 164c0 1.33301 -0.666992 4.33301 -2 9c-3.33301 12.667 -5 32 -5 58c-4.66699 2 -9.33398 4.33301 -14.001 7l-93 -20c-0.666992 0 -10.334 -25.333 -29.001 -76
c-25.333 -68.667 -43.666 -122.334 -54.999 -161.001c-19.333 -65.333 -29 -113.333 -29 -144c-16 0 -27 -0.833008 -33 -2.5s-11 -3.16699 -15 -4.5c-5.33301 0 -9.33301 0.666992 -12 2c-5.33301 6 -10 10 -14 12c27.333 96.667 53 181.334 77 254.001l46 138
c10.667 34 16 60.333 16 79c12.667 38.667 23.834 76.667 33.501 114s14.5 65 14.5 83c0 6 9.83301 30.833 29.5 74.5s34.167 65.5 43.5 65.5c8.66699 0 16.667 -0.833008 24 -2.5s15 -3.16699 23 -4.5c5.33301 -34 10 -69 14 -105s6 -67.333 6 -94
c6 -58 11 -104.333 15 -139c12 -99.333 25 -182.333 39 -249c5.33301 -28 9 -58.5 11 -91.5s9.33301 -56.167 22 -69.5zM288.997 441.001c-3.33301 7.33301 -8.50098 44.5 -15.501 111.5s-10.5 105.5 -10.5 115.5l-60 -234c12.667 0 27.334 1.16699 44.001 3.5
s30.667 3.5 42 3.5z" />
    <glyph glyph-name="Acircumflex" unicode="&#xc2;" 
d="M416 60c-8 -8.66699 -13.0029 -15.333 -15.0029 -20s-3.33301 -7 -4 -7c-1.33301 0 -4.16602 0.333008 -8.49902 1s-9.83301 1 -16.5 1c-11.333 0 -19.166 0.5 -23.499 1.5s-8.5 4.5 -12.5 10.5c-7.33301 50 -12.666 88.667 -15.999 116c-11.333 86 -17 140.667 -17 164
c0 1.33301 -0.666992 4.33301 -2 9c-3.33301 12.667 -5 32 -5 58c-4.66699 2 -9.33398 4.33301 -14.001 7l-93 -20c-0.666992 0 -10.334 -25.333 -29.001 -76c-25.333 -68.667 -43.666 -122.334 -54.999 -161.001c-19.333 -65.333 -29 -113.333 -29 -144
c-16 0 -27 -0.833008 -33 -2.5s-11 -3.16699 -15 -4.5c-5.33301 0 -9.33301 0.666992 -12 2c-5.33301 6 -10 10 -14 12c27.333 96.667 53 181.334 77 254.001l46 138c10.667 34 16 60.333 16 79c12.667 38.667 23.834 76.667 33.501 114s14.5 65 14.5 83
c0 6 9.83301 30.833 29.5 74.5s34.167 65.5 43.5 65.5c8.66699 0 16.667 -0.833008 24 -2.5s15 -3.16699 23 -4.5c5.33301 -34 10 -69 14 -105s6 -67.333 6 -94c6 -58 11 -104.333 15 -139c12 -99.333 25 -182.333 39 -249c5.33301 -28 9 -58.5 11 -91.5
s9.33301 -56.167 22 -69.5zM288.997 441.001c-3.33301 7.33301 -8.50098 44.5 -15.501 111.5s-10.5 105.5 -10.5 115.5l-60 -234c12.667 0 27.334 1.16699 44.001 3.5s30.667 3.5 42 3.5zM427.996 801.001l-27.001 -0.000976562c-44.667 27.333 -74.667 47 -90 59
c-21.333 20.667 -53.666 47.667 -96.999 81c-17.333 -14 -44 -34.333 -80 -61c-46 -34 -70.667 -51 -74 -51c-6 0 -16.333 4.83301 -31 14.5s-22 17.834 -22 24.501c0 10 26.667 34.333 80 73c19.333 14 41 34.333 65 61c16 18 28.667 27 38 27c20 0 47.333 -14 82 -42
c42 -33.333 94 -86.333 156 -159v-27z" />
    <glyph glyph-name="Atilde" unicode="&#xc3;" 
d="M416 60c-8 -8.66699 -13.0029 -15.333 -15.0029 -20s-3.33301 -7 -4 -7c-1.33301 0 -4.16602 0.333008 -8.49902 1s-9.83301 1 -16.5 1c-11.333 0 -19.166 0.5 -23.499 1.5s-8.5 4.5 -12.5 10.5c-7.33301 50 -12.666 88.667 -15.999 116c-11.333 86 -17 140.667 -17 164
c0 1.33301 -0.666992 4.33301 -2 9c-3.33301 12.667 -5 32 -5 58c-4.66699 2 -9.33398 4.33301 -14.001 7l-93 -20c-0.666992 0 -10.334 -25.333 -29.001 -76c-25.333 -68.667 -43.666 -122.334 -54.999 -161.001c-19.333 -65.333 -29 -113.333 -29 -144
c-16 0 -27 -0.833008 -33 -2.5s-11 -3.16699 -15 -4.5c-5.33301 0 -9.33301 0.666992 -12 2c-5.33301 6 -10 10 -14 12c27.333 96.667 53 181.334 77 254.001l46 138c10.667 34 16 60.333 16 79c12.667 38.667 23.834 76.667 33.501 114s14.5 65 14.5 83
c0 6 9.83301 30.833 29.5 74.5s34.167 65.5 43.5 65.5c8.66699 0 16.667 -0.833008 24 -2.5s15 -3.16699 23 -4.5c5.33301 -34 10 -69 14 -105s6 -67.333 6 -94c6 -58 11 -104.333 15 -139c12 -99.333 25 -182.333 39 -249c5.33301 -28 9 -58.5 11 -91.5
s9.33301 -56.167 22 -69.5zM288.997 441.001c-3.33301 7.33301 -8.50098 44.5 -15.501 111.5s-10.5 105.5 -10.5 115.5l-60 -234c12.667 0 27.334 1.16699 44.001 3.5s30.667 3.5 42 3.5zM417.996 986.001c0 -22.667 -18.001 -49 -54.001 -79s-67 -45 -93 -45
c-11.333 0 -27.333 8.83301 -48 26.5l-63 55.5c-7.33301 0 -21.333 -8.16699 -42 -24.5l-62 -49.5c-12 5.33301 -20.667 9.33301 -26 12c-17.333 9.33301 -26 17.333 -26 24c0 20.667 16.5 45.5 49.5 74.5s61.833 43.5 86.5 43.5c20.667 0 39.334 -9.66699 56.001 -29
l51 -65c18 0 43 16.667 75 50s50.667 50 56 50c9.33301 -6.66699 16 -11.667 20 -15c13.333 -11.333 20 -21 20 -29z" />
    <glyph glyph-name="Adieresis" unicode="&#xc4;" 
d="M416 60c-8 -8.66699 -13.0029 -15.333 -15.0029 -20s-3.33301 -7 -4 -7c-1.33301 0 -4.16602 0.333008 -8.49902 1s-9.83301 1 -16.5 1c-11.333 0 -19.166 0.5 -23.499 1.5s-8.5 4.5 -12.5 10.5c-7.33301 50 -12.666 88.667 -15.999 116c-11.333 86 -17 140.667 -17 164
c0 1.33301 -0.666992 4.33301 -2 9c-3.33301 12.667 -5 32 -5 58c-4.66699 2 -9.33398 4.33301 -14.001 7l-93 -20c-0.666992 0 -10.334 -25.333 -29.001 -76c-25.333 -68.667 -43.666 -122.334 -54.999 -161.001c-19.333 -65.333 -29 -113.333 -29 -144
c-16 0 -27 -0.833008 -33 -2.5s-11 -3.16699 -15 -4.5c-5.33301 0 -9.33301 0.666992 -12 2c-5.33301 6 -10 10 -14 12c27.333 96.667 53 181.334 77 254.001l46 138c10.667 34 16 60.333 16 79c12.667 38.667 23.834 76.667 33.501 114s14.5 65 14.5 83
c0 6 9.83301 30.833 29.5 74.5s34.167 65.5 43.5 65.5c8.66699 0 16.667 -0.833008 24 -2.5s15 -3.16699 23 -4.5c5.33301 -34 10 -69 14 -105s6 -67.333 6 -94c6 -58 11 -104.333 15 -139c12 -99.333 25 -182.333 39 -249c5.33301 -28 9 -58.5 11 -91.5
s9.33301 -56.167 22 -69.5zM288.997 441.001c-3.33301 7.33301 -8.50098 44.5 -15.501 111.5s-10.5 105.5 -10.5 115.5l-60 -234c12.667 0 27.334 1.16699 44.001 3.5s30.667 3.5 42 3.5zM439.996 977.001c0 -16 -12.166 -34.499 -36.499 -55.499s-44.5 -31.5 -60.5 -31.5
c-12.667 0 -30.334 6 -53.001 18c-14.667 8 -22 15.333 -22 22c0 22.667 14.333 45.667 43 69c25.333 20.667 47 31 65 31c9.33301 0 21 -4.33301 35 -13c8 -4.66699 15 -7 21 -7c2 -4.66699 3.83301 -9.83398 5.5 -15.501s2.5 -11.5 2.5 -17.5zM247.997 970.002
c0 -18.667 -10.332 -38.668 -30.999 -60.001s-42.334 -32 -65.001 -32c-16 0 -32.333 4 -49 12c-22 10.667 -33 24 -33 40c0 13.333 8.66699 30.333 26 51c20 23.333 40 35 60 35c20.667 -3.33301 36 -6.33301 46 -9c30.667 -9.33301 46 -21.666 46 -36.999z" />
    <glyph glyph-name="Aring" unicode="&#xc5;" 
d="M416 60c-8 -8.66699 -13.0029 -15.333 -15.0029 -20s-3.33301 -7 -4 -7c-1.33301 0 -4.16602 0.333008 -8.49902 1s-9.83301 1 -16.5 1c-11.333 0 -19.166 0.5 -23.499 1.5s-8.5 4.5 -12.5 10.5c-7.33301 50 -12.666 88.667 -15.999 116c-11.333 86 -17 140.667 -17 164
c0 1.33301 -0.666992 4.33301 -2 9c-3.33301 12.667 -5 32 -5 58c-4.66699 2 -9.33398 4.33301 -14.001 7l-93 -20c-0.666992 0 -10.334 -25.333 -29.001 -76c-25.333 -68.667 -43.666 -122.334 -54.999 -161.001c-19.333 -65.333 -29 -113.333 -29 -144
c-16 0 -27 -0.833008 -33 -2.5s-11 -3.16699 -15 -4.5c-5.33301 0 -9.33301 0.666992 -12 2c-5.33301 6 -10 10 -14 12c27.333 96.667 53 181.334 77 254.001l46 138c10.667 34 16 60.333 16 79c12.667 38.667 23.834 76.667 33.501 114s14.5 65 14.5 83
c0 6 9.83301 30.833 29.5 74.5s34.167 65.5 43.5 65.5c8.66699 0 16.667 -0.833008 24 -2.5s15 -3.16699 23 -4.5c5.33301 -34 10 -69 14 -105s6 -67.333 6 -94c6 -58 11 -104.333 15 -139c12 -99.333 25 -182.333 39 -249c5.33301 -28 9 -58.5 11 -91.5
s9.33301 -56.167 22 -69.5zM288.997 441.001c-3.33301 7.33301 -8.50098 44.5 -15.501 111.5s-10.5 105.5 -10.5 115.5l-60 -234c12.667 0 27.334 1.16699 44.001 3.5s30.667 3.5 42 3.5zM378.996 995.001c0 -25.333 -15.333 -51.332 -46 -77.999
c-28 -24 -51.333 -36 -70 -36c-28 0 -50.167 11.167 -66.5 33.5s-24.5 47.166 -24.5 74.499c0 24.667 14 50.667 42 78s54 41 78 41c18 0 36 -9.33301 54 -28c22 -22.667 33 -51 33 -85zM330.996 1010c0 10.667 -5.5 20 -16.5 28s-21.167 12 -30.5 12
c-12 0 -25.667 -9 -41 -27s-23 -33 -23 -45c0 -6 4.33301 -12.667 13 -20c2.66699 -2 7 -5 13 -9c15.333 0 33.333 6.83301 54 20.5s31 27.167 31 40.5z" />
    <glyph glyph-name="AE" unicode="&#xc6;" horiz-adv-x="476" 
d="M225 430c0 28.667 0.499023 51.833 1.49902 69.5s2.16699 33.167 3.5 46.5l-27 -62c-5.33301 -13.333 -10.666 -31.333 -15.999 -54h38zM262.999 72.999c18.667 0 37 0.832031 55 2.49902l60 5.5c14.667 0 25.667 -3 33 -9s11 -16.333 11 -31c0 -6 -1.66699 -12 -5 -18
c-6 -8.66699 -10.667 -16 -14 -22h-191c-4 14 -6.5 26 -7.5 36s-1.5 23.333 -1.5 40v10c3.33301 42.667 6 74.667 8 96c6 63.333 10.667 99.333 14 108v60c-2 0.666992 -6.66699 1 -14 1c-15.333 -0.666992 -24.333 -1 -27 -1c-15.333 0 -30.333 -31.333 -45 -94l-39 -184
c-9.33301 -45.333 -14.666 -70 -15.999 -74c-9.33301 -25.333 -24.333 -38 -45 -38c-12 0 -20.333 2.33301 -25 7s-9.33398 12.334 -14.001 23.001l158 598l73 202c16.667 24 80.334 36 191.001 36c10 0 19.333 -2 28 -6l26 -15v-46c-24 -8 -44.833 -13.5 -62.5 -16.5
s-35.834 -4.5 -54.501 -4.5h-25c-8.66699 0 -17.667 0.333008 -27 1h-9c-3.33301 -56 -6.5 -112.333 -9.5 -169s-4.5 -101.334 -4.5 -134.001c38.667 0 70.667 1.33301 96 4l73 12c6 0 9.83301 -6 11.5 -18s2.5 -27.667 2.5 -47l-126 -24c-32.667 -6.66699 -49 -22 -49 -46
c0 -43.333 -3.16699 -84.666 -9.5 -123.999z" />
    <glyph glyph-name="Ccedilla" unicode="&#xc7;" horiz-adv-x="410" 
d="M410 147c0 -16 -18.6689 -42.668 -56.002 -80.001c-47.333 -47.333 -98.666 -71 -153.999 -71c-49.333 0 -93.666 15 -132.999 45c-43.333 32.667 -65 73.667 -65 123c0 9.33301 4.33301 37.333 13 84c22.667 120 47.667 209.667 75 269c20 60 58.667 125.333 116 196
c49.333 60.667 95 91 137 91c3.33301 0 10.833 -1.16699 22.5 -3.5s22.167 -3.5 31.5 -3.5v-26c-12 1.33301 -20.667 2 -26 2c-41.333 0 -74.166 -18.167 -98.499 -54.5s-40.5 -54.5 -48.5 -54.5l-49 -109c-33.333 -75.333 -50.666 -114.666 -51.999 -117.999l-39 -131
c-9.33301 -43.333 -14 -85.333 -14 -126c0 -54 13.333 -92 40 -114c17.333 -14.667 39.666 -22 66.999 -22c36.667 0 74.667 17.333 114 52c28.667 25.333 53 54.333 73 87h20c7.33301 -16.667 13.666 -27.334 18.999 -32.001c2 -1.33301 4.33301 -2.66602 7 -3.99902z
M337.998 -251.001c0 -16.667 -2.50098 -32.001 -7.50098 -46.001s-11.167 -21 -18.5 -21c-10 -26.667 -25.333 -47.667 -46 -63c-24.667 -18.667 -57 -28 -97 -28c-31.333 0 -64.333 4 -99 12c-45.333 10.667 -68 24 -68 40c0 15.333 39.333 26.333 118 33
s118 36.334 118 89.001c0 12 -4 20 -12 24s-20 6 -36 6h-22c-7.33301 0 -14.666 -0.333008 -21.999 -1c-24.667 0 -42.667 3.66699 -54 11c-16 10 -24 28.667 -24 56c11.333 30.667 21 53.667 29 69c24.667 46 50 69 76 69c20.667 0 34.667 -2.5 42 -7.5s11 -15.5 11 -31.5
c0 -11.333 -4.33301 -26.333 -13 -45c-11.333 -23.333 -18 -39.333 -20 -48c56 0 91.667 -4.33301 107 -13c25.333 -14.667 38 -49.667 38 -105z" />
    <glyph glyph-name="Egrave" unicode="&#xc8;" horiz-adv-x="435" 
d="M442 827c-4.66699 -11.333 -7.00195 -22.332 -7.00195 -32.999c-25.333 -5.33301 -63 -10.5 -113 -15.5s-81.333 -8.83301 -94 -11.5c-4.66699 2.66699 -10 6 -16 10s-16.333 9.66699 -31 17c0 -10.667 1 -17 3 -19s3 -4.66699 3 -8l-20 -111
c-14 -75.333 -22.667 -116.333 -26 -123v-100c52.667 0 100.334 4.33301 143.001 13c7.33301 1.33301 16.333 3.66602 27 6.99902c3.33301 -2 9.33301 -3.66699 18 -5s21.667 -2 39 -2v-20c-8 -12 -14.333 -20.667 -19 -26s-8 -8 -10 -8c-6 2.66699 -12.667 4 -20 4
c-4 0 -10 -1 -18 -3c-0.666992 2 1.33301 5.66699 6 11c0 0.666992 0.333008 1.66699 1 3c-6 0 -13.833 -3.5 -23.5 -10.5s-15.167 -10.5 -16.5 -10.5c-2 -0.666992 -8 -0.333984 -18 0.999023c-36 4 -74.667 6 -116 6l-27 -240l-10 -36c-6 -22.667 -11.333 -45.667 -16 -69
l187 -2c16.667 2 33.667 5.33301 51 10s31.666 10 42.999 16c8.66699 -9.33301 13.834 -15.5 15.501 -18.5s5.16699 -12.167 10.5 -27.5c-27.333 -12 -66.833 -20.5 -118.5 -25.5s-120.5 -7.5 -206.5 -7.5c-4.66699 0 -11 -0.333008 -19 -1s-13.667 -1 -17 -1
c-17.333 0 -26 9.33301 -26 28l10 44c9.33301 42.667 19.333 95.334 30 158.001c17.333 101.333 33 205.333 47 312c2.66699 17.333 10.834 64.833 24.501 142.5s20.834 117.167 21.501 118.5c7.33301 16 35.166 30.167 83.499 42.5s104.833 18.5 169.5 18.5
c9.33301 0 19.5 -4 30.5 -12s19.167 -13.333 24.5 -16zM316.998 906.001c0 -24 -8.33301 -35.999 -25 -35.999c-7.33301 0 -16.333 4.33301 -27 13l-33 32c-24 9.33301 -47.333 20.333 -70 33c-46 26 -69 49.333 -69 70c0 9.33301 3.66699 16.666 11 21.999s16 8 26 8
c6.66699 0 16 -4.66699 28 -14c16 -12 25 -18.667 27 -20c56.667 -30 95 -55.333 115 -76c11.333 -11.333 17 -22 17 -32z" />
    <glyph glyph-name="Eacute" unicode="&#xc9;" horiz-adv-x="435" 
d="M442 827c-4.66699 -11.333 -7.00195 -22.332 -7.00195 -32.999c-25.333 -5.33301 -63 -10.5 -113 -15.5s-81.333 -8.83301 -94 -11.5c-4.66699 2.66699 -10 6 -16 10s-16.333 9.66699 -31 17c0 -10.667 1 -17 3 -19s3 -4.66699 3 -8l-20 -111
c-14 -75.333 -22.667 -116.333 -26 -123v-100c52.667 0 100.334 4.33301 143.001 13c7.33301 1.33301 16.333 3.66602 27 6.99902c3.33301 -2 9.33301 -3.66699 18 -5s21.667 -2 39 -2v-20c-8 -12 -14.333 -20.667 -19 -26s-8 -8 -10 -8c-6 2.66699 -12.667 4 -20 4
c-4 0 -10 -1 -18 -3c-0.666992 2 1.33301 5.66699 6 11c0 0.666992 0.333008 1.66699 1 3c-6 0 -13.833 -3.5 -23.5 -10.5s-15.167 -10.5 -16.5 -10.5c-2 -0.666992 -8 -0.333984 -18 0.999023c-36 4 -74.667 6 -116 6l-27 -240l-10 -36c-6 -22.667 -11.333 -45.667 -16 -69
l187 -2c16.667 2 33.667 5.33301 51 10s31.666 10 42.999 16c8.66699 -9.33301 13.834 -15.5 15.501 -18.5s5.16699 -12.167 10.5 -27.5c-27.333 -12 -66.833 -20.5 -118.5 -25.5s-120.5 -7.5 -206.5 -7.5c-4.66699 0 -11 -0.333008 -19 -1s-13.667 -1 -17 -1
c-17.333 0 -26 9.33301 -26 28l10 44c9.33301 42.667 19.333 95.334 30 158.001c17.333 101.333 33 205.333 47 312c2.66699 17.333 10.834 64.833 24.501 142.5s20.834 117.167 21.501 118.5c7.33301 16 35.166 30.167 83.499 42.5s104.833 18.5 169.5 18.5
c9.33301 0 19.5 -4 30.5 -12s19.167 -13.333 24.5 -16zM402.998 1018c0 -21.333 -22.667 -44.666 -68 -69.999l-71 -33c-11.333 -12.667 -22.333 -23.334 -33 -32.001s-19.667 -13 -27 -13c-6.66699 0 -12.5 3.33301 -17.5 10s-7.5 15.334 -7.5 26.001
c0 10 5.66699 20.667 17 32c20.667 20.667 59 46 115 76l26 20c12 9.33301 21.667 14 29 14c9.33301 0 17.833 -2.83301 25.5 -8.5s11.5 -12.834 11.5 -21.501z" />
    <glyph glyph-name="Ecircumflex" unicode="&#xca;" horiz-adv-x="435" 
d="M442 827c-4.66699 -11.333 -7.00195 -22.332 -7.00195 -32.999c-25.333 -5.33301 -63 -10.5 -113 -15.5s-81.333 -8.83301 -94 -11.5c-4.66699 2.66699 -10 6 -16 10s-16.333 9.66699 -31 17c0 -10.667 1 -17 3 -19s3 -4.66699 3 -8l-20 -111
c-14 -75.333 -22.667 -116.333 -26 -123v-100c52.667 0 100.334 4.33301 143.001 13c7.33301 1.33301 16.333 3.66602 27 6.99902c3.33301 -2 9.33301 -3.66699 18 -5s21.667 -2 39 -2v-20c-8 -12 -14.333 -20.667 -19 -26s-8 -8 -10 -8c-6 2.66699 -12.667 4 -20 4
c-4 0 -10 -1 -18 -3c-0.666992 2 1.33301 5.66699 6 11c0 0.666992 0.333008 1.66699 1 3c-6 0 -13.833 -3.5 -23.5 -10.5s-15.167 -10.5 -16.5 -10.5c-2 -0.666992 -8 -0.333984 -18 0.999023c-36 4 -74.667 6 -116 6l-27 -240l-10 -36c-6 -22.667 -11.333 -45.667 -16 -69
l187 -2c16.667 2 33.667 5.33301 51 10s31.666 10 42.999 16c8.66699 -9.33301 13.834 -15.5 15.501 -18.5s5.16699 -12.167 10.5 -27.5c-27.333 -12 -66.833 -20.5 -118.5 -25.5s-120.5 -7.5 -206.5 -7.5c-4.66699 0 -11 -0.333008 -19 -1s-13.667 -1 -17 -1
c-17.333 0 -26 9.33301 -26 28l10 44c9.33301 42.667 19.333 95.334 30 158.001c17.333 101.333 33 205.333 47 312c2.66699 17.333 10.834 64.833 24.501 142.5s20.834 117.167 21.501 118.5c7.33301 16 35.166 30.167 83.499 42.5s104.833 18.5 169.5 18.5
c9.33301 0 19.5 -4 30.5 -12s19.167 -13.333 24.5 -16zM427.998 891.001l-27.001 -0.000976562c-44.667 27.333 -74.667 47 -90 59c-21.333 20.667 -53.666 47.667 -96.999 81c-17.333 -14 -44 -34.333 -80 -61c-46 -34 -70.667 -51 -74 -51c-6 0 -16.333 4.83301 -31 14.5
s-22 17.834 -22 24.501c0 10 26.667 34.333 80 73c19.333 14 41 34.333 65 61c16 18 28.667 27 38 27c20 0 47.333 -14 82 -42c42 -33.333 94 -86.333 156 -159v-27z" />
    <glyph glyph-name="Edieresis" unicode="&#xcb;" horiz-adv-x="435" 
d="M442 827c-4.66699 -11.333 -7.00195 -22.332 -7.00195 -32.999c-25.333 -5.33301 -63 -10.5 -113 -15.5s-81.333 -8.83301 -94 -11.5c-4.66699 2.66699 -10 6 -16 10s-16.333 9.66699 -31 17c0 -10.667 1 -17 3 -19s3 -4.66699 3 -8l-20 -111
c-14 -75.333 -22.667 -116.333 -26 -123v-100c52.667 0 100.334 4.33301 143.001 13c7.33301 1.33301 16.333 3.66602 27 6.99902c3.33301 -2 9.33301 -3.66699 18 -5s21.667 -2 39 -2v-20c-8 -12 -14.333 -20.667 -19 -26s-8 -8 -10 -8c-6 2.66699 -12.667 4 -20 4
c-4 0 -10 -1 -18 -3c-0.666992 2 1.33301 5.66699 6 11c0 0.666992 0.333008 1.66699 1 3c-6 0 -13.833 -3.5 -23.5 -10.5s-15.167 -10.5 -16.5 -10.5c-2 -0.666992 -8 -0.333984 -18 0.999023c-36 4 -74.667 6 -116 6l-27 -240l-10 -36c-6 -22.667 -11.333 -45.667 -16 -69
l187 -2c16.667 2 33.667 5.33301 51 10s31.666 10 42.999 16c8.66699 -9.33301 13.834 -15.5 15.501 -18.5s5.16699 -12.167 10.5 -27.5c-27.333 -12 -66.833 -20.5 -118.5 -25.5s-120.5 -7.5 -206.5 -7.5c-4.66699 0 -11 -0.333008 -19 -1s-13.667 -1 -17 -1
c-17.333 0 -26 9.33301 -26 28l10 44c9.33301 42.667 19.333 95.334 30 158.001c17.333 101.333 33 205.333 47 312c2.66699 17.333 10.834 64.833 24.501 142.5s20.834 117.167 21.501 118.5c7.33301 16 35.166 30.167 83.499 42.5s104.833 18.5 169.5 18.5
c9.33301 0 19.5 -4 30.5 -12s19.167 -13.333 24.5 -16zM439.998 977.001c0 -16 -12.166 -34.499 -36.499 -55.499s-44.5 -31.5 -60.5 -31.5c-12.667 0 -30.334 6 -53.001 18c-14.667 8 -22 15.333 -22 22c0 22.667 14.333 45.667 43 69c25.333 20.667 47 31 65 31
c9.33301 0 21 -4.33301 35 -13c8 -4.66699 15 -7 21 -7c2 -4.66699 3.83301 -9.83398 5.5 -15.501s2.5 -11.5 2.5 -17.5zM247.999 970.002c0 -18.667 -10.332 -38.668 -30.999 -60.001s-42.334 -32 -65.001 -32c-16 0 -32.333 4 -49 12c-22 10.667 -33 24 -33 40
c0 13.333 8.66699 30.333 26 51c20 23.333 40 35 60 35c20.667 -3.33301 36 -6.33301 46 -9c30.667 -9.33301 46 -21.666 46 -36.999z" />
    <glyph glyph-name="Igrave" unicode="&#xcc;" horiz-adv-x="233" 
d="M233 804c0 -37.333 -4.66602 -79.501 -13.999 -126.501l-28 -143.5c0 -4.66699 0.666992 -9 2 -13l-133 -525l-35 10c-13.333 6.66699 -20 17 -20 31c0.666992 0 16.667 62.833 48 188.5s60 245.834 86 360.501c32 140 48 221.667 48 245h40
c0 -11.333 0.666992 -18.333 2 -21s2.66602 -4.66699 3.99902 -6zM227.001 905.999c0 -24 -8.33301 -35.999 -25 -35.999c-7.33301 0 -16.333 4.33301 -27 13l-33 32c-24 9.33301 -47.333 20.333 -70 33c-46 26 -69 49.333 -69 70c0 9.33301 3.66699 16.666 11 21.999
s16 8 26 8c6.66699 0 16 -4.66699 28 -14c16 -12 25 -18.667 27 -20c56.667 -30 95 -55.333 115 -76c11.333 -11.333 17 -22 17 -32z" />
    <glyph glyph-name="Iacute" unicode="&#xcd;" horiz-adv-x="233" 
d="M233 804c0 -37.333 -4.66602 -79.501 -13.999 -126.501l-28 -143.5c0 -4.66699 0.666992 -9 2 -13l-133 -525l-35 10c-13.333 6.66699 -20 17 -20 31c0.666992 0 16.667 62.833 48 188.5s60 245.834 86 360.501c32 140 48 221.667 48 245h40
c0 -11.333 0.666992 -18.333 2 -21s2.66602 -4.66699 3.99902 -6zM403.001 1018c0 -21.333 -22.667 -44.666 -68 -69.999l-71 -33c-11.333 -12.667 -22.333 -23.334 -33 -32.001s-19.667 -13 -27 -13c-6.66699 0 -12.5 3.33301 -17.5 10s-7.5 15.334 -7.5 26.001
c0 10 5.66699 20.667 17 32c20.667 20.667 59 46 115 76l26 20c12 9.33301 21.667 14 29 14c9.33301 0 17.833 -2.83301 25.5 -8.5s11.5 -12.834 11.5 -21.501z" />
    <glyph glyph-name="Icircumflex" unicode="&#xce;" horiz-adv-x="233" 
d="M233 804c0 -37.333 -4.66602 -79.501 -13.999 -126.501l-28 -143.5c0 -4.66699 0.666992 -9 2 -13l-133 -525l-35 10c-13.333 6.66699 -20 17 -20 31c0.666992 0 16.667 62.833 48 188.5s60 245.834 86 360.501c32 140 48 221.667 48 245h40
c0 -11.333 0.666992 -18.333 2 -21s2.66602 -4.66699 3.99902 -6zM428.001 800.999l-27.001 -0.000976562c-44.667 27.333 -74.667 47 -90 59c-21.333 20.667 -53.666 47.667 -96.999 81c-17.333 -14 -44 -34.333 -80 -61c-46 -34 -70.667 -51 -74 -51
c-6 0 -16.333 4.83301 -31 14.5s-22 17.834 -22 24.501c0 10 26.667 34.333 80 73c19.333 14 41 34.333 65 61c16 18 28.667 27 38 27c20 0 47.333 -14 82 -42c42 -33.333 94 -86.333 156 -159v-27z" />
    <glyph glyph-name="Idieresis" unicode="&#xcf;" horiz-adv-x="233" 
d="M233 804c0 -37.333 -4.66602 -79.501 -13.999 -126.501l-28 -143.5c0 -4.66699 0.666992 -9 2 -13l-133 -525l-35 10c-13.333 6.66699 -20 17 -20 31c0.666992 0 16.667 62.833 48 188.5s60 245.834 86 360.501c32 140 48 221.667 48 245h40
c0 -11.333 0.666992 -18.333 2 -21s2.66602 -4.66699 3.99902 -6zM440.001 976.999c0 -16 -12.166 -34.499 -36.499 -55.499s-44.5 -31.5 -60.5 -31.5c-12.667 0 -30.334 6 -53.001 18c-14.667 8 -22 15.333 -22 22c0 22.667 14.333 45.667 43 69c25.333 20.667 47 31 65 31
c9.33301 0 21 -4.33301 35 -13c8 -4.66699 15 -7 21 -7c2 -4.66699 3.83301 -9.83398 5.5 -15.501s2.5 -11.5 2.5 -17.5zM248.002 970c0 -18.667 -10.332 -38.668 -30.999 -60.001s-42.334 -32 -65.001 -32c-16 0 -32.333 4 -49 12c-22 10.667 -33 24 -33 40
c0 13.333 8.66699 30.333 26 51c20 23.333 40 35 60 35c20.667 -3.33301 36 -6.33301 46 -9c30.667 -9.33301 46 -21.666 46 -36.999z" />
    <glyph glyph-name="Eth" unicode="&#xd0;" horiz-adv-x="414" 
d="M414 516c0 -40 -2.66602 -74 -7.99902 -102c-12 -62.667 -18 -95 -18 -97c0 -8.66699 -15 -38 -45 -88c-37.333 -62 -76.333 -113 -117 -153c-56 -54.667 -109.667 -82 -161 -82l-39 19l92 377c-3.33301 0.666992 -9.33301 1 -18 1c-4.66699 0 -12.667 -0.333008 -24 -1
s-19.666 -1 -24.999 -1c-16.667 0 -28.667 2 -36 6c-10 6 -15 16.333 -15 31c0 19.333 18.5 29.5 55.5 30.5s61.833 5.16699 74.5 12.5c4 2 7.33301 8.33301 10 19c4.66699 33.333 9.66699 66.666 15 99.999l25 177c5.33301 28.667 15.666 43 30.999 43l16 -2
c45.333 -9.33301 84.666 -33.666 117.999 -72.999c46 -54 69 -126.333 69 -217zM348.001 546c-3.33301 17.333 -6.33008 31.667 -8.99707 43c-18.667 67.333 -48.334 115.333 -89.001 144c-4 -19.333 -12.333 -54.5 -25 -105.5s-22.334 -101.5 -29.001 -151.5
c15.333 0 31 1 47 3s26.333 3 31 3c9.33301 0 22 -2 38 -6v-70c-17.333 -4.66699 -36.833 -8.5 -58.5 -11.5s-44.834 -4.5 -69.501 -4.5c-4 -28.667 -16.667 -82.5 -38 -161.5s-33 -129.5 -35 -151.5c28 20 55.333 44 82 72c44 46.667 78.667 98 104 154
c34 74.667 51 155.667 51 243z" />
    <glyph glyph-name="Ntilde" unicode="&#xd1;" horiz-adv-x="420" 
d="M420 733c0 -30 -5.16895 -65.1689 -15.502 -105.502l-31.5 -121.5c4 -3.33301 7.5 -8.66602 10.5 -15.999s4.5 -16.666 4.5 -27.999c0 -7.33301 -0.333008 -13 -1 -17l-41 -180c-2.66699 -70.667 -5.16699 -130 -7.5 -178s-6.5 -86.667 -12.5 -116
c-9.33301 0 -15.666 -0.5 -18.999 -1.5s-5.66602 -2.83301 -6.99902 -5.5c-16.667 0 -27.5 6.16699 -32.5 18.5s-7.5 29.833 -7.5 52.5v24c-5.33301 22 -10 50.667 -14 86s-6 70 -6 104c-6 32 -11.667 64 -17 96c-13.333 74.667 -25 136.667 -35 186
c-14 70 -23.667 110.333 -29 121c-0.666992 0 -8 -33.667 -22 -101c-17.333 -85.333 -31.333 -165.666 -42 -240.999c-15.333 -111.333 -23 -207.333 -23 -288c0 -7.33301 -6.5 -14.333 -19.5 -21s-21.833 -14.334 -26.5 -23.001
c-4.66699 5.33301 -8.5 9.16602 -11.5 11.499s-8.16699 5.16602 -15.5 8.49902c8.66699 26 15 49.5 19 70.5s6 39.833 6 56.5c0 14.667 -0.5 25.167 -1.5 31.5l-3.5 21.5c10.667 26.667 24.667 91 42 193c14 81.333 27.167 170 39.5 266s18.5 152.333 18.5 169
c4 2.66699 8.33301 5.33398 13 8.00098c26 0 48.667 -32 68 -96c10 -32.667 23.667 -99.5 41 -200.5s32.333 -171.833 45 -212.5c4 6.66699 11 34.334 21 83.001s18.333 105.667 25 171c9.33301 86.667 14 165 14 235c0 1.33301 5.66699 6 17 14
c3.33301 2.66699 9 6.66699 17 12c16.667 0 28 -6.66699 34 -20c4 -9.33301 6 -24.333 6 -45v-22zM417.998 925.998c0 -22.667 -18.001 -49 -54.001 -79s-67 -45 -93 -45c-11.333 0 -27.333 8.83301 -48 26.5l-63 55.5c-7.33301 0 -21.333 -8.16699 -42 -24.5l-62 -49.5
c-12 5.33301 -20.667 9.33301 -26 12c-17.333 9.33301 -26 17.333 -26 24c0 20.667 16.5 45.5 49.5 74.5s61.833 43.5 86.5 43.5c20.667 0 39.334 -9.66699 56.001 -29l51 -65c18 0 43 16.667 75 50s50.667 50 56 50c9.33301 -6.66699 16 -11.667 20 -15
c13.333 -11.333 20 -21 20 -29z" />
    <glyph glyph-name="Ograve" unicode="&#xd2;" horiz-adv-x="432" 
d="M432 535c0 -33.333 -4.33594 -67.333 -13.0029 -102c-4.66699 -18.667 -7 -33.667 -7 -45c0 -9.33301 -10.667 -44 -32 -104c-27.333 -76.667 -56.666 -139.334 -87.999 -188.001c-44 -68 -88.333 -102 -133 -102c-29.333 0 -59.666 9.66699 -90.999 29
c-42.667 26.667 -64 61.334 -64 104.001c0 27.333 3.66699 67.333 11 120c10.667 78 27.334 160.333 50.001 247c26.667 100.667 57.167 176.167 91.5 226.5s71.833 75.5 112.5 75.5l37 -8c47.333 -51.333 74.333 -82 81 -92c30 -46 45 -99.667 45 -161zM371.997 565
c0 23.333 -8 54.999 -24 94.999s-34.667 69.333 -56 88l-48 -28c-16 -10.667 -28.667 -21.334 -38 -32.001c-18 -20.667 -38.333 -73.667 -61 -159c-18 -67.333 -34.667 -144.166 -50 -230.499s-23 -141.166 -23 -164.499c0 -30 7 -55 21 -75c12 -16.667 24.667 -25 38 -25
c29.333 0 57.333 23.667 84 71c1.33301 2 29.333 56 84 162c13.333 26 28.833 74.5 46.5 145.5s26.5 121.833 26.5 152.5zM326.997 905.999c0 -24 -8.33301 -35.999 -25 -35.999c-7.33301 0 -16.333 4.33301 -27 13l-33 32c-24 9.33301 -47.333 20.333 -70 33
c-46 26 -69 49.333 -69 70c0 9.33301 3.66699 16.666 11 21.999s16 8 26 8c6.66699 0 16 -4.66699 28 -14c16 -12 25 -18.667 27 -20c56.667 -30 95 -55.333 115 -76c11.333 -11.333 17 -22 17 -32z" />
    <glyph glyph-name="Oacute" unicode="&#xd3;" horiz-adv-x="432" 
d="M432 535c0 -33.333 -4.33594 -67.333 -13.0029 -102c-4.66699 -18.667 -7 -33.667 -7 -45c0 -9.33301 -10.667 -44 -32 -104c-27.333 -76.667 -56.666 -139.334 -87.999 -188.001c-44 -68 -88.333 -102 -133 -102c-29.333 0 -59.666 9.66699 -90.999 29
c-42.667 26.667 -64 61.334 -64 104.001c0 27.333 3.66699 67.333 11 120c10.667 78 27.334 160.333 50.001 247c26.667 100.667 57.167 176.167 91.5 226.5s71.833 75.5 112.5 75.5l37 -8c47.333 -51.333 74.333 -82 81 -92c30 -46 45 -99.667 45 -161zM371.997 565
c0 23.333 -8 54.999 -24 94.999s-34.667 69.333 -56 88l-48 -28c-16 -10.667 -28.667 -21.334 -38 -32.001c-18 -20.667 -38.333 -73.667 -61 -159c-18 -67.333 -34.667 -144.166 -50 -230.499s-23 -141.166 -23 -164.499c0 -30 7 -55 21 -75c12 -16.667 24.667 -25 38 -25
c29.333 0 57.333 23.667 84 71c1.33301 2 29.333 56 84 162c13.333 26 28.833 74.5 46.5 145.5s26.5 121.833 26.5 152.5zM462.997 1018c0 -21.333 -22.667 -44.666 -68 -69.999l-71 -33c-11.333 -12.667 -22.333 -23.334 -33 -32.001s-19.667 -13 -27 -13
c-6.66699 0 -12.5 3.33301 -17.5 10s-7.5 15.334 -7.5 26.001c0 10 5.66699 20.667 17 32c20.667 20.667 59 46 115 76l26 20c12 9.33301 21.667 14 29 14c9.33301 0 17.833 -2.83301 25.5 -8.5s11.5 -12.834 11.5 -21.501z" />
    <glyph glyph-name="Ocircumflex" unicode="&#xd4;" horiz-adv-x="432" 
d="M432 535c0 -33.333 -4.33594 -67.333 -13.0029 -102c-4.66699 -18.667 -7 -33.667 -7 -45c0 -9.33301 -10.667 -44 -32 -104c-27.333 -76.667 -56.666 -139.334 -87.999 -188.001c-44 -68 -88.333 -102 -133 -102c-29.333 0 -59.666 9.66699 -90.999 29
c-42.667 26.667 -64 61.334 -64 104.001c0 27.333 3.66699 67.333 11 120c10.667 78 27.334 160.333 50.001 247c26.667 100.667 57.167 176.167 91.5 226.5s71.833 75.5 112.5 75.5l37 -8c47.333 -51.333 74.333 -82 81 -92c30 -46 45 -99.667 45 -161zM371.997 565
c0 23.333 -8 54.999 -24 94.999s-34.667 69.333 -56 88l-48 -28c-16 -10.667 -28.667 -21.334 -38 -32.001c-18 -20.667 -38.333 -73.667 -61 -159c-18 -67.333 -34.667 -144.166 -50 -230.499s-23 -141.166 -23 -164.499c0 -30 7 -55 21 -75c12 -16.667 24.667 -25 38 -25
c29.333 0 57.333 23.667 84 71c1.33301 2 29.333 56 84 162c13.333 26 28.833 74.5 46.5 145.5s26.5 121.833 26.5 152.5zM427.997 800.999l-27.001 -0.000976562c-44.667 27.333 -74.667 47 -90 59c-21.333 20.667 -53.666 47.667 -96.999 81
c-17.333 -14 -44 -34.333 -80 -61c-46 -34 -70.667 -51 -74 -51c-6 0 -16.333 4.83301 -31 14.5s-22 17.834 -22 24.501c0 10 26.667 34.333 80 73c19.333 14 41 34.333 65 61c16 18 28.667 27 38 27c20 0 47.333 -14 82 -42c42 -33.333 94 -86.333 156 -159v-27z" />
    <glyph glyph-name="Otilde" unicode="&#xd5;" horiz-adv-x="432" 
d="M432 535c0 -33.333 -4.33594 -67.333 -13.0029 -102c-4.66699 -18.667 -7 -33.667 -7 -45c0 -9.33301 -10.667 -44 -32 -104c-27.333 -76.667 -56.666 -139.334 -87.999 -188.001c-44 -68 -88.333 -102 -133 -102c-29.333 0 -59.666 9.66699 -90.999 29
c-42.667 26.667 -64 61.334 -64 104.001c0 27.333 3.66699 67.333 11 120c10.667 78 27.334 160.333 50.001 247c26.667 100.667 57.167 176.167 91.5 226.5s71.833 75.5 112.5 75.5l37 -8c47.333 -51.333 74.333 -82 81 -92c30 -46 45 -99.667 45 -161zM371.997 565
c0 23.333 -8 54.999 -24 94.999s-34.667 69.333 -56 88l-48 -28c-16 -10.667 -28.667 -21.334 -38 -32.001c-18 -20.667 -38.333 -73.667 -61 -159c-18 -67.333 -34.667 -144.166 -50 -230.499s-23 -141.166 -23 -164.499c0 -30 7 -55 21 -75c12 -16.667 24.667 -25 38 -25
c29.333 0 57.333 23.667 84 71c1.33301 2 29.333 56 84 162c13.333 26 28.833 74.5 46.5 145.5s26.5 121.833 26.5 152.5zM427.997 985.999c0 -22.667 -18.001 -49 -54.001 -79s-67 -45 -93 -45c-11.333 0 -27.333 8.83301 -48 26.5l-63 55.5
c-7.33301 0 -21.333 -8.16699 -42 -24.5l-62 -49.5c-12 5.33301 -20.667 9.33301 -26 12c-17.333 9.33301 -26 17.333 -26 24c0 20.667 16.5 45.5 49.5 74.5s61.833 43.5 86.5 43.5c20.667 0 39.334 -9.66699 56.001 -29l51 -65c18 0 43 16.667 75 50s50.667 50 56 50
c9.33301 -6.66699 16 -11.667 20 -15c13.333 -11.333 20 -21 20 -29z" />
    <glyph glyph-name="Odieresis" unicode="&#xd6;" horiz-adv-x="432" 
d="M432 535c0 -33.333 -4.33594 -67.333 -13.0029 -102c-4.66699 -18.667 -7 -33.667 -7 -45c0 -9.33301 -10.667 -44 -32 -104c-27.333 -76.667 -56.666 -139.334 -87.999 -188.001c-44 -68 -88.333 -102 -133 -102c-29.333 0 -59.666 9.66699 -90.999 29
c-42.667 26.667 -64 61.334 -64 104.001c0 27.333 3.66699 67.333 11 120c10.667 78 27.334 160.333 50.001 247c26.667 100.667 57.167 176.167 91.5 226.5s71.833 75.5 112.5 75.5l37 -8c47.333 -51.333 74.333 -82 81 -92c30 -46 45 -99.667 45 -161zM371.997 565
c0 23.333 -8 54.999 -24 94.999s-34.667 69.333 -56 88l-48 -28c-16 -10.667 -28.667 -21.334 -38 -32.001c-18 -20.667 -38.333 -73.667 -61 -159c-18 -67.333 -34.667 -144.166 -50 -230.499s-23 -141.166 -23 -164.499c0 -30 7 -55 21 -75c12 -16.667 24.667 -25 38 -25
c29.333 0 57.333 23.667 84 71c1.33301 2 29.333 56 84 162c13.333 26 28.833 74.5 46.5 145.5s26.5 121.833 26.5 152.5zM439.997 976.999c0 -16 -12.166 -34.499 -36.499 -55.499s-44.5 -31.5 -60.5 -31.5c-12.667 0 -30.334 6 -53.001 18c-14.667 8 -22 15.333 -22 22
c0 22.667 14.333 45.667 43 69c25.333 20.667 47 31 65 31c9.33301 0 21 -4.33301 35 -13c8 -4.66699 15 -7 21 -7c2 -4.66699 3.83301 -9.83398 5.5 -15.501s2.5 -11.5 2.5 -17.5zM247.998 970c0 -18.667 -10.332 -38.668 -30.999 -60.001s-42.334 -32 -65.001 -32
c-16 0 -32.333 4 -49 12c-22 10.667 -33 24 -33 40c0 13.333 8.66699 30.333 26 51c20 23.333 40 35 60 35c20.667 -3.33301 36 -6.33301 46 -9c30.667 -9.33301 46 -21.666 46 -36.999z" />
    <glyph glyph-name="multiply" unicode="&#xd7;" horiz-adv-x="462" 
d="M462 630c0 -9.33301 -14.665 -32.999 -43.998 -70.999c-18.667 -24 -46.334 -57.667 -83.001 -101c-29.333 -34.667 -44.333 -52 -45 -52c0 -3.33301 27.667 -31 83 -83s83 -81.667 83 -89c-2 -10.667 -3.66699 -18.334 -5 -23.001c-4 -15.333 -8 -23 -12 -23
c-16 0 -50 26.333 -102 79s-84 79 -96 79c-4 0 -31.667 -27.333 -83 -82s-79.666 -82 -84.999 -82c-2 0 -7 1.16699 -15 3.5s-14 2.83301 -18 1.5c-2 6.66699 -3.5 11.5 -4.5 14.5s-1.5 7.5 -1.5 13.5c0 6.66699 25.667 36.667 77 90c46.667 48.667 73.667 75.667 81 81
c-8 16 -28 36.667 -60 62c-73.333 57.333 -117 98 -131 122v14c6 3.33301 12.167 6.5 18.5 9.5s13.166 4.5 20.499 4.5c11.333 0 36.666 -16 75.999 -48l119 -98c12.667 0 26.667 10 42 30c58.667 78 107.334 134 146.001 168h33c0 -4 0.666992 -7.66699 2 -11
s2.66602 -6.33301 3.99902 -9z" />
    <glyph glyph-name="Oslash" unicode="&#xd8;" horiz-adv-x="438" 
d="M360 362c0 9.33301 -5.66699 34.332 -17 74.999c-3.33301 13.333 -9.33301 33.333 -18 60l-168 -350c11.333 -4.66699 24.333 -7 39 -7c13.333 0 26.333 1.66699 39 5s24.667 7 36 11c30 33.333 52.333 66.833 67 100.5s22 68.834 22 105.501zM281 566.999l-24.001 11.5
c-7.33301 3.66699 -12.333 5.5 -15 5.5c-40 0 -79 -32.667 -117 -98c-34 -58.667 -51 -109.667 -51 -153c0 -12.667 2.83301 -30.167 8.5 -52.5s11.834 -44.833 18.501 -67.5l9 -20l108.5 234c37 81.333 57.833 128 62.5 140zM351.999 140.999
c-18 -24.667 -43.0029 -42.3301 -75.0029 -52.9971c-24 -8 -51.667 -12 -83 -12c-13.333 0 -26.166 0.666992 -38.499 2l-28.5 3c-5.33301 -2.66699 -11.666 -12.667 -18.999 -30c-18.667 -43.333 -36.334 -73 -53.001 -89h-47v38c4 3.33301 9.16699 10.666 15.5 21.999
s11.166 19.666 14.499 24.999c6.66699 9.33301 11.667 16.666 15 21.999c10 16.667 15 28.667 15 36c-17.333 24.667 -32.666 55.5 -45.999 92.5s-20 87.5 -20 151.5c8 57.333 23.667 109 47 155c3.33301 6.66699 15 25 35 55c28 38.667 63 65.667 105 81
c28.667 10.667 60.334 16 95.001 16c4 0 10.667 -0.333008 20 -1s14.333 -0.666992 15 0c18 6.66699 29 15.334 33 26.001c0.666992 3.33301 0.666992 8.33301 0 15c4.66699 0 13.5 18.833 26.5 56.5s21.5 58.167 25.5 61.5l27 20
c4.66699 -5.33301 8.33398 -9.66602 11.001 -12.999c5.33301 -6.66699 8 -13 8 -19s-12 -42 -36 -108l-36 -98c20.667 -40 35.667 -78.333 45 -115s14 -72.334 14 -107.001c0 -56.667 -12.667 -110.334 -38 -161.001c-9.33301 -18.667 -25 -42.667 -47 -72z" />
    <glyph glyph-name="Ugrave" unicode="&#xd9;" horiz-adv-x="462" 
d="M462 735c0 -51.333 -12.9961 -128.999 -38.9961 -232.999c-20.667 -83.333 -36.334 -137.333 -47.001 -162c-38 -86 -71.333 -153 -100 -201c-56 -93.333 -105.333 -140 -148 -140c-38 0 -68 16.333 -90 49c-24 36 -36 77.667 -36 125c0 27.333 4.33301 93.333 13 198
c2.66699 34.667 7 84.667 13 150c0 50.667 9.33301 111.667 28 183c14 54 30.333 84.333 49 91l17 -7c-0.666992 -9.33301 -6.33398 -57.666 -17.001 -144.999s-20 -171.666 -28 -252.999c-10 -100.667 -15 -169.334 -15 -206.001c0 -20.667 4.33301 -48.334 13 -83.001
c11.333 -45.333 24.666 -68 39.999 -68s34 17.667 56 53c19.333 30.667 42.666 77 69.999 139c22.667 51.333 49.667 116.333 81 195c18 45.333 36 105.333 54 180c21.333 90 32 161.667 32 215c0 2.66699 3 6 9 10s10 7.33301 12 10c14.667 -10 24.167 -19 28.5 -27
s6.5 -17.667 6.5 -29c0 -3.33301 -0.333008 -9.83301 -1 -19.5s-1 -17.834 -1 -24.501zM317.004 906.001c0 -24 -8.33301 -35.999 -25 -35.999c-7.33301 0 -16.333 4.33301 -27 13l-33 32c-24 9.33301 -47.333 20.333 -70 33c-46 26 -69 49.333 -69 70
c0 9.33301 3.66699 16.666 11 21.999s16 8 26 8c6.66699 0 16 -4.66699 28 -14c16 -12 25 -18.667 27 -20c56.667 -30 95 -55.333 115 -76c11.333 -11.333 17 -22 17 -32z" />
    <glyph glyph-name="Uacute" unicode="&#xda;" horiz-adv-x="462" 
d="M462 735c0 -51.333 -12.9961 -128.999 -38.9961 -232.999c-20.667 -83.333 -36.334 -137.333 -47.001 -162c-38 -86 -71.333 -153 -100 -201c-56 -93.333 -105.333 -140 -148 -140c-38 0 -68 16.333 -90 49c-24 36 -36 77.667 -36 125c0 27.333 4.33301 93.333 13 198
c2.66699 34.667 7 84.667 13 150c0 50.667 9.33301 111.667 28 183c14 54 30.333 84.333 49 91l17 -7c-0.666992 -9.33301 -6.33398 -57.666 -17.001 -144.999s-20 -171.666 -28 -252.999c-10 -100.667 -15 -169.334 -15 -206.001c0 -20.667 4.33301 -48.334 13 -83.001
c11.333 -45.333 24.666 -68 39.999 -68s34 17.667 56 53c19.333 30.667 42.666 77 69.999 139c22.667 51.333 49.667 116.333 81 195c18 45.333 36 105.333 54 180c21.333 90 32 161.667 32 215c0 2.66699 3 6 9 10s10 7.33301 12 10c14.667 -10 24.167 -19 28.5 -27
s6.5 -17.667 6.5 -29c0 -3.33301 -0.333008 -9.83301 -1 -19.5s-1 -17.834 -1 -24.501zM463.004 1018c0 -21.333 -22.667 -44.666 -68 -69.999l-71 -33c-11.333 -12.667 -22.333 -23.334 -33 -32.001s-19.667 -13 -27 -13c-6.66699 0 -12.5 3.33301 -17.5 10
s-7.5 15.334 -7.5 26.001c0 10 5.66699 20.667 17 32c20.667 20.667 59 46 115 76l26 20c12 9.33301 21.667 14 29 14c9.33301 0 17.833 -2.83301 25.5 -8.5s11.5 -12.834 11.5 -21.501z" />
    <glyph glyph-name="Ucircumflex" unicode="&#xdb;" horiz-adv-x="462" 
d="M462 735c0 -51.333 -12.9961 -128.999 -38.9961 -232.999c-20.667 -83.333 -36.334 -137.333 -47.001 -162c-38 -86 -71.333 -153 -100 -201c-56 -93.333 -105.333 -140 -148 -140c-38 0 -68 16.333 -90 49c-24 36 -36 77.667 -36 125c0 27.333 4.33301 93.333 13 198
c2.66699 34.667 7 84.667 13 150c0 50.667 9.33301 111.667 28 183c14 54 30.333 84.333 49 91l17 -7c-0.666992 -9.33301 -6.33398 -57.666 -17.001 -144.999s-20 -171.666 -28 -252.999c-10 -100.667 -15 -169.334 -15 -206.001c0 -20.667 4.33301 -48.334 13 -83.001
c11.333 -45.333 24.666 -68 39.999 -68s34 17.667 56 53c19.333 30.667 42.666 77 69.999 139c22.667 51.333 49.667 116.333 81 195c18 45.333 36 105.333 54 180c21.333 90 32 161.667 32 215c0 2.66699 3 6 9 10s10 7.33301 12 10c14.667 -10 24.167 -19 28.5 -27
s6.5 -17.667 6.5 -29c0 -3.33301 -0.333008 -9.83301 -1 -19.5s-1 -17.834 -1 -24.501zM448.004 881.001l-27.001 -0.000976562c-44.667 27.333 -74.667 47 -90 59c-21.333 20.667 -53.666 47.667 -96.999 81c-17.333 -14 -44 -34.333 -80 -61c-46 -34 -70.667 -51 -74 -51
c-6 0 -16.333 4.83301 -31 14.5s-22 17.834 -22 24.501c0 10 26.667 34.333 80 73c19.333 14 41 34.333 65 61c16 18 28.667 27 38 27c20 0 47.333 -14 82 -42c42 -33.333 94 -86.333 156 -159v-27z" />
    <glyph glyph-name="Udieresis" unicode="&#xdc;" horiz-adv-x="462" 
d="M462 735c0 -51.333 -12.9961 -128.999 -38.9961 -232.999c-20.667 -83.333 -36.334 -137.333 -47.001 -162c-38 -86 -71.333 -153 -100 -201c-56 -93.333 -105.333 -140 -148 -140c-38 0 -68 16.333 -90 49c-24 36 -36 77.667 -36 125c0 27.333 4.33301 93.333 13 198
c2.66699 34.667 7 84.667 13 150c0 50.667 9.33301 111.667 28 183c14 54 30.333 84.333 49 91l17 -7c-0.666992 -9.33301 -6.33398 -57.666 -17.001 -144.999s-20 -171.666 -28 -252.999c-10 -100.667 -15 -169.334 -15 -206.001c0 -20.667 4.33301 -48.334 13 -83.001
c11.333 -45.333 24.666 -68 39.999 -68s34 17.667 56 53c19.333 30.667 42.666 77 69.999 139c22.667 51.333 49.667 116.333 81 195c18 45.333 36 105.333 54 180c21.333 90 32 161.667 32 215c0 2.66699 3 6 9 10s10 7.33301 12 10c14.667 -10 24.167 -19 28.5 -27
s6.5 -17.667 6.5 -29c0 -3.33301 -0.333008 -9.83301 -1 -19.5s-1 -17.834 -1 -24.501zM440.004 977.001c0 -16 -12.166 -34.499 -36.499 -55.499s-44.5 -31.5 -60.5 -31.5c-12.667 0 -30.334 6 -53.001 18c-14.667 8 -22 15.333 -22 22c0 22.667 14.333 45.667 43 69
c25.333 20.667 47 31 65 31c9.33301 0 21 -4.33301 35 -13c8 -4.66699 15 -7 21 -7c2 -4.66699 3.83301 -9.83398 5.5 -15.501s2.5 -11.5 2.5 -17.5zM248.005 970.002c0 -18.667 -10.332 -38.668 -30.999 -60.001s-42.334 -32 -65.001 -32c-16 0 -32.333 4 -49 12
c-22 10.667 -33 24 -33 40c0 13.333 8.66699 30.333 26 51c20 23.333 40 35 60 35c20.667 -3.33301 36 -6.33301 46 -9c30.667 -9.33301 46 -21.666 46 -36.999z" />
    <glyph glyph-name="Yacute" unicode="&#xdd;" horiz-adv-x="397" 
d="M397 788l-67 -192.998l-127 -367c-46.667 -136.667 -70.667 -210.667 -72 -222c-4 -0.666992 -8 -2 -12 -4s-7 -3 -9 -3c-12 0 -22.833 3.5 -32.5 10.5s-14.5 16.167 -14.5 27.5l29 74c24.667 62 43 110.333 55 145c20 56 30 90 30 102c0 23.333 -24.5 91.5 -73.5 204.5
s-84.167 185.833 -105.5 218.5c5.33301 2 9.33301 4.16699 12 6.5s5 4.83301 7 7.5c20 0 51 -34.333 93 -103c34.667 -56.667 66.334 -127.334 95.001 -212.001c5.33301 9.33301 20.333 43.666 45 102.999l61 151l20 67c8.66699 18.667 17.667 28 27 28
c11.333 0 20.666 -4 27.999 -12s11 -17.667 11 -29zM323 1018c0 -21.333 -22.667 -44.666 -68 -69.999l-71 -33c-11.333 -12.667 -22.333 -23.334 -33 -32.001s-19.667 -13 -27 -13c-6.66699 0 -12.5 3.33301 -17.5 10s-7.5 15.334 -7.5 26.001c0 10 5.66699 20.667 17 32
c20.667 20.667 59 46 115 76l26 20c12 9.33301 21.667 14 29 14c9.33301 0 17.833 -2.83301 25.5 -8.5s11.5 -12.834 11.5 -21.501z" />
    <glyph glyph-name="Thorn" unicode="&#xde;" horiz-adv-x="471" 
d="M471 398c0 -60.667 -18.3311 -109.331 -54.998 -145.998l-44 -41l-51 -31c-6.66699 -4 -12.334 -7 -17.001 -9c-14.667 -6.66699 -29.334 -11.334 -44.001 -14.001h-117l-35 -133l-30 -55c-12.667 4.66699 -23.334 8.33398 -32.001 11.001
c-14.667 5.33301 -29.334 11.666 -44.001 18.999c8.66699 32 21 85.333 37 160c19.333 89.333 32.333 155 39 197c16.667 107.333 30.334 189.666 41.001 246.999c22.667 120 41 189.333 55 208c20.667 -7.33301 34.834 -13.833 42.501 -19.5s11.5 -14.167 11.5 -25.5
c0 -7.33301 -3 -27.5 -9 -60.5s-10 -59.5 -12 -79.5c88 -8.66699 152 -28 192 -58c48 -36 72 -92.667 72 -170zM376.002 418.003c-3.33301 14 -8.66895 31.335 -16.002 52.002c-2.66699 7.33301 -7 18 -13 32c-12.667 15.333 -26.667 26 -42 32
c-19.333 6 -38.666 12.333 -57.999 19h-46l-47 -323c12 -2.66699 24 -5 36 -7c38.667 0 65.667 4 81 12c26.667 14 58.334 48.333 95.001 103c1.33301 1.33301 3 14.666 5 39.999s3.66699 38.666 5 39.999z" />
    <glyph glyph-name="germandbls" unicode="&#xdf;" horiz-adv-x="459" 
d="M459 265c0 -53.333 -15.3359 -104.665 -46.0029 -153.998c-43.333 -69.333 -106 -104 -188 -104c-14.667 0 -31.167 3.5 -49.5 10.5s-33.5 16.833 -45.5 29.5c13.333 12 25.5 20.5 36.5 25.5s21.5 7.5 31.5 7.5c7.33301 0 18 -1.5 32 -4.5s24 -4.5 30 -4.5
c7.33301 0 14.5 0.666992 21.5 2s15.833 5.66602 26.5 12.999c14.667 9.33301 30.167 33.5 46.5 72.5s24.5 73.5 24.5 103.5c0 49.333 -10.333 89.666 -31 120.999c-11.333 17.333 -60 57 -146 119c-10 -12 -25.667 -59 -47 -141
c-17.333 -66.667 -35.166 -143.334 -53.499 -230.001s-28.833 -141 -31.5 -163c-15.333 -2 -25.666 -3 -30.999 -3s-14.666 1 -27.999 3l-8 23c0 12.667 8.66699 64 26 154c20.667 106.667 41 195 61 265c0 0.666992 23 87.667 69 261c22.667 85.333 53.334 128 92.001 128
c33.333 0 69.666 -17 108.999 -51c44.667 -38.667 67 -80.667 67 -126c0 -33.333 -8.66699 -58.666 -26 -75.999c-25.333 -18 -45.333 -32.667 -60 -44c30 -41.333 54.333 -78.333 73 -111c30 -53.333 45 -95.333 45 -126zM340.997 635.001c0 26 -8.33301 45.665 -25 58.998
c-12 10 -32.333 18.667 -61 26c-16 -38.667 -27 -70.667 -33 -96c-13.333 -54 -22 -85.667 -26 -95c12 20.667 39.167 33.834 81.5 39.501s63.5 27.834 63.5 66.501z" />
    <glyph glyph-name="agrave" unicode="&#xe0;" horiz-adv-x="402" 
d="M402 96c0 -12 -11.335 -29 -34.002 -51c-29.333 -28.667 -62.666 -43 -99.999 -43c-25.333 0 -45.666 10.333 -60.999 31c-9.33301 12.667 -17.666 31.334 -24.999 56.001c-15.333 -19.333 -27.333 -33.666 -36 -42.999c-28 -29.333 -51 -44 -69 -44
c-4 0 -13.167 5.16699 -27.5 15.5s-21.5 16.5 -21.5 18.5c-8.66699 3.33301 -14.667 8.66602 -18 15.999c-6.66699 14.667 -10 34 -10 58c0 49.333 23.667 112.666 71 189.999c55.333 90.667 113.333 136 174 136c5.33301 0 11.666 -1.83301 18.999 -5.5
s13.333 -6.16699 18 -7.5l-14 -34c10 2.66699 16.667 2.66699 20 0l15 -23c7.33301 -11.333 11 -18 11 -20c-16 -40.667 -28 -73 -36 -97c-24 -72.667 -36 -129.334 -36 -170.001c1.33301 -2.66699 2.66602 -5.66699 3.99902 -9s2 -8.33301 2 -15
c10.667 0 17.834 -0.666992 21.501 -2s6.5 -3 8.5 -5c8 0 22 8.5 42 25.5s38.333 35.5 55 55.5c10.667 -7.33301 16.667 -11.666 18 -12.999c6 -6 9 -12.667 9 -20zM237.998 382c-20.667 0 -46.6689 -17.667 -78.002 -53l-79 -93c-2 -2.66699 -3.33301 -4.66699 -4 -6
c-3.33301 -6 -6.33301 -13 -9 -21c-4.66699 -14 -10 -32.333 -16 -55c-8 -32 -12 -51.333 -12 -58c0 -2 3.33301 -8 10 -18c3.33301 -5.33301 7 -10.666 11 -15.999c44.667 15.333 87.334 61.666 128.001 138.999c34.667 66.667 54.334 125 59.001 175
c-2.66699 4 -6 6 -10 6zM316.996 536c0 -24 -8.33301 -35.999 -25 -35.999c-7.33301 0 -16.333 4.33301 -27 13l-33 32c-24 9.33301 -47.333 20.333 -70 33c-46 26 -69 49.333 -69 70c0 9.33301 3.66699 16.666 11 21.999s16 8 26 8c6.66699 0 16 -4.66699 28 -14
c16 -12 25 -18.667 27 -20c56.667 -30 95 -55.333 115 -76c11.333 -11.333 17 -22 17 -32z" />
    <glyph glyph-name="aacute" unicode="&#xe1;" horiz-adv-x="402" 
d="M402 96c0 -12 -11.335 -29 -34.002 -51c-29.333 -28.667 -62.666 -43 -99.999 -43c-25.333 0 -45.666 10.333 -60.999 31c-9.33301 12.667 -17.666 31.334 -24.999 56.001c-15.333 -19.333 -27.333 -33.666 -36 -42.999c-28 -29.333 -51 -44 -69 -44
c-4 0 -13.167 5.16699 -27.5 15.5s-21.5 16.5 -21.5 18.5c-8.66699 3.33301 -14.667 8.66602 -18 15.999c-6.66699 14.667 -10 34 -10 58c0 49.333 23.667 112.666 71 189.999c55.333 90.667 113.333 136 174 136c5.33301 0 11.666 -1.83301 18.999 -5.5
s13.333 -6.16699 18 -7.5l-14 -34c10 2.66699 16.667 2.66699 20 0l15 -23c7.33301 -11.333 11 -18 11 -20c-16 -40.667 -28 -73 -36 -97c-24 -72.667 -36 -129.334 -36 -170.001c1.33301 -2.66699 2.66602 -5.66699 3.99902 -9s2 -8.33301 2 -15
c10.667 0 17.834 -0.666992 21.501 -2s6.5 -3 8.5 -5c8 0 22 8.5 42 25.5s38.333 35.5 55 55.5c10.667 -7.33301 16.667 -11.666 18 -12.999c6 -6 9 -12.667 9 -20zM237.998 382c-20.667 0 -46.6689 -17.667 -78.002 -53l-79 -93c-2 -2.66699 -3.33301 -4.66699 -4 -6
c-3.33301 -6 -6.33301 -13 -9 -21c-4.66699 -14 -10 -32.333 -16 -55c-8 -32 -12 -51.333 -12 -58c0 -2 3.33301 -8 10 -18c3.33301 -5.33301 7 -10.666 11 -15.999c44.667 15.333 87.334 61.666 128.001 138.999c34.667 66.667 54.334 125 59.001 175
c-2.66699 4 -6 6 -10 6zM332.996 648c0 -21.333 -22.667 -44.666 -68 -69.999l-71 -33c-11.333 -12.667 -22.333 -23.334 -33 -32.001s-19.667 -13 -27 -13c-6.66699 0 -12.5 3.33301 -17.5 10s-7.5 15.334 -7.5 26.001c0 10 5.66699 20.667 17 32
c20.667 20.667 59 46 115 76l26 20c12 9.33301 21.667 14 29 14c9.33301 0 17.833 -2.83301 25.5 -8.5s11.5 -12.834 11.5 -21.501z" />
    <glyph glyph-name="acircumflex" unicode="&#xe2;" horiz-adv-x="402" 
d="M402 96c0 -12 -11.335 -29 -34.002 -51c-29.333 -28.667 -62.666 -43 -99.999 -43c-25.333 0 -45.666 10.333 -60.999 31c-9.33301 12.667 -17.666 31.334 -24.999 56.001c-15.333 -19.333 -27.333 -33.666 -36 -42.999c-28 -29.333 -51 -44 -69 -44
c-4 0 -13.167 5.16699 -27.5 15.5s-21.5 16.5 -21.5 18.5c-8.66699 3.33301 -14.667 8.66602 -18 15.999c-6.66699 14.667 -10 34 -10 58c0 49.333 23.667 112.666 71 189.999c55.333 90.667 113.333 136 174 136c5.33301 0 11.666 -1.83301 18.999 -5.5
s13.333 -6.16699 18 -7.5l-14 -34c10 2.66699 16.667 2.66699 20 0l15 -23c7.33301 -11.333 11 -18 11 -20c-16 -40.667 -28 -73 -36 -97c-24 -72.667 -36 -129.334 -36 -170.001c1.33301 -2.66699 2.66602 -5.66699 3.99902 -9s2 -8.33301 2 -15
c10.667 0 17.834 -0.666992 21.501 -2s6.5 -3 8.5 -5c8 0 22 8.5 42 25.5s38.333 35.5 55 55.5c10.667 -7.33301 16.667 -11.666 18 -12.999c6 -6 9 -12.667 9 -20zM237.998 382c-20.667 0 -46.6689 -17.667 -78.002 -53l-79 -93c-2 -2.66699 -3.33301 -4.66699 -4 -6
c-3.33301 -6 -6.33301 -13 -9 -21c-4.66699 -14 -10 -32.333 -16 -55c-8 -32 -12 -51.333 -12 -58c0 -2 3.33301 -8 10 -18c3.33301 -5.33301 7 -10.666 11 -15.999c44.667 15.333 87.334 61.666 128.001 138.999c34.667 66.667 54.334 125 59.001 175
c-2.66699 4 -6 6 -10 6zM427.996 471l-27.001 -0.000976562c-44.667 27.333 -74.667 47 -90 59c-21.333 20.667 -53.666 47.667 -96.999 81c-17.333 -14 -44 -34.333 -80 -61c-46 -34 -70.667 -51 -74 -51c-6 0 -16.333 4.83301 -31 14.5s-22 17.834 -22 24.501
c0 10 26.667 34.333 80 73c19.333 14 41 34.333 65 61c16 18 28.667 27 38 27c20 0 47.333 -14 82 -42c42 -33.333 94 -86.333 156 -159v-27z" />
    <glyph glyph-name="atilde" unicode="&#xe3;" horiz-adv-x="402" 
d="M402 96c0 -12 -11.335 -29 -34.002 -51c-29.333 -28.667 -62.666 -43 -99.999 -43c-25.333 0 -45.666 10.333 -60.999 31c-9.33301 12.667 -17.666 31.334 -24.999 56.001c-15.333 -19.333 -27.333 -33.666 -36 -42.999c-28 -29.333 -51 -44 -69 -44
c-4 0 -13.167 5.16699 -27.5 15.5s-21.5 16.5 -21.5 18.5c-8.66699 3.33301 -14.667 8.66602 -18 15.999c-6.66699 14.667 -10 34 -10 58c0 49.333 23.667 112.666 71 189.999c55.333 90.667 113.333 136 174 136c5.33301 0 11.666 -1.83301 18.999 -5.5
s13.333 -6.16699 18 -7.5l-14 -34c10 2.66699 16.667 2.66699 20 0l15 -23c7.33301 -11.333 11 -18 11 -20c-16 -40.667 -28 -73 -36 -97c-24 -72.667 -36 -129.334 -36 -170.001c1.33301 -2.66699 2.66602 -5.66699 3.99902 -9s2 -8.33301 2 -15
c10.667 0 17.834 -0.666992 21.501 -2s6.5 -3 8.5 -5c8 0 22 8.5 42 25.5s38.333 35.5 55 55.5c10.667 -7.33301 16.667 -11.666 18 -12.999c6 -6 9 -12.667 9 -20zM237.998 382c-20.667 0 -46.6689 -17.667 -78.002 -53l-79 -93c-2 -2.66699 -3.33301 -4.66699 -4 -6
c-3.33301 -6 -6.33301 -13 -9 -21c-4.66699 -14 -10 -32.333 -16 -55c-8 -32 -12 -51.333 -12 -58c0 -2 3.33301 -8 10 -18c3.33301 -5.33301 7 -10.666 11 -15.999c44.667 15.333 87.334 61.666 128.001 138.999c34.667 66.667 54.334 125 59.001 175
c-2.66699 4 -6 6 -10 6zM417.996 616c0 -22.667 -18.001 -49 -54.001 -79s-67 -45 -93 -45c-11.333 0 -27.333 8.83301 -48 26.5l-63 55.5c-7.33301 0 -21.333 -8.16699 -42 -24.5l-62 -49.5c-12 5.33301 -20.667 9.33301 -26 12c-17.333 9.33301 -26 17.333 -26 24
c0 20.667 16.5 45.5 49.5 74.5s61.833 43.5 86.5 43.5c20.667 0 39.334 -9.66699 56.001 -29l51 -65c18 0 43 16.667 75 50s50.667 50 56 50c9.33301 -6.66699 16 -11.667 20 -15c13.333 -11.333 20 -21 20 -29z" />
    <glyph glyph-name="adieresis" unicode="&#xe4;" horiz-adv-x="402" 
d="M402 96c0 -12 -11.335 -29 -34.002 -51c-29.333 -28.667 -62.666 -43 -99.999 -43c-25.333 0 -45.666 10.333 -60.999 31c-9.33301 12.667 -17.666 31.334 -24.999 56.001c-15.333 -19.333 -27.333 -33.666 -36 -42.999c-28 -29.333 -51 -44 -69 -44
c-4 0 -13.167 5.16699 -27.5 15.5s-21.5 16.5 -21.5 18.5c-8.66699 3.33301 -14.667 8.66602 -18 15.999c-6.66699 14.667 -10 34 -10 58c0 49.333 23.667 112.666 71 189.999c55.333 90.667 113.333 136 174 136c5.33301 0 11.666 -1.83301 18.999 -5.5
s13.333 -6.16699 18 -7.5l-14 -34c10 2.66699 16.667 2.66699 20 0l15 -23c7.33301 -11.333 11 -18 11 -20c-16 -40.667 -28 -73 -36 -97c-24 -72.667 -36 -129.334 -36 -170.001c1.33301 -2.66699 2.66602 -5.66699 3.99902 -9s2 -8.33301 2 -15
c10.667 0 17.834 -0.666992 21.501 -2s6.5 -3 8.5 -5c8 0 22 8.5 42 25.5s38.333 35.5 55 55.5c10.667 -7.33301 16.667 -11.666 18 -12.999c6 -6 9 -12.667 9 -20zM237.998 382c-20.667 0 -46.6689 -17.667 -78.002 -53l-79 -93c-2 -2.66699 -3.33301 -4.66699 -4 -6
c-3.33301 -6 -6.33301 -13 -9 -21c-4.66699 -14 -10 -32.333 -16 -55c-8 -32 -12 -51.333 -12 -58c0 -2 3.33301 -8 10 -18c3.33301 -5.33301 7 -10.666 11 -15.999c44.667 15.333 87.334 61.666 128.001 138.999c34.667 66.667 54.334 125 59.001 175
c-2.66699 4 -6 6 -10 6zM439.996 567c0 -16 -12.166 -34.499 -36.499 -55.499s-44.5 -31.5 -60.5 -31.5c-12.667 0 -30.334 6 -53.001 18c-14.667 8 -22 15.333 -22 22c0 22.667 14.333 45.667 43 69c25.333 20.667 47 31 65 31c9.33301 0 21 -4.33301 35 -13
c8 -4.66699 15 -7 21 -7c2 -4.66699 3.83301 -9.83398 5.5 -15.501s2.5 -11.5 2.5 -17.5zM247.997 560.001c0 -18.667 -10.332 -38.668 -30.999 -60.001s-42.334 -32 -65.001 -32c-16 0 -32.333 4 -49 12c-22 10.667 -33 24 -33 40c0 13.333 8.66699 30.333 26 51
c20 23.333 40 35 60 35c20.667 -3.33301 36 -6.33301 46 -9c30.667 -9.33301 46 -21.666 46 -36.999z" />
    <glyph glyph-name="aring" unicode="&#xe5;" horiz-adv-x="402" 
d="M402 96c0 -12 -11.335 -29 -34.002 -51c-29.333 -28.667 -62.666 -43 -99.999 -43c-25.333 0 -45.666 10.333 -60.999 31c-9.33301 12.667 -17.666 31.334 -24.999 56.001c-15.333 -19.333 -27.333 -33.666 -36 -42.999c-28 -29.333 -51 -44 -69 -44
c-4 0 -13.167 5.16699 -27.5 15.5s-21.5 16.5 -21.5 18.5c-8.66699 3.33301 -14.667 8.66602 -18 15.999c-6.66699 14.667 -10 34 -10 58c0 49.333 23.667 112.666 71 189.999c55.333 90.667 113.333 136 174 136c5.33301 0 11.666 -1.83301 18.999 -5.5
s13.333 -6.16699 18 -7.5l-14 -34c10 2.66699 16.667 2.66699 20 0l15 -23c7.33301 -11.333 11 -18 11 -20c-16 -40.667 -28 -73 -36 -97c-24 -72.667 -36 -129.334 -36 -170.001c1.33301 -2.66699 2.66602 -5.66699 3.99902 -9s2 -8.33301 2 -15
c10.667 0 17.834 -0.666992 21.501 -2s6.5 -3 8.5 -5c8 0 22 8.5 42 25.5s38.333 35.5 55 55.5c10.667 -7.33301 16.667 -11.666 18 -12.999c6 -6 9 -12.667 9 -20zM237.998 382c-20.667 0 -46.6689 -17.667 -78.002 -53l-79 -93c-2 -2.66699 -3.33301 -4.66699 -4 -6
c-3.33301 -6 -6.33301 -13 -9 -21c-4.66699 -14 -10 -32.333 -16 -55c-8 -32 -12 -51.333 -12 -58c0 -2 3.33301 -8 10 -18c3.33301 -5.33301 7 -10.666 11 -15.999c44.667 15.333 87.334 61.666 128.001 138.999c34.667 66.667 54.334 125 59.001 175
c-2.66699 4 -6 6 -10 6zM378.996 625c0 -25.333 -15.333 -51.332 -46 -77.999c-28 -24 -51.333 -36 -70 -36c-28 0 -50.167 11.167 -66.5 33.5s-24.5 47.166 -24.5 74.499c0 24.667 14 50.667 42 78s54 41 78 41c18 0 36 -9.33301 54 -28c22 -22.667 33 -51 33 -85z
M330.996 640.001c0 10.667 -5.5 20 -16.5 28s-21.167 12 -30.5 12c-12 0 -25.667 -9 -41 -27s-23 -33 -23 -45c0 -6 4.33301 -12.667 13 -20c2.66699 -2 7 -5 13 -9c15.333 0 33.333 6.83301 54 20.5s31 27.167 31 40.5z" />
    <glyph glyph-name="ae" unicode="&#xe6;" horiz-adv-x="450" 
d="M450 346c0 -59.333 -17.3379 -101.331 -52.0049 -125.998c-26.667 -18.667 -65.334 -28 -116.001 -28c-10 0 -17.5 -6.33301 -22.5 -19s-7.5 -28.667 -7.5 -48c0 -29.333 6.33301 -50.833 19 -64.5s28.334 -20.5 47.001 -20.5c8 0 24.833 8 50.5 24s42.834 30 51.501 42
c12.667 -14 20.834 -23.833 24.501 -29.5s5.5 -15.167 5.5 -28.5c-11.333 -12 -21.666 -21 -30.999 -27c-28.667 -18 -63.334 -27 -104.001 -27c-34.667 0 -61 10 -79 30c-8 9.33301 -18 27.666 -30 54.999l-36 -49c-17.333 -20 -48.333 -30 -93 -30
c-26 0 -45 8.83301 -57 26.5s-18 39.5 -18 65.5c0 74 27.333 147.5 82 220.5s106.334 109.5 155.001 109.5c12.667 0 22.667 -2.66699 30 -8c2.66699 -2 12.667 -14.667 30 -38c12.667 19.333 22.334 31 29.001 35s13.334 7.66699 20.001 11
c10 2.66699 19.667 4.16699 29 4.5s18.333 0.5 27 0.5c12 0 22.667 -7.83301 32 -23.5s14 -34.834 14 -57.501zM384.995 356.002c-2.66699 9.33301 -7.66602 14 -14.999 14c-12.667 0 -27.834 -12.5 -45.501 -37.5s-26.5 -45.167 -26.5 -60.5c0 -10 4.66699 -15 14 -15
c22 0 40.5 6.5 55.5 19.5s22.5 29.833 22.5 50.5c0 8 -1.66699 17.667 -5 29zM232.996 363.002c-38 -24.667 -75.666 -71.001 -112.999 -139.001c-34.667 -63.333 -52 -110.666 -52 -141.999c0 -6.66699 0.666992 -11.167 2 -13.5s2.66602 -5.5 3.99902 -9.5
c28 -9.33301 61.5 24 100.5 100s58.5 144 58.5 204z" />
    <glyph glyph-name="ccedilla" unicode="&#xe7;" horiz-adv-x="338" 
d="M338 -251c0 -16.667 -2.50098 -32.001 -7.50098 -46.001s-11.167 -21 -18.5 -21c-10 -26.667 -25.333 -47.667 -46 -63c-24.667 -18.667 -57 -28 -97 -28c-31.333 0 -64.333 4 -99 12c-45.333 10.667 -68 24 -68 40c0 15.333 39.333 26.333 118 33s118 36.334 118 89.001
c0 12 -4 20 -12 24s-20 6 -36 6h-22c-7.33301 0 -14.666 -0.333008 -21.999 -1c-24.667 0 -42.667 3.66699 -54 11c-16 10 -24 28.667 -24 56c11.333 30.667 21 53.667 29 69c24.667 46 50 69 76 69c20.667 0 34.667 -2.5 42 -7.5s11 -15.5 11 -31.5
c0 -11.333 -4.33301 -26.333 -13 -45c-11.333 -23.333 -18 -39.333 -20 -48c56 0 91.667 -4.33301 107 -13c25.333 -14.667 38 -49.667 38 -105zM361.999 359.999c-1.33301 -2.66699 -4.66797 -8.66406 -10.001 -17.9971s-12.333 -14 -21 -14c-3.33301 0 -13.333 9 -30 27
s-31 27 -43 27c-25.333 0 -62.666 -26 -111.999 -78c-57.333 -60 -86 -118.667 -86 -176c0 -29.333 4.5 -50 13.5 -62s25.833 -18 50.5 -18c23.333 0 48.666 9.33301 75.999 28c78.667 53.333 121.667 81.333 129 84c3.33301 -2.66699 6 -4.33398 8 -5.00098
s3.66699 -1.33398 5 -2.00098c-3.33301 -9.33301 -5.66602 -17.666 -6.99902 -24.999s-2 -13 -2 -17c0 -2.66699 0.166992 -4.83398 0.5 -6.50098s0.833008 -3.16699 1.5 -4.5c-2 -8.66699 -24 -26.334 -66 -53.001c-50 -31.333 -93.667 -47 -131 -47c-54 0 -92 15 -114 45
c-16 22 -24 54 -24 96c0 54.667 26.333 115 79 181c56 70.667 112.333 106 169 106c20 0 42.333 -9.33301 67 -28z" />
    <glyph glyph-name="egrave" unicode="&#xe8;" horiz-adv-x="354" 
d="M294 348c0 2.66699 -1.00098 5.83301 -3.00098 9.5s-3.33301 7.16699 -4 10.5c-18.667 -6 -34 -11.333 -46 -16c-39.333 -16.667 -88.666 -67 -147.999 -151h27c39.333 20.667 75 44.667 107 72c44.667 38 67 63 67 75zM66.999 146.999
c-4.66699 -14 -7.00098 -21.3311 -7.00098 -21.998c0 -20.667 10.667 -38.334 32 -53.001c17.333 -12 33 -18 47 -18c14.667 0 40.667 7.33301 78 22s67.333 29.667 90 45c1.33301 -4.66699 2.83301 -8.83398 4.5 -12.501s2.5 -8.16699 2.5 -13.5
c0 -28.667 -16.333 -51.667 -49 -69s-71 -26 -115 -26c-39.333 0 -74.166 11.167 -104.499 33.5s-45.5 47.166 -45.5 74.499c0 64.667 29.5 132.167 88.5 202.5s115.167 105.5 168.5 105.5c21.333 0 38.166 -1.5 50.499 -4.5s18.5 -8.16699 18.5 -15.5
c6.66699 -5.33301 11.334 -10 14.001 -14c9.33301 -12 14 -25.667 14 -41c0 -26 -27.667 -64.333 -83 -115c-47.333 -43.333 -77.666 -67.333 -90.999 -72c-25.333 -8 -48 -12 -68 -12h-16c-12.667 2.66699 -22.334 4.33398 -29.001 5.00098zM316.998 536.001
c0 -24 -8.33301 -35.999 -25 -35.999c-7.33301 0 -16.333 4.33301 -27 13l-33 32c-24 9.33301 -47.333 20.333 -70 33c-46 26 -69 49.333 -69 70c0 9.33301 3.66699 16.666 11 21.999s16 8 26 8c6.66699 0 16 -4.66699 28 -14c16 -12 25 -18.667 27 -20
c56.667 -30 95 -55.333 115 -76c11.333 -11.333 17 -22 17 -32z" />
    <glyph glyph-name="eacute" unicode="&#xe9;" horiz-adv-x="326" 
d="M294 348c0 2.66699 -1.00098 5.83301 -3.00098 9.5s-3.33301 7.16699 -4 10.5c-18.667 -6 -34 -11.333 -46 -16c-39.333 -16.667 -88.666 -67 -147.999 -151h27c39.333 20.667 75 44.667 107 72c44.667 38 67 63 67 75zM66.999 146.999
c-4.66699 -14 -7.00098 -21.3311 -7.00098 -21.998c0 -20.667 10.667 -38.334 32 -53.001c17.333 -12 33 -18 47 -18c14.667 0 40.667 7.33301 78 22s67.333 29.667 90 45c1.33301 -4.66699 2.83301 -8.83398 4.5 -12.501s2.5 -8.16699 2.5 -13.5
c0 -28.667 -16.333 -51.667 -49 -69s-71 -26 -115 -26c-39.333 0 -74.166 11.167 -104.499 33.5s-45.5 47.166 -45.5 74.499c0 64.667 29.5 132.167 88.5 202.5s115.167 105.5 168.5 105.5c21.333 0 38.166 -1.5 50.499 -4.5s18.5 -8.16699 18.5 -15.5
c6.66699 -5.33301 11.334 -10 14.001 -14c9.33301 -12 14 -25.667 14 -41c0 -26 -27.667 -64.333 -83 -115c-47.333 -43.333 -77.666 -67.333 -90.999 -72c-25.333 -8 -48 -12 -68 -12h-16c-12.667 2.66699 -22.334 4.33398 -29.001 5.00098zM332.998 648.001
c0 -21.333 -22.667 -44.666 -68 -69.999l-71 -33c-11.333 -12.667 -22.333 -23.334 -33 -32.001s-19.667 -13 -27 -13c-6.66699 0 -12.5 3.33301 -17.5 10s-7.5 15.334 -7.5 26.001c0 10 5.66699 20.667 17 32c20.667 20.667 59 46 115 76l26 20c12 9.33301 21.667 14 29 14
c9.33301 0 17.833 -2.83301 25.5 -8.5s11.5 -12.834 11.5 -21.501z" />
    <glyph glyph-name="ecircumflex" unicode="&#xea;" horiz-adv-x="326" 
d="M294 348c0 2.66699 -1.00098 5.83301 -3.00098 9.5s-3.33301 7.16699 -4 10.5c-18.667 -6 -34 -11.333 -46 -16c-39.333 -16.667 -88.666 -67 -147.999 -151h27c39.333 20.667 75 44.667 107 72c44.667 38 67 63 67 75zM66.999 146.999
c-4.66699 -14 -7.00098 -21.3311 -7.00098 -21.998c0 -20.667 10.667 -38.334 32 -53.001c17.333 -12 33 -18 47 -18c14.667 0 40.667 7.33301 78 22s67.333 29.667 90 45c1.33301 -4.66699 2.83301 -8.83398 4.5 -12.501s2.5 -8.16699 2.5 -13.5
c0 -28.667 -16.333 -51.667 -49 -69s-71 -26 -115 -26c-39.333 0 -74.166 11.167 -104.499 33.5s-45.5 47.166 -45.5 74.499c0 64.667 29.5 132.167 88.5 202.5s115.167 105.5 168.5 105.5c21.333 0 38.166 -1.5 50.499 -4.5s18.5 -8.16699 18.5 -15.5
c6.66699 -5.33301 11.334 -10 14.001 -14c9.33301 -12 14 -25.667 14 -41c0 -26 -27.667 -64.333 -83 -115c-47.333 -43.333 -77.666 -67.333 -90.999 -72c-25.333 -8 -48 -12 -68 -12h-16c-12.667 2.66699 -22.334 4.33398 -29.001 5.00098zM427.998 471.001
l-27.001 -0.000976562c-44.667 27.333 -74.667 47 -90 59c-21.333 20.667 -53.666 47.667 -96.999 81c-17.333 -14 -44 -34.333 -80 -61c-46 -34 -70.667 -51 -74 -51c-6 0 -16.333 4.83301 -31 14.5s-22 17.834 -22 24.501c0 10 26.667 34.333 80 73
c19.333 14 41 34.333 65 61c16 18 28.667 27 38 27c20 0 47.333 -14 82 -42c42 -33.333 94 -86.333 156 -159v-27z" />
    <glyph glyph-name="edieresis" unicode="&#xeb;" horiz-adv-x="326" 
d="M294 348c0 2.66699 -1.00098 5.83301 -3.00098 9.5s-3.33301 7.16699 -4 10.5c-18.667 -6 -34 -11.333 -46 -16c-39.333 -16.667 -88.666 -67 -147.999 -151h27c39.333 20.667 75 44.667 107 72c44.667 38 67 63 67 75zM66.999 146.999
c-4.66699 -14 -7.00098 -21.3311 -7.00098 -21.998c0 -20.667 10.667 -38.334 32 -53.001c17.333 -12 33 -18 47 -18c14.667 0 40.667 7.33301 78 22s67.333 29.667 90 45c1.33301 -4.66699 2.83301 -8.83398 4.5 -12.501s2.5 -8.16699 2.5 -13.5
c0 -28.667 -16.333 -51.667 -49 -69s-71 -26 -115 -26c-39.333 0 -74.166 11.167 -104.499 33.5s-45.5 47.166 -45.5 74.499c0 64.667 29.5 132.167 88.5 202.5s115.167 105.5 168.5 105.5c21.333 0 38.166 -1.5 50.499 -4.5s18.5 -8.16699 18.5 -15.5
c6.66699 -5.33301 11.334 -10 14.001 -14c9.33301 -12 14 -25.667 14 -41c0 -26 -27.667 -64.333 -83 -115c-47.333 -43.333 -77.666 -67.333 -90.999 -72c-25.333 -8 -48 -12 -68 -12h-16c-12.667 2.66699 -22.334 4.33398 -29.001 5.00098zM439.998 567.001
c0 -16 -12.166 -34.499 -36.499 -55.499s-44.5 -31.5 -60.5 -31.5c-12.667 0 -30.334 6 -53.001 18c-14.667 8 -22 15.333 -22 22c0 22.667 14.333 45.667 43 69c25.333 20.667 47 31 65 31c9.33301 0 21 -4.33301 35 -13c8 -4.66699 15 -7 21 -7
c2 -4.66699 3.83301 -9.83398 5.5 -15.501s2.5 -11.5 2.5 -17.5zM247.999 560.002c0 -18.667 -10.332 -38.668 -30.999 -60.001s-42.334 -32 -65.001 -32c-16 0 -32.333 4 -49 12c-22 10.667 -33 24 -33 40c0 13.333 8.66699 30.333 26 51c20 23.333 40 35 60 35
c20.667 -3.33301 36 -6.33301 46 -9c30.667 -9.33301 46 -21.666 46 -36.999z" />
    <glyph glyph-name="igrave" unicode="&#xec;" horiz-adv-x="172" 
d="M124 315c-12 -42 -22.666 -86.498 -31.999 -133.498s-14 -90.167 -14 -129.5c0 -8 -7 -19 -21 -33s-23 -21 -27 -21c-1.33301 1.33301 -3.33301 2.66602 -6 3.99902s-7 2 -13 2c-2.66699 8 -5 16 -7 24c4 18.667 7.66699 35 11 49c9.33301 37.333 21.666 82 36.999 134
c6 20 13 58.667 21 116c4.66699 34 13 51 25 51c8.66699 0 15.167 -6.33301 19.5 -19s6.5 -27.334 6.5 -44.001zM197.001 466.002c0 -24 -8.33301 -35.999 -25 -35.999c-7.33301 0 -16.333 4.33301 -27 13l-33 32c-24 9.33301 -47.333 20.333 -70 33
c-46 26 -69 49.333 -69 70c0 9.33301 3.66699 16.666 11 21.999s16 8 26 8c6.66699 0 16 -4.66699 28 -14c16 -12 25 -18.667 27 -20c56.667 -30 95 -55.333 115 -76c11.333 -11.333 17 -22 17 -32z" />
    <glyph glyph-name="iacute" unicode="&#xed;" horiz-adv-x="172" 
d="M124 315c-12 -42 -22.666 -86.498 -31.999 -133.498s-14 -90.167 -14 -129.5c0 -8 -7 -19 -21 -33s-23 -21 -27 -21c-1.33301 1.33301 -3.33301 2.66602 -6 3.99902s-7 2 -13 2c-2.66699 8 -5 16 -7 24c4 18.667 7.66699 35 11 49c9.33301 37.333 21.666 82 36.999 134
c6 20 13 58.667 21 116c4.66699 34 13 51 25 51c8.66699 0 15.167 -6.33301 19.5 -19s6.5 -27.334 6.5 -44.001zM293.001 648.002c0 -21.333 -22.667 -44.666 -68 -69.999l-71 -33c-11.333 -12.667 -22.333 -23.334 -33 -32.001s-19.667 -13 -27 -13
c-6.66699 0 -12.5 3.33301 -17.5 10s-7.5 15.334 -7.5 26.001c0 10 5.66699 20.667 17 32c20.667 20.667 59 46 115 76l26 20c12 9.33301 21.667 14 29 14c9.33301 0 17.833 -2.83301 25.5 -8.5s11.5 -12.834 11.5 -21.501z" />
    <glyph glyph-name="icircumflex" unicode="&#xee;" horiz-adv-x="172" 
d="M124 315c-12 -42 -22.666 -86.498 -31.999 -133.498s-14 -90.167 -14 -129.5c0 -8 -7 -19 -21 -33s-23 -21 -27 -21c-1.33301 1.33301 -3.33301 2.66602 -6 3.99902s-7 2 -13 2c-2.66699 8 -5 16 -7 24c4 18.667 7.66699 35 11 49c9.33301 37.333 21.666 82 36.999 134
c6 20 13 58.667 21 116c4.66699 34 13 51 25 51c8.66699 0 15.167 -6.33301 19.5 -19s6.5 -27.334 6.5 -44.001zM328.001 471.002l-27.001 -0.000976562c-44.667 27.333 -74.667 47 -90 59c-21.333 20.667 -53.666 47.667 -96.999 81c-17.333 -14 -44 -34.333 -80 -61
c-46 -34 -70.667 -51 -74 -51c-6 0 -16.333 4.83301 -31 14.5s-22 17.834 -22 24.501c0 10 26.667 34.333 80 73c19.333 14 41 34.333 65 61c16 18 28.667 27 38 27c20 0 47.333 -14 82 -42c42 -33.333 94 -86.333 156 -159v-27z" />
    <glyph glyph-name="idieresis" unicode="&#xef;" horiz-adv-x="172" 
d="M124 315c-12 -42 -22.666 -86.498 -31.999 -133.498s-14 -90.167 -14 -129.5c0 -8 -7 -19 -21 -33s-23 -21 -27 -21c-1.33301 1.33301 -3.33301 2.66602 -6 3.99902s-7 2 -13 2c-2.66699 8 -5 16 -7 24c4 18.667 7.66699 35 11 49c9.33301 37.333 21.666 82 36.999 134
c6 20 13 58.667 21 116c4.66699 34 13 51 25 51c8.66699 0 15.167 -6.33301 19.5 -19s6.5 -27.334 6.5 -44.001zM310.001 567.002c0 -16 -12.166 -34.499 -36.499 -55.499s-44.5 -31.5 -60.5 -31.5c-12.667 0 -30.334 6 -53.001 18c-14.667 8 -22 15.333 -22 22
c0 22.667 14.333 45.667 43 69c25.333 20.667 47 31 65 31c9.33301 0 21 -4.33301 35 -13c8 -4.66699 15 -7 21 -7c2 -4.66699 3.83301 -9.83398 5.5 -15.501s2.5 -11.5 2.5 -17.5zM118.002 560.003c0 -18.667 -10.332 -38.668 -30.999 -60.001s-42.334 -32 -65.001 -32
c-16 0 -32.333 4 -49 12c-22 10.667 -33 24 -33 40c0 13.333 8.66699 30.333 26 51c20 23.333 40 35 60 35c20.667 -3.33301 36 -6.33301 46 -9c30.667 -9.33301 46 -21.666 46 -36.999z" />
    <glyph glyph-name="eth" unicode="&#xf0;" horiz-adv-x="353" 
d="M353 313c0 -50.667 -21.667 -111.997 -65 -183.997c-52 -86 -108.667 -129 -170 -129c-37.333 0 -65.833 14.167 -85.5 42.5s-29.5 62.5 -29.5 102.5c0 24 16.667 64.667 50 122c36.667 64 72.667 106.667 108 128c5.33301 3.33301 12.333 5.66602 21 6.99902
s17.667 2 27 2h25c6.66699 0 13.334 0.166992 20.001 0.5s13.334 1.5 20.001 3.5l-30 48c-20.667 30.667 -35 46 -43 46c-2.66699 0 -12.334 -8.16699 -29.001 -24.5l-30 -29.5h-33l-8 30c0 15.333 18 38.333 54 69c-5.33301 8.66699 -22.333 31.667 -51 69l-35 43v40h33
c20 -15.333 33 -26.333 39 -33l60 -73c17.333 12 31.666 24.333 42.999 37c28 30 46.667 48.333 56 55h40l5 -29c0 -16.667 -15.333 -38.334 -46 -65.001s-46 -43.334 -46 -50.001c26 -22.667 49.167 -53 69.5 -91s30.5 -83.667 30.5 -137zM280 296.003v39.999
c-10.667 2 -20.5 3.5 -29.5 4.5s-16.833 1.5 -23.5 1.5c-36 0 -72 -23.333 -108 -70c-33.333 -42.667 -50 -80.667 -50 -114c0 -18 5.83301 -37.833 17.5 -59.5s21.167 -32.5 28.5 -32.5c38 0 73.667 30 107 90c16 28.667 35.333 75.334 58 140.001z" />
    <glyph glyph-name="ntilde" unicode="&#xf1;" horiz-adv-x="378" 
d="M111 246l68.998 98c47.333 60 84 90 110 90c12 0 27.333 -9.33301 46 -28c28 -28 42 -65.667 42 -113c0 -4 -7.33301 -44 -22 -120c-10.667 -55.333 -19 -111 -25 -167c-5.33301 -4 -9.66602 -6 -12.999 -6c-12 0 -24 6 -36 18c-8 8 -12 15 -12 21
c0 17.333 9 59.666 27 126.999s27 117.666 27 150.999c0 7.33301 -8.66699 26 -26 56h-14c-22 -20 -41 -40 -57 -60c-18 -22.667 -43.333 -62.667 -76 -120c-3.33301 -6 -24.333 -51.667 -63 -137c-16.667 -37.333 -36 -56 -58 -56c-1.33301 4.66699 -2.66602 8 -3.99902 10
c-4.66699 6.66699 -12 10 -22 10c-4 0 -6 2 -6 6l6 33l93 394h27c5.33301 -5.33301 9.83301 -9.16602 13.5 -11.499s10.167 -5.16602 19.5 -8.49902c-10 -20.667 -17 -39.167 -21 -55.5s-8 -37.833 -12 -64.5zM417.998 596c0 -22.667 -18.001 -49 -54.001 -79
s-67 -45 -93 -45c-11.333 0 -27.333 8.83301 -48 26.5l-63 55.5c-7.33301 0 -21.333 -8.16699 -42 -24.5l-62 -49.5c-12 5.33301 -20.667 9.33301 -26 12c-17.333 9.33301 -26 17.333 -26 24c0 20.667 16.5 45.5 49.5 74.5s61.833 43.5 86.5 43.5
c20.667 0 39.334 -9.66699 56.001 -29l51 -65c18 0 43 16.667 75 50s50.667 50 56 50c9.33301 -6.66699 16 -11.667 20 -15c13.333 -11.333 20 -21 20 -29z" />
    <glyph glyph-name="ograve" unicode="&#xf2;" horiz-adv-x="334" 
d="M334 342c0 -12 -4.33398 -29.001 -13.001 -51.001s-13 -37.333 -13 -46c0 -27.333 -20.667 -71.666 -62 -132.999c-50 -74.667 -100.667 -112 -152 -112c-32 0 -56.333 10 -73 30c-14 16.667 -21 38 -21 64c0 24 11 63 33 117c25.333 62 54 113.333 86 154
c40.667 51.333 80.334 77 119.001 77c11.333 0 29.333 -11 54 -33c28 -24.667 42 -47 42 -67zM261.999 343.999c-6.66699 10.667 -11.6689 18.333 -15.002 23c-9.33301 14 -15.666 23 -18.999 27c-12 -22.667 -26.667 -38.334 -44 -47.001
c-5.33301 -2.66699 -12.666 -4.66699 -21.999 -6c1.33301 -6.66699 2 -13 2 -19c0 -6.66699 -2.83301 -13.167 -8.5 -19.5s-17.167 -13.5 -34.5 -21.5c2 -4 3 -9 3 -15c0 -15.333 -7 -40 -21 -74l-43 -104c0 -4 2.16699 -8.33301 6.5 -13l14.5 -15c46 22 85.333 59 118 111
c42 66.667 63 124.334 63 173.001zM286.997 535.998c0 -24 -8.33301 -35.999 -25 -35.999c-7.33301 0 -16.333 4.33301 -27 13l-33 32c-24 9.33301 -47.333 20.333 -70 33c-46 26 -69 49.333 -69 70c0 9.33301 3.66699 16.666 11 21.999s16 8 26 8
c6.66699 0 16 -4.66699 28 -14c16 -12 25 -18.667 27 -20c56.667 -30 95 -55.333 115 -76c11.333 -11.333 17 -22 17 -32z" />
    <glyph glyph-name="oacute" unicode="&#xf3;" horiz-adv-x="334" 
d="M334 342c0 -12 -4.33398 -29.001 -13.001 -51.001s-13 -37.333 -13 -46c0 -27.333 -20.667 -71.666 -62 -132.999c-50 -74.667 -100.667 -112 -152 -112c-32 0 -56.333 10 -73 30c-14 16.667 -21 38 -21 64c0 24 11 63 33 117c25.333 62 54 113.333 86 154
c40.667 51.333 80.334 77 119.001 77c11.333 0 29.333 -11 54 -33c28 -24.667 42 -47 42 -67zM261.999 343.999c-6.66699 10.667 -11.6689 18.333 -15.002 23c-9.33301 14 -15.666 23 -18.999 27c-12 -22.667 -26.667 -38.334 -44 -47.001
c-5.33301 -2.66699 -12.666 -4.66699 -21.999 -6c1.33301 -6.66699 2 -13 2 -19c0 -6.66699 -2.83301 -13.167 -8.5 -19.5s-17.167 -13.5 -34.5 -21.5c2 -4 3 -9 3 -15c0 -15.333 -7 -40 -21 -74l-43 -104c0 -4 2.16699 -8.33301 6.5 -13l14.5 -15c46 22 85.333 59 118 111
c42 66.667 63 124.334 63 173.001zM332.997 647.998c0 -21.333 -22.667 -44.666 -68 -69.999l-71 -33c-11.333 -12.667 -22.333 -23.334 -33 -32.001s-19.667 -13 -27 -13c-6.66699 0 -12.5 3.33301 -17.5 10s-7.5 15.334 -7.5 26.001c0 10 5.66699 20.667 17 32
c20.667 20.667 59 46 115 76l26 20c12 9.33301 21.667 14 29 14c9.33301 0 17.833 -2.83301 25.5 -8.5s11.5 -12.834 11.5 -21.501z" />
    <glyph glyph-name="ocircumflex" unicode="&#xf4;" horiz-adv-x="334" 
d="M334 342c0 -12 -4.33398 -29.001 -13.001 -51.001s-13 -37.333 -13 -46c0 -27.333 -20.667 -71.666 -62 -132.999c-50 -74.667 -100.667 -112 -152 -112c-32 0 -56.333 10 -73 30c-14 16.667 -21 38 -21 64c0 24 11 63 33 117c25.333 62 54 113.333 86 154
c40.667 51.333 80.334 77 119.001 77c11.333 0 29.333 -11 54 -33c28 -24.667 42 -47 42 -67zM261.999 343.999c-6.66699 10.667 -11.6689 18.333 -15.002 23c-9.33301 14 -15.666 23 -18.999 27c-12 -22.667 -26.667 -38.334 -44 -47.001
c-5.33301 -2.66699 -12.666 -4.66699 -21.999 -6c1.33301 -6.66699 2 -13 2 -19c0 -6.66699 -2.83301 -13.167 -8.5 -19.5s-17.167 -13.5 -34.5 -21.5c2 -4 3 -9 3 -15c0 -15.333 -7 -40 -21 -74l-43 -104c0 -4 2.16699 -8.33301 6.5 -13l14.5 -15c46 22 85.333 59 118 111
c42 66.667 63 124.334 63 173.001zM427.997 470.998l-27.001 -0.000976562c-44.667 27.333 -74.667 47 -90 59c-21.333 20.667 -53.666 47.667 -96.999 81c-17.333 -14 -44 -34.333 -80 -61c-46 -34 -70.667 -51 -74 -51c-6 0 -16.333 4.83301 -31 14.5
s-22 17.834 -22 24.501c0 10 26.667 34.333 80 73c19.333 14 41 34.333 65 61c16 18 28.667 27 38 27c20 0 47.333 -14 82 -42c42 -33.333 94 -86.333 156 -159v-27z" />
    <glyph glyph-name="otilde" unicode="&#xf5;" horiz-adv-x="334" 
d="M334 342c0 -12 -4.33398 -29.001 -13.001 -51.001s-13 -37.333 -13 -46c0 -27.333 -20.667 -71.666 -62 -132.999c-50 -74.667 -100.667 -112 -152 -112c-32 0 -56.333 10 -73 30c-14 16.667 -21 38 -21 64c0 24 11 63 33 117c25.333 62 54 113.333 86 154
c40.667 51.333 80.334 77 119.001 77c11.333 0 29.333 -11 54 -33c28 -24.667 42 -47 42 -67zM261.999 343.999c-6.66699 10.667 -11.6689 18.333 -15.002 23c-9.33301 14 -15.666 23 -18.999 27c-12 -22.667 -26.667 -38.334 -44 -47.001
c-5.33301 -2.66699 -12.666 -4.66699 -21.999 -6c1.33301 -6.66699 2 -13 2 -19c0 -6.66699 -2.83301 -13.167 -8.5 -19.5s-17.167 -13.5 -34.5 -21.5c2 -4 3 -9 3 -15c0 -15.333 -7 -40 -21 -74l-43 -104c0 -4 2.16699 -8.33301 6.5 -13l14.5 -15c46 22 85.333 59 118 111
c42 66.667 63 124.334 63 173.001zM417.997 605.998c0 -22.667 -18.001 -49 -54.001 -79s-67 -45 -93 -45c-11.333 0 -27.333 8.83301 -48 26.5l-63 55.5c-7.33301 0 -21.333 -8.16699 -42 -24.5l-62 -49.5c-12 5.33301 -20.667 9.33301 -26 12
c-17.333 9.33301 -26 17.333 -26 24c0 20.667 16.5 45.5 49.5 74.5s61.833 43.5 86.5 43.5c20.667 0 39.334 -9.66699 56.001 -29l51 -65c18 0 43 16.667 75 50s50.667 50 56 50c9.33301 -6.66699 16 -11.667 20 -15c13.333 -11.333 20 -21 20 -29z" />
    <glyph glyph-name="odieresis" unicode="&#xf6;" horiz-adv-x="334" 
d="M334 342c0 -12 -4.33398 -29.001 -13.001 -51.001s-13 -37.333 -13 -46c0 -27.333 -20.667 -71.666 -62 -132.999c-50 -74.667 -100.667 -112 -152 -112c-32 0 -56.333 10 -73 30c-14 16.667 -21 38 -21 64c0 24 11 63 33 117c25.333 62 54 113.333 86 154
c40.667 51.333 80.334 77 119.001 77c11.333 0 29.333 -11 54 -33c28 -24.667 42 -47 42 -67zM261.999 343.999c-6.66699 10.667 -11.6689 18.333 -15.002 23c-9.33301 14 -15.666 23 -18.999 27c-12 -22.667 -26.667 -38.334 -44 -47.001
c-5.33301 -2.66699 -12.666 -4.66699 -21.999 -6c1.33301 -6.66699 2 -13 2 -19c0 -6.66699 -2.83301 -13.167 -8.5 -19.5s-17.167 -13.5 -34.5 -21.5c2 -4 3 -9 3 -15c0 -15.333 -7 -40 -21 -74l-43 -104c0 -4 2.16699 -8.33301 6.5 -13l14.5 -15c46 22 85.333 59 118 111
c42 66.667 63 124.334 63 173.001zM439.997 566.998c0 -16 -12.166 -34.499 -36.499 -55.499s-44.5 -31.5 -60.5 -31.5c-12.667 0 -30.334 6 -53.001 18c-14.667 8 -22 15.333 -22 22c0 22.667 14.333 45.667 43 69c25.333 20.667 47 31 65 31c9.33301 0 21 -4.33301 35 -13
c8 -4.66699 15 -7 21 -7c2 -4.66699 3.83301 -9.83398 5.5 -15.501s2.5 -11.5 2.5 -17.5zM247.998 559.999c0 -18.667 -10.332 -38.668 -30.999 -60.001s-42.334 -32 -65.001 -32c-16 0 -32.333 4 -49 12c-22 10.667 -33 24 -33 40c0 13.333 8.66699 30.333 26 51
c20 23.333 40 35 60 35c20.667 -3.33301 36 -6.33301 46 -9c30.667 -9.33301 46 -21.666 46 -36.999z" />
    <glyph glyph-name="divide" unicode="&#xf7;" horiz-adv-x="418" 
d="M306 537c0 -13.333 -12.167 -28.168 -36.5 -44.501s-42.833 -24.5 -55.5 -24.5c-44 0 -66 24 -66 72c0 21.333 9.66699 39.333 29 54c16 12 31.667 18 47 18c14.667 0 32 -8.66699 52 -26s30 -33.666 30 -48.999zM418 390.998c0 -16.667 -32.668 -30.667 -98.001 -42
c-80 -14 -156 -21 -228 -21c-8 0 -15.333 -0.166992 -22 -0.5s-12.667 -0.5 -18 -0.5c-14.667 0 -25 6.33301 -31 19c-0.666992 0.666992 -6.66699 16.667 -18 48c10 6 68.833 14.167 176.5 24.5s170.834 15.5 189.501 15.5c15.333 0 27.333 -4 36 -12s13 -18.333 13 -31z
M305.999 235.998c-12.667 -19.333 -23 -33.667 -31 -43c-25.333 -28.667 -50 -43 -74 -43c-16 0 -29.833 7.83301 -41.5 23.5s-17.5 35.167 -17.5 58.5c0 24.667 15 45.667 45 63c24 14 45 21 63 21c6.66699 0 17.667 -10.667 33 -32s23 -37.333 23 -48z" />
    <glyph glyph-name="oslash" unicode="&#xf8;" horiz-adv-x="440" 
d="M440 410c0 -23.333 -8.99609 -43.668 -26.9961 -61.001s-27 -31 -27 -41l18.5 -34c6.33301 -11.333 9.5 -22 9.5 -32c0 -44.667 -8.33301 -82.334 -25 -113.001c-18 -23.333 -27.333 -35.333 -28 -36c-24 -36 -47.333 -61.667 -70 -77
c-18.667 -12.667 -38.334 -19 -59.001 -19c-11.333 0 -35 5.66699 -71 17c-16.667 5.33301 -29.334 7.33301 -38.001 6c-10 -1.33301 -21.333 -8 -34 -20c-34 -32.667 -53.333 -50 -58 -52c-5.33301 6.66699 -9.33301 11.334 -12 14.001
c-4.66699 4.66699 -9.66699 8.66699 -15 12v20c14 14.667 26.833 26.167 38.5 34.5l34.5 24.5c6 8 9 20.667 9 38c0 5.33301 -0.333008 15 -1 29s-1 25.333 -1 34c0 24 2.66699 47.667 8 71s15.666 47.833 30.999 73.5s43.333 44.167 84 55.5c28.667 8 60.667 12 96 12
c9.33301 0 17 -0.166992 23 -0.5s11 -0.833008 15 -1.5c7.33301 7.33301 13.666 14 18.999 20c23.333 24.667 43.333 46.667 60 66c0.666992 -1.33301 4.16699 -6.66602 10.5 -15.999s9.5 -17.333 9.5 -24zM288.004 297.998c-4.66699 1.33301 -9 3.33301 -13 6
c-50.667 -16 -85.5 -33.5 -104.5 -52.5s-28.5 -43.167 -28.5 -72.5c2.66699 -0.666992 4.66699 -3.5 6 -8.5s2 -13.167 2 -24.5c2.66699 4.66699 21.5 26.167 56.5 64.5zM348.004 228.998c0 2 -0.832031 3.66699 -2.49902 5s-3.5 3 -5.5 5l-73 -83
c-23.333 -26.667 -49.333 -50 -78 -70c2.66699 0 6.16699 -0.833008 10.5 -2.5s7.16602 -2.5 8.49902 -2.5c28 0 57 13 87 39c35.333 30.667 53 67 53 109z" />
    <glyph glyph-name="ugrave" unicode="&#xf9;" horiz-adv-x="369" 
d="M382 358c0 -14 -13.0029 -49.667 -39.0029 -107c-30.667 -66.667 -61.334 -121.667 -92.001 -165c-41.333 -57.333 -77.666 -86 -108.999 -86c-29.333 -0 -58.666 14.333 -87.999 43c-34.667 33.333 -52 73 -52 119c0 23.333 8.83301 65.666 26.5 126.999
s26.5 109.666 26.5 144.999c7.33301 0 13 0.833008 17 2.5s7.33301 3.5 10 5.5c4 0 8.83301 -1.33301 14.5 -4s9.83398 -4 12.501 -4c0.666992 -5.33301 1.66699 -12 3 -20s2 -14.333 2 -19c0 -19.333 -7.66699 -53 -23 -101s-23 -94.667 -23 -140
c0 -27.333 3.83301 -50.833 11.5 -70.5s21.5 -29.5 41.5 -29.5c22 0 49.667 29 83 87c21.333 36.667 47.333 91.334 78 164.001c26.667 63.333 40.334 95.333 41.001 96h46l9 -28.5c2 -6.33301 3.33301 -11.166 4 -14.499zM316.997 536c0 -24 -8.33301 -35.999 -25 -35.999
c-7.33301 0 -16.333 4.33301 -27 13l-33 32c-24 9.33301 -47.333 20.333 -70 33c-46 26 -69 49.333 -69 70c0 9.33301 3.66699 16.666 11 21.999s16 8 26 8c6.66699 0 16 -4.66699 28 -14c16 -12 25 -18.667 27 -20c56.667 -30 95 -55.333 115 -76
c11.333 -11.333 17 -22 17 -32z" />
    <glyph glyph-name="uacute" unicode="&#xfa;" horiz-adv-x="369" 
d="M382 358c0 -14 -13.0029 -49.667 -39.0029 -107c-30.667 -66.667 -61.334 -121.667 -92.001 -165c-41.333 -57.333 -77.666 -86 -108.999 -86c-29.333 -0 -58.666 14.333 -87.999 43c-34.667 33.333 -52 73 -52 119c0 23.333 8.83301 65.666 26.5 126.999
s26.5 109.666 26.5 144.999c7.33301 0 13 0.833008 17 2.5s7.33301 3.5 10 5.5c4 0 8.83301 -1.33301 14.5 -4s9.83398 -4 12.501 -4c0.666992 -5.33301 1.66699 -12 3 -20s2 -14.333 2 -19c0 -19.333 -7.66699 -53 -23 -101s-23 -94.667 -23 -140
c0 -27.333 3.83301 -50.833 11.5 -70.5s21.5 -29.5 41.5 -29.5c22 0 49.667 29 83 87c21.333 36.667 47.333 91.334 78 164.001c26.667 63.333 40.334 95.333 41.001 96h46l9 -28.5c2 -6.33301 3.33301 -11.166 4 -14.499zM332.997 648
c0 -21.333 -22.667 -44.666 -68 -69.999l-71 -33c-11.333 -12.667 -22.333 -23.334 -33 -32.001s-19.667 -13 -27 -13c-6.66699 0 -12.5 3.33301 -17.5 10s-7.5 15.334 -7.5 26.001c0 10 5.66699 20.667 17 32c20.667 20.667 59 46 115 76l26 20c12 9.33301 21.667 14 29 14
c9.33301 0 17.833 -2.83301 25.5 -8.5s11.5 -12.834 11.5 -21.501z" />
    <glyph glyph-name="ucircumflex" unicode="&#xfb;" horiz-adv-x="369" 
d="M382 358c0 -14 -13.0029 -49.667 -39.0029 -107c-30.667 -66.667 -61.334 -121.667 -92.001 -165c-41.333 -57.333 -77.666 -86 -108.999 -86c-29.333 -0 -58.666 14.333 -87.999 43c-34.667 33.333 -52 73 -52 119c0 23.333 8.83301 65.666 26.5 126.999
s26.5 109.666 26.5 144.999c7.33301 0 13 0.833008 17 2.5s7.33301 3.5 10 5.5c4 0 8.83301 -1.33301 14.5 -4s9.83398 -4 12.501 -4c0.666992 -5.33301 1.66699 -12 3 -20s2 -14.333 2 -19c0 -19.333 -7.66699 -53 -23 -101s-23 -94.667 -23 -140
c0 -27.333 3.83301 -50.833 11.5 -70.5s21.5 -29.5 41.5 -29.5c22 0 49.667 29 83 87c21.333 36.667 47.333 91.334 78 164.001c26.667 63.333 40.334 95.333 41.001 96h46l9 -28.5c2 -6.33301 3.33301 -11.166 4 -14.499zM427.997 471l-27.001 -0.000976562
c-44.667 27.333 -74.667 47 -90 59c-21.333 20.667 -53.666 47.667 -96.999 81c-17.333 -14 -44 -34.333 -80 -61c-46 -34 -70.667 -51 -74 -51c-6 0 -16.333 4.83301 -31 14.5s-22 17.834 -22 24.501c0 10 26.667 34.333 80 73c19.333 14 41 34.333 65 61
c16 18 28.667 27 38 27c20 0 47.333 -14 82 -42c42 -33.333 94 -86.333 156 -159v-27z" />
    <glyph glyph-name="udieresis" unicode="&#xfc;" horiz-adv-x="369" 
d="M382 358c0 -14 -13.0029 -49.667 -39.0029 -107c-30.667 -66.667 -61.334 -121.667 -92.001 -165c-41.333 -57.333 -77.666 -86 -108.999 -86c-29.333 -0 -58.666 14.333 -87.999 43c-34.667 33.333 -52 73 -52 119c0 23.333 8.83301 65.666 26.5 126.999
s26.5 109.666 26.5 144.999c7.33301 0 13 0.833008 17 2.5s7.33301 3.5 10 5.5c4 0 8.83301 -1.33301 14.5 -4s9.83398 -4 12.501 -4c0.666992 -5.33301 1.66699 -12 3 -20s2 -14.333 2 -19c0 -19.333 -7.66699 -53 -23 -101s-23 -94.667 -23 -140
c0 -27.333 3.83301 -50.833 11.5 -70.5s21.5 -29.5 41.5 -29.5c22 0 49.667 29 83 87c21.333 36.667 47.333 91.334 78 164.001c26.667 63.333 40.334 95.333 41.001 96h46l9 -28.5c2 -6.33301 3.33301 -11.166 4 -14.499zM439.997 567
c0 -16 -12.166 -34.499 -36.499 -55.499s-44.5 -31.5 -60.5 -31.5c-12.667 0 -30.334 6 -53.001 18c-14.667 8 -22 15.333 -22 22c0 22.667 14.333 45.667 43 69c25.333 20.667 47 31 65 31c9.33301 0 21 -4.33301 35 -13c8 -4.66699 15 -7 21 -7
c2 -4.66699 3.83301 -9.83398 5.5 -15.501s2.5 -11.5 2.5 -17.5zM247.998 560.001c0 -18.667 -10.332 -38.668 -30.999 -60.001s-42.334 -32 -65.001 -32c-16 0 -32.333 4 -49 12c-22 10.667 -33 24 -33 40c0 13.333 8.66699 30.333 26 51c20 23.333 40 35 60 35
c20.667 -3.33301 36 -6.33301 46 -9c30.667 -9.33301 46 -21.666 46 -36.999z" />
    <glyph glyph-name="yacute" unicode="&#xfd;" horiz-adv-x="355" 
d="M355 366c-0.666992 -1.33301 -20.332 -38.6641 -58.999 -111.997c-16 -30.667 -32 -53.334 -48 -68.001c3.33301 -4.66699 7.66602 -7 12.999 -7c-8.66699 -9.33301 -15.167 -19.5 -19.5 -30.5s-8.83301 -16.5 -13.5 -16.5
c-101.333 -210.667 -152 -316.334 -152 -317.001c0 -4.66699 1.66699 -10.334 5 -17.001c-10.667 -8.66699 -17.334 -13 -20.001 -13c0 -5.33301 -0.666992 -10.333 -2 -15c-7.33301 -26 -26.666 -63.333 -57.999 -112h-33c-3.33301 6 -5.66602 11.667 -6.99902 17l132 324
l-92 381c5.33301 2 9.16602 3.66699 11.499 5s4.83301 2 7.5 2c16.667 0 36.667 -35.667 60 -107l61 -194c90 158 138 244.667 144 260c10.667 29.333 20.667 54 30 74h40v-54zM333.002 648.002c0 -21.333 -22.667 -44.666 -68 -69.999l-71 -33
c-11.333 -12.667 -22.333 -23.334 -33 -32.001s-19.667 -13 -27 -13c-6.66699 0 -12.5 3.33301 -17.5 10s-7.5 15.334 -7.5 26.001c0 10 5.66699 20.667 17 32c20.667 20.667 59 46 115 76l26 20c12 9.33301 21.667 14 29 14c9.33301 0 17.833 -2.83301 25.5 -8.5
s11.5 -12.834 11.5 -21.501z" />
    </font>
</defs>
</svg>
